<?xml version="1.0" encoding="UTF-8" standalone="no"?>
<!-- Created with Inkscape (http://www.inkscape.org/) -->

<svg
   xmlns:rendltx="http://NOTSET"
   xmlns:dc="http://purl.org/dc/elements/1.1/"
   xmlns:cc="http://creativecommons.org/ns#"
   xmlns:rdf="http://www.w3.org/1999/02/22-rdf-syntax-ns#"
   xmlns:svg="http://www.w3.org/2000/svg"
   xmlns="http://www.w3.org/2000/svg"
   xmlns:xlink="http://www.w3.org/1999/xlink"
   xmlns:sodipodi="http://sodipodi.sourceforge.net/DTD/sodipodi-0.dtd"
   xmlns:inkscape="http://www.inkscape.org/namespaces/inkscape"
   width="419.6275mm"
   height="184.63206mm"
   viewBox="0 0 419.62748 184.63206"
   version="1.1"
   id="svg8"
   inkscape:version="0.92.4 (5da689c313, 2019-01-14)"
   sodipodi:docname="drivetrainhub_helix_angle.svg">
  <defs
     id="defs2">
    <marker
       inkscape:isstock="true"
       style="overflow:visible"
       id="marker6955"
       refX="0"
       refY="0"
       orient="auto"
       inkscape:stockid="Arrow2Lend">
      <path
         inkscape:connector-curvature="0"
         transform="matrix(-1.1,0,0,-1.1,-1.1,0)"
         d="M 8.7185878,4.0337352 -2.2072895,0.01601326 8.7185884,-4.0017078 c -1.7454984,2.3720609 -1.7354408,5.6174519 -6e-7,8.035443 z"
         style="fill:#000000;fill-opacity:1;fill-rule:evenodd;stroke:#000000;stroke-width:0.625;stroke-linejoin:round;stroke-opacity:1"
         id="path6953" />
    </marker>
    <marker
       inkscape:isstock="true"
       style="overflow:visible"
       id="marker6903"
       refX="0"
       refY="0"
       orient="auto"
       inkscape:stockid="Arrow2Lstart">
      <path
         inkscape:connector-curvature="0"
         transform="matrix(1.1,0,0,1.1,1.1,0)"
         d="M 8.7185878,4.0337352 -2.2072895,0.01601326 8.7185884,-4.0017078 c -1.7454984,2.3720609 -1.7354408,5.6174519 -6e-7,8.035443 z"
         style="fill:#000000;fill-opacity:1;fill-rule:evenodd;stroke:#000000;stroke-width:0.625;stroke-linejoin:round;stroke-opacity:1"
         id="path6901" />
    </marker>
    <marker
       inkscape:stockid="Arrow2Lend"
       orient="auto"
       refY="0"
       refX="0"
       id="Arrow2Lend"
       style="overflow:visible"
       inkscape:isstock="true"
       inkscape:collect="always">
      <path
         id="path1006"
         style="fill:#050505;fill-opacity:1;fill-rule:evenodd;stroke:#050505;stroke-width:0.625;stroke-linejoin:round;stroke-opacity:1"
         d="M 8.7185878,4.0337352 -2.2072895,0.01601326 8.7185884,-4.0017078 c -1.7454984,2.3720609 -1.7354408,5.6174519 -6e-7,8.035443 z"
         transform="matrix(-1.1,0,0,-1.1,-1.1,0)"
         inkscape:connector-curvature="0" />
    </marker>
    <marker
       inkscape:stockid="Arrow2Lstart"
       orient="auto"
       refY="0"
       refX="0"
       id="Arrow2Lstart"
       style="overflow:visible"
       inkscape:isstock="true"
       inkscape:collect="always">
      <path
         id="path1003"
         style="fill:#050505;fill-opacity:1;fill-rule:evenodd;stroke:#050505;stroke-width:0.625;stroke-linejoin:round;stroke-opacity:1"
         d="M 8.7185878,4.0337352 -2.2072895,0.01601326 8.7185884,-4.0017078 c -1.7454984,2.3720609 -1.7354408,5.6174519 -6e-7,8.035443 z"
         transform="matrix(1.1,0,0,1.1,1.1,0)"
         inkscape:connector-curvature="0" />
    </marker>
    <marker
       inkscape:stockid="Arrow1Lstart"
       orient="auto"
       refY="0"
       refX="0"
       id="Arrow1Lstart"
       style="overflow:visible"
       inkscape:isstock="true">
      <path
         id="path985"
         d="M 0,0 5,-5 -12.5,0 5,5 Z"
         style="fill:#050505;fill-opacity:1;fill-rule:evenodd;stroke:#050505;stroke-width:1.00000003pt;stroke-opacity:1"
         transform="matrix(0.8,0,0,0.8,10,0)"
         inkscape:connector-curvature="0" />
    </marker>
    <marker
       inkscape:isstock="true"
       style="overflow:visible"
       id="marker6903-8"
       refX="0"
       refY="0"
       orient="auto"
       inkscape:stockid="Arrow2Lstart">
      <path
         inkscape:connector-curvature="0"
         transform="matrix(1.1,0,0,1.1,1.1,0)"
         d="M 8.7185878,4.0337352 -2.2072895,0.01601326 8.7185884,-4.0017078 c -1.7454984,2.3720609 -1.7354408,5.6174519 -6e-7,8.035443 z"
         style="fill:#000000;fill-opacity:1;fill-rule:evenodd;stroke:#000000;stroke-width:0.625;stroke-linejoin:round;stroke-opacity:1"
         id="path6901-6" />
    </marker>
    <marker
       inkscape:isstock="true"
       style="overflow:visible"
       id="marker6955-4"
       refX="0"
       refY="0"
       orient="auto"
       inkscape:stockid="Arrow2Lend">
      <path
         inkscape:connector-curvature="0"
         transform="matrix(-1.1,0,0,-1.1,-1.1,0)"
         d="M 8.7185878,4.0337352 -2.2072895,0.01601326 8.7185884,-4.0017078 c -1.7454984,2.3720609 -1.7354408,5.6174519 -6e-7,8.035443 z"
         style="fill:#000000;fill-opacity:1;fill-rule:evenodd;stroke:#000000;stroke-width:0.625;stroke-linejoin:round;stroke-opacity:1"
         id="path6953-6" />
    </marker>
  </defs>
  <sodipodi:namedview
     id="base"
     pagecolor="#ffffff"
     bordercolor="#666666"
     borderopacity="1.0"
     inkscape:pageopacity="0.0"
     inkscape:pageshadow="2"
     inkscape:zoom="0.84930979"
     inkscape:cx="792.99686"
     inkscape:cy="348.911"
     inkscape:document-units="mm"
     inkscape:current-layer="layer2"
     showgrid="false"
     inkscape:snap-intersection-paths="true"
     inkscape:object-paths="true"
     inkscape:window-width="1920"
     inkscape:window-height="1046"
     inkscape:window-x="-11"
     inkscape:window-y="-11"
     inkscape:window-maximized="1" />
  <metadata
     id="metadata5">
    <rdf:RDF>
      <cc:Work
         rdf:about="">
        <dc:format>image/svg+xml</dc:format>
        <dc:type
           rdf:resource="http://purl.org/dc/dcmitype/StillImage" />
        <dc:title />
      </cc:Work>
    </rdf:RDF>
  </metadata>
  <g
     inkscape:label="Drawing"
     inkscape:groupmode="layer"
     id="layer1"
     transform="translate(104.51701,31.233459)"
     style="display:inline">
    <rect
       style="fill:none;stroke:#000000;stroke-width:1;stroke-linecap:butt;stroke-linejoin:round;stroke-miterlimit:4;stroke-dasharray:none;stroke-dashoffset:0;stroke-opacity:1;paint-order:normal"
       id="rect815"
       width="165.25169"
       height="53.162308"
       x="-134.51823"
       y="78.610855"
       transform="rotate(-90)" />
    <path
       style="fill:none;stroke:#7b7b7b;stroke-width:1;stroke-linecap:butt;stroke-linejoin:miter;stroke-miterlimit:4;stroke-dasharray:4.00000011, 4.00000011;stroke-dashoffset:0;stroke-opacity:1"
       d="M 78.598697,119.57605 H 131.78533"
       id="path817"
       inkscape:connector-curvature="0" />
    <path
       style="fill:none;stroke:#7b7b7b;stroke-width:1;stroke-linecap:butt;stroke-linejoin:miter;stroke-miterlimit:4;stroke-dasharray:4.00000011, 4.00000011;stroke-dashoffset:0;stroke-opacity:1"
       d="M 78.598697,-15.791283 H 131.78533"
       id="path819"
       inkscape:connector-curvature="0" />
    <path
       style="fill:none;stroke:#000000;stroke-width:0.5;stroke-linecap:butt;stroke-linejoin:miter;stroke-miterlimit:4;stroke-dasharray:4, 1, 0.5, 1;stroke-dashoffset:0;stroke-opacity:1"
       d="M 61.99518,127.56025 H 192.22076"
       id="path821"
       inkscape:connector-curvature="0"
       sodipodi:nodetypes="cc" />
    <path
       style="fill:none;stroke:#000000;stroke-width:0.5;stroke-linecap:butt;stroke-linejoin:miter;stroke-miterlimit:4;stroke-dasharray:4.00000011, 1.00000003, 0.50000001, 1.00000003;stroke-dashoffset:0;stroke-opacity:1"
       d="M 14.967078,-23.583023 H 138.03556"
       id="path821-9"
       inkscape:connector-curvature="0"
       sodipodi:nodetypes="cc" />
    <path
       id="path4053"
       title="sin(pi * t) t"
       d="m 314.62894,51.892387 c -4.8156,5.423958 -9.63124,10.847591 -14.44686,16.144867 -4.81561,5.297276 -9.63125,10.467054 -14.44688,15.389953 -4.81559,4.922897 -9.63121,9.597087 -14.44684,13.915418 -4.81562,4.318335 -9.63125,8.278375 -14.44685,11.790215 -4.81564,3.51185 -9.63125,6.57257 -14.44688,9.11372 -4.81563,2.54114 -9.63121,4.55944 -14.44687,6.01107 -4.81562,1.45162 -9.63122,2.33311 -14.44685,2.62735 -4.81561,0.29423 -9.63124,-0.002 -14.44687,-0.87922 -4.81561,-0.87692 -9.63124,-2.33761 -14.44684,-4.34468 -4.81564,-2.00707 -9.63127,-4.56362 -14.44687,-7.60699 -4.81561,-3.04337 -9.63122,-6.57623 -14.44685,-10.51359 -4.81561,-3.937368 -9.63123,-8.281353 -14.44686,-12.928608 C 136.451,85.964637 131.63538,81.012649 126.81977,75.872804 122.00415,70.73296 117.18852,65.40452 112.3729,60.01242 107.55728,54.620317 102.74166,49.164577 97.926039,43.772357 93.11042,38.380127 88.294796,33.052187 83.479175,27.911967 78.663556,22.771747 73.847935,17.820737 69.032314,13.172887 64.216693,8.5250165 59.401073,4.1824465 54.585453,0.24427654 49.769833,-3.6939035 44.954214,-7.2249835 40.138594,-10.269323 c -4.815623,-3.04434 -9.631241,-5.59882 -14.446865,-7.60698 -4.81562,-2.00817 -9.631243,-3.4666 -14.446862,-4.34468 -4.8156219,-0.87808 -9.6312442,-1.17228 -14.4468648,-0.87922 -4.8156195,0.29305 -9.6312412,1.17685 -14.4468622,2.62735 -4.815619,1.4505 -9.63124,3.47096 -14.446859,6.01106 -4.815621,2.54011 -9.631244,5.6027695 -14.446864,9.1137195 -4.815621,3.51095 -9.631241,7.4726 -14.446863,11.79022 -4.815621,4.3176205 -9.63124,8.9930105 -14.446861,13.9154205 -4.81562,4.9224 -9.631244,10.09293 -14.446864,15.38995 -4.815619,5.29703 -9.631243,10.72091 -14.446889,16.14487"
       style="fill:none;fill-opacity:1;stroke:#050505;stroke-width:0.5;stroke-linecap:butt;stroke-linejoin:round;stroke-miterlimit:4;stroke-dasharray:none;stroke-dashoffset:0;stroke-opacity:1;paint-order:normal"
       inkscape:connector-curvature="0"
       sodipodi:nodetypes="ccccccscccscccscsccscscscssscc" />
    <path
       style="fill:none;stroke:#000000;stroke-width:0.99999994;stroke-linecap:butt;stroke-linejoin:miter;stroke-miterlimit:4;stroke-dasharray:11.99999928, 11.99999928;stroke-dashoffset:0;stroke-opacity:1"
       d="m 658.23768,315.99839 925.60392,1e-5"
       id="path7335"
       transform="matrix(0.26458333,0,0,0.26458333,-104.42914,-31.715523)"
       inkscape:connector-curvature="0"
       sodipodi:nodetypes="cc" />
    <path
       style="fill:none;stroke:#000000;stroke-width:0.99999994;stroke-linecap:butt;stroke-linejoin:miter;stroke-miterlimit:4;stroke-dasharray:11.99999928, 11.99999928;stroke-dashoffset:0;stroke-opacity:1"
       d="M 0.37447559,315.9984 H 593.68853"
       id="path4129"
       transform="matrix(0.26458333,0,0,0.26458333,-104.42914,-31.715523)"
       inkscape:connector-curvature="0"
       sodipodi:nodetypes="cc" />
    <path
       style="display:inline;fill:none;fill-opacity:1;stroke:#b8b8b8;stroke-width:0.5;stroke-linecap:butt;stroke-linejoin:round;stroke-miterlimit:4;stroke-dasharray:none;stroke-dashoffset:0;stroke-opacity:1;paint-order:normal"
       d="m 131.78533,72.182849 c -1.65524,-1.717556 -3.31049,-3.462054 -4.96574,-5.228746 -4.81562,-5.139841 -9.63125,-10.46828 -14.44685,-15.860376 -4.81563,-5.3921 -9.63125,-10.84784 -14.446868,-16.240062 -4.81562,-5.392229 -9.63124,-10.72017 -14.44686,-15.860389 -1.62693,-1.736594 -3.25386,-3.451592 -4.88079,-5.1406"
       id="path4809"
       inkscape:connector-curvature="0" />
    <path
       style="display:inline;fill:none;fill-opacity:1;stroke:#b8b8b8;stroke-width:0.5;stroke-linecap:butt;stroke-linejoin:round;stroke-miterlimit:4;stroke-dasharray:none;stroke-dashoffset:0;stroke-opacity:1;paint-order:normal"
       d="m 131.78533,89.273933 c -1.65524,-1.717556 -3.31049,-3.462054 -4.96574,-5.228746 -4.81562,-5.139841 -9.63125,-10.468282 -14.44685,-15.860377 -4.81563,-5.3921 -9.63125,-10.84784 -14.446872,-16.240063 -4.81562,-5.392229 -9.63124,-10.72017 -14.44686,-15.860389 -1.626935,-1.736593 -3.253865,-3.451591 -4.880795,-5.140599"
       id="path4809-0"
       inkscape:connector-curvature="0" />
    <path
       style="fill:none;stroke:#000000;stroke-width:0.5;stroke-linecap:butt;stroke-linejoin:miter;stroke-miterlimit:4;stroke-dasharray:none;stroke-opacity:1;marker-start:url(#marker6903);marker-end:url(#marker6955)"
       d="M 66.319014,127.56025 V -23.583023"
       id="path6893"
       inkscape:connector-curvature="0" />
    <path
       style="display:inline;fill:none;stroke:#000000;stroke-width:0.5;stroke-linecap:butt;stroke-linejoin:miter;stroke-miterlimit:4;stroke-dasharray:none;stroke-opacity:1;marker-start:url(#marker6903-8);marker-end:url(#marker6955-4)"
       d="M -103.10751,145.2709 H 313.89343"
       id="path6893-5"
       inkscape:connector-curvature="0"
       sodipodi:nodetypes="cc" />
  </g>
  <g
     inkscape:groupmode="layer"
     id="layer4"
     inkscape:label="Annotate"
     transform="translate(0.04244503,7.7730995)">
    <path
       style="display:inline;fill:none;fill-opacity:1;stroke:#050505;stroke-width:0.5;stroke-linecap:butt;stroke-linejoin:round;stroke-miterlimit:4;stroke-dasharray:none;stroke-dashoffset:0;stroke-opacity:1;marker-start:url(#Arrow2Lstart);marker-end:url(#Arrow2Lend);paint-order:normal"
       id="path955"
       sodipodi:type="arc"
       sodipodi:cx="-122.26099"
       sodipodi:cy="-71.633812"
       sodipodi:rx="26.088079"
       sodipodi:ry="26.088079"
       sodipodi:start="0.013971211"
       sodipodi:end="0.84889086"
       d="m -96.175453,-71.269342 a 26.088079,26.088079 0 0 1 -8.846117,19.215884"
       transform="rotate(180,52.237285,11.730179)"
       sodipodi:open="true" />
    <path
       transform="translate(104.47457,23.460358)"
       style="display:inline;fill:none;stroke:#000000;stroke-width:0.26458332px;stroke-linecap:butt;stroke-linejoin:miter;stroke-opacity:1"
       d="m 144.35575,45.03244 -6.79792,5.801612"
       id="path983"
       inkscape:connector-curvature="0"
       sodipodi:nodetypes="cc" />
    <path
       transform="translate(104.47457,23.460358)"
       style="display:inline;fill:none;stroke:#000000;stroke-width:0.26458332px;stroke-linecap:butt;stroke-linejoin:miter;stroke-opacity:1"
       d="M 106.4371,28.921318 99.639183,34.72293"
       id="path983-8"
       inkscape:connector-curvature="0"
       sodipodi:nodetypes="cc" />
    <path
       transform="translate(134.15875,25.533725)"
       style="display:inline;fill:none;stroke:#000000;stroke-width:0.5;stroke-linecap:butt;stroke-linejoin:miter;stroke-miterlimit:4;stroke-dasharray:none;stroke-opacity:1"
       d="m 63.213794,69.743536 h 6.60109"
       id="path6341"
       inkscape:connector-curvature="0" />
    <path
       style="display:inline;fill:none;stroke:#000000;stroke-width:0.26458332px;stroke-linecap:butt;stroke-linejoin:miter;stroke-opacity:1"
       d="M 63.345015,34.133447 48.25664,28.201427"
       id="path983-8-9"
       inkscape:connector-curvature="0"
       sodipodi:nodetypes="cc" />
    <path
       style="display:inline;fill:none;stroke:#000000;stroke-width:0.5;stroke-linecap:butt;stroke-linejoin:miter;stroke-miterlimit:4;stroke-dasharray:none;stroke-opacity:1"
       d="m 0.30872366,165.30519 v 6.60109"
       id="path6341-4"
       inkscape:connector-curvature="0" />
    <path
       style="display:inline;fill:none;stroke:#000000;stroke-width:0.5;stroke-linecap:butt;stroke-linejoin:miter;stroke-miterlimit:4;stroke-dasharray:none;stroke-opacity:1"
       d="m 419.33506,165.06613 v 6.60109"
       id="path6341-4-7"
       inkscape:connector-curvature="0" />
  </g>
  <g
     inkscape:groupmode="layer"
     id="layer2"
     inkscape:label="Text"
     style="display:none"
     transform="translate(134.20119,33.306829)">
    <text
       xml:space="preserve"
       style="font-style:normal;font-weight:normal;font-size:10.58333302px;line-height:1.25;font-family:sans-serif;letter-spacing:0px;word-spacing:0px;fill:#000000;fill-opacity:1;stroke:none;stroke-width:0.26458332"
       x="57.088692"
       y="78.503204"
       id="text959"><tspan
         sodipodi:role="line"
         id="tspan957"
         x="57.088692"
         y="78.503204"
         style="font-size:5.64444447px;stroke-width:0.26458332">$\beta$</tspan></text>
    <text
       xml:space="preserve"
       style="font-style:normal;font-weight:normal;font-size:10.58333302px;line-height:1.25;font-family:sans-serif;letter-spacing:0px;word-spacing:0px;fill:#000000;fill-opacity:1;stroke:none;stroke-width:0.26458332"
       x="115.96436"
       y="43.514038"
       id="text959-0"><tspan
         sodipodi:role="line"
         id="tspan957-8"
         x="115.96436"
         y="43.514038"
         style="font-size:5.64444447px;stroke-width:0.26458332">axis of rotation</tspan></text>
    <text
       xml:space="preserve"
       style="font-style:normal;font-weight:normal;font-size:10.58333302px;line-height:1.25;font-family:sans-serif;letter-spacing:0px;word-spacing:0px;display:inline;fill:#000000;fill-opacity:1;stroke:none;stroke-width:0.26458332"
       x="78.09642"
       y="27.561987"
       id="text959-0-3"><tspan
         sodipodi:role="line"
         id="tspan957-8-3"
         x="78.09642"
         y="27.561987"
         style="font-size:5.64444447px;stroke-width:0.26458332">tooth</tspan></text>
    <text
       xml:space="preserve"
       style="font-style:normal;font-weight:normal;font-size:10.58333302px;line-height:1.25;font-family:sans-serif;letter-spacing:0px;word-spacing:0px;display:inline;fill:#000000;fill-opacity:1;stroke:none;stroke-width:0.26458332"
       x="-68.878029"
       y="10.718743"
       id="text959-08"><tspan
         sodipodi:role="line"
         x="-68.878029"
         y="10.718743"
         style="font-size:5.64444447px;stroke-width:0.26458332"
         id="tspan6583">helix</tspan></text>
    <text
       xml:space="preserve"
       style="font-style:normal;font-weight:normal;font-size:10.58333302px;line-height:1.25;font-family:sans-serif;letter-spacing:0px;word-spacing:0px;display:inline;fill:#000000;fill-opacity:1;stroke:none;stroke-width:0.26458332"
       x="21.845232"
       y="31.38134"
       id="text959-3"><tspan
         sodipodi:role="line"
         id="tspan957-1"
         x="21.845232"
         y="31.38134"
         style="font-size:5.64444447px;stroke-width:0.26458332">$d$</tspan></text>
    <text
       xml:space="preserve"
       style="font-style:normal;font-weight:normal;font-size:10.58333302px;line-height:1.25;font-family:sans-serif;letter-spacing:0px;word-spacing:0px;display:inline;fill:#000000;fill-opacity:1;stroke:none;stroke-width:0.26458332"
       x="58.278564"
       y="141.35831"
       id="text959-3-8"><tspan
         sodipodi:role="line"
         id="tspan957-1-7"
         x="58.278564"
         y="141.35831"
         style="font-size:5.64444447px;stroke-width:0.26458332">$p_\beta$</tspan></text>
  </g>
  <g
     rendltx:math="False"
     rendltx:newline="False"
     rendltx:fontsize="12.0"
     rendltx:depth="0.0"
     rendltx:scale="1.0"
     rendltx:packages="amsmath,amssymb"
     rendltx:preamble=""
     id="ltx-render-layer"
     inkscape:groupmode="layer"
     inkscape:label="Rendered Latex"
     transform="translate(134.20119,33.306829)"
     style="display:inline">
    <g
       id="lx-text959"
       transform="matrix(0.705556,0,0,0.705556,59.276109,60.093678)">
      <defs
         id="defs1057">
        <g
           id="g1055">
          <symbol
             id="lx-text959-glyph0-0"
             overflow="visible">
            <path
               id="path1049"
               d=""
               style="stroke:none;" />
          </symbol>
          <symbol
             id="lx-text959-glyph0-1"
             overflow="visible">
            <path
               id="path1052"
               d="M 6.765625 -6.953125 C 6.765625 -7.671875 6.15625 -8.421875 5.0625 -8.421875 C 3.53125 -8.421875 2.546875 -6.53125 2.234375 -5.296875 L 0.34375 2.203125 C 0.328125 2.296875 0.390625 2.3125 0.453125 2.3125 C 0.53125 2.3125 0.59375 2.3125 0.609375 2.25 L 1.453125 -1.09375 C 1.5625 -0.4375 2.21875 0.125 2.921875 0.125 C 4.640625 0.125 6.25 -1.21875 6.25 -3 C 6.25 -3.453125 6.140625 -3.90625 5.890625 -4.296875 C 5.75 -4.515625 5.5625 -4.6875 5.375 -4.828125 C 6.234375 -5.28125 6.765625 -6.015625 6.765625 -6.953125 Z M 4.6875 -4.84375 C 4.5 -4.765625 4.296875 -4.75 4.078125 -4.75 C 3.90625 -4.75 3.75 -4.734375 3.53125 -4.8125 C 3.65625 -4.890625 3.84375 -4.90625 4.09375 -4.90625 C 4.296875 -4.90625 4.515625 -4.890625 4.6875 -4.84375 Z M 6.140625 -7.0625 C 6.140625 -6.40625 5.828125 -5.453125 5.046875 -5.015625 C 4.8125 -5.09375 4.5 -5.15625 4.25 -5.15625 C 4 -5.15625 3.28125 -5.171875 3.28125 -4.796875 C 3.28125 -4.46875 3.9375 -4.5 4.140625 -4.5 C 4.453125 -4.5 4.71875 -4.578125 5.015625 -4.65625 C 5.390625 -4.34375 5.5625 -3.9375 5.5625 -3.34375 C 5.5625 -2.65625 5.359375 -2.09375 5.140625 -1.578125 C 4.75 -0.6875 3.8125 -0.125 2.984375 -0.125 C 2.109375 -0.125 1.65625 -0.8125 1.65625 -1.625 C 1.65625 -1.734375 1.65625 -1.890625 1.703125 -2.0625 L 2.484375 -5.21875 C 2.875 -6.78125 3.890625 -8.1875 5.046875 -8.1875 C 5.90625 -8.1875 6.140625 -7.59375 6.140625 -7.0625 Z M 6.140625 -7.0625 "
               style="stroke:none;" />
          </symbol>
        </g>
      </defs>
      <g
         id="lx-text959-surface1">
        <g
           id="g1061"
           style="fill:rgb(0%,0%,0%);fill-opacity:1;">
          <use
             id="use1059"
             y="0.0"
             x="0.0"
             xlink:href="#lx-text959-glyph0-1" />
        </g>
      </g>
    </g>
    <g
       id="lx-text959-0"
       transform="matrix(0.705556,0,0,0.705556,116.17089,43.48824)">
      <defs
         id="defs1097">
        <g
           id="g1095">
          <symbol
             id="lx-text959-0-glyph0-0"
             overflow="visible">
            <path
               id="path1065"
               d=""
               style="stroke:none;" />
          </symbol>
          <symbol
             id="lx-text959-0-glyph0-1"
             overflow="visible">
            <path
               id="path1068"
               d="M 4.609375 -3.1875 C 4.609375 -3.84375 4.609375 -4.3125 4.09375 -4.78125 C 3.671875 -5.15625 3.125 -5.328125 2.609375 -5.328125 C 1.625 -5.328125 0.875 -4.6875 0.875 -3.90625 C 0.875 -3.5625 1.09375 -3.390625 1.375 -3.390625 C 1.65625 -3.390625 1.859375 -3.59375 1.859375 -3.890625 C 1.859375 -4.375 1.4375 -4.375 1.25 -4.375 C 1.53125 -4.875 2.109375 -5.09375 2.578125 -5.09375 C 3.125 -5.09375 3.84375 -4.640625 3.84375 -3.5625 L 3.84375 -3.078125 C 1.4375 -3.046875 0.53125 -2.046875 0.53125 -1.125 C 0.53125 -0.171875 1.625 0.125 2.359375 0.125 C 3.140625 0.125 3.6875 -0.359375 3.90625 -0.9375 C 3.953125 -0.375 4.328125 0.0625 4.84375 0.0625 C 5.09375 0.0625 5.78125 -0.109375 5.78125 -1.0625 L 5.78125 -1.734375 L 5.515625 -1.734375 L 5.515625 -1.0625 C 5.515625 -0.375 5.234375 -0.28125 5.0625 -0.28125 C 4.609375 -0.28125 4.609375 -0.921875 4.609375 -1.09375 Z M 3.84375 -1.6875 C 3.84375 -0.515625 2.96875 -0.125 2.453125 -0.125 C 1.859375 -0.125 1.375 -0.546875 1.375 -1.125 C 1.375 -2.703125 3.40625 -2.84375 3.84375 -2.875 Z M 3.84375 -1.6875 "
               style="stroke:none;" />
          </symbol>
          <symbol
             id="lx-text959-0-glyph0-2"
             overflow="visible">
            <path
               id="path1071"
               d="M 3.34375 -2.828125 C 3.6875 -3.28125 4.203125 -3.921875 4.421875 -4.171875 C 4.90625 -4.71875 5.46875 -4.8125 5.859375 -4.8125 L 5.859375 -5.15625 C 5.34375 -5.125 5.3125 -5.125 4.859375 -5.125 C 4.40625 -5.125 4.375 -5.125 3.78125 -5.15625 L 3.78125 -4.8125 C 3.9375 -4.78125 4.125 -4.703125 4.125 -4.4375 C 4.125 -4.234375 4.015625 -4.09375 3.9375 -4 L 3.171875 -3.03125 L 2.25 -4.265625 C 2.21875 -4.3125 2.140625 -4.421875 2.140625 -4.5 C 2.140625 -4.578125 2.203125 -4.796875 2.5625 -4.8125 L 2.5625 -5.15625 C 2.265625 -5.125 1.65625 -5.125 1.328125 -5.125 C 0.9375 -5.125 0.90625 -5.125 0.171875 -5.15625 L 0.171875 -4.8125 C 0.78125 -4.8125 1.015625 -4.78125 1.265625 -4.453125 L 2.671875 -2.625 C 2.6875 -2.609375 2.734375 -2.53125 2.734375 -2.5 C 2.734375 -2.46875 1.8125 -1.296875 1.6875 -1.140625 C 1.15625 -0.484375 0.640625 -0.359375 0.125 -0.34375 L 0.125 0 C 0.578125 -0.03125 0.59375 -0.03125 1.109375 -0.03125 C 1.5625 -0.03125 1.59375 -0.03125 2.1875 0 L 2.1875 -0.34375 C 1.90625 -0.375 1.859375 -0.5625 1.859375 -0.734375 C 1.859375 -0.921875 1.9375 -1.015625 2.0625 -1.171875 C 2.234375 -1.421875 2.625 -1.90625 2.921875 -2.28125 L 3.890625 -1 C 4.09375 -0.734375 4.09375 -0.71875 4.09375 -0.640625 C 4.09375 -0.546875 4 -0.359375 3.6875 -0.34375 L 3.6875 0 C 4 -0.03125 4.578125 -0.03125 4.90625 -0.03125 C 5.3125 -0.03125 5.328125 -0.03125 6.046875 0 L 6.046875 -0.34375 C 5.421875 -0.34375 5.203125 -0.375 4.90625 -0.75 Z M 3.34375 -2.828125 "
               style="stroke:none;" />
          </symbol>
          <symbol
             id="lx-text959-0-glyph0-3"
             overflow="visible">
            <path
               id="path1074"
               d="M 2.078125 -7.359375 C 2.078125 -7.671875 1.828125 -7.953125 1.5 -7.953125 C 1.1875 -7.953125 0.921875 -7.703125 0.921875 -7.375 C 0.921875 -7.015625 1.203125 -6.796875 1.5 -6.796875 C 1.859375 -6.796875 2.078125 -7.09375 2.078125 -7.359375 Z M 0.4375 -5.140625 L 0.4375 -4.796875 C 1.1875 -4.796875 1.296875 -4.71875 1.296875 -4.140625 L 1.296875 -0.890625 C 1.296875 -0.34375 1.171875 -0.34375 0.390625 -0.34375 L 0.390625 0 C 0.734375 -0.03125 1.296875 -0.03125 1.65625 -0.03125 C 1.78125 -0.03125 2.46875 -0.03125 2.875 0 L 2.875 -0.34375 C 2.109375 -0.34375 2.0625 -0.40625 2.0625 -0.875 L 2.0625 -5.265625 Z M 0.4375 -5.140625 "
               style="stroke:none;" />
          </symbol>
          <symbol
             id="lx-text959-0-glyph0-4"
             overflow="visible">
            <path
               id="path1077"
               d="M 3.921875 -5.0625 C 3.921875 -5.265625 3.921875 -5.328125 3.796875 -5.328125 C 3.703125 -5.328125 3.484375 -5.0625 3.390625 -4.953125 C 3.03125 -5.265625 2.65625 -5.328125 2.265625 -5.328125 C 0.828125 -5.328125 0.390625 -4.546875 0.390625 -3.890625 C 0.390625 -3.75 0.390625 -3.328125 0.84375 -2.921875 C 1.234375 -2.578125 1.640625 -2.5 2.1875 -2.390625 C 2.84375 -2.265625 3 -2.21875 3.296875 -1.984375 C 3.515625 -1.8125 3.671875 -1.546875 3.671875 -1.203125 C 3.671875 -0.6875 3.375 -0.125 2.3125 -0.125 C 1.53125 -0.125 0.953125 -0.578125 0.6875 -1.765625 C 0.640625 -1.984375 0.640625 -2 0.640625 -2.015625 C 0.609375 -2.0625 0.5625 -2.0625 0.53125 -2.0625 C 0.390625 -2.0625 0.390625 -2 0.390625 -1.78125 L 0.390625 -0.15625 C 0.390625 0.0625 0.390625 0.125 0.515625 0.125 C 0.578125 0.125 0.578125 0.109375 0.78125 -0.140625 C 0.84375 -0.234375 0.84375 -0.25 1.03125 -0.4375 C 1.484375 0.125 2.125 0.125 2.328125 0.125 C 3.578125 0.125 4.203125 -0.578125 4.203125 -1.515625 C 4.203125 -2.15625 3.8125 -2.546875 3.703125 -2.65625 C 3.28125 -3.03125 2.953125 -3.09375 2.15625 -3.234375 C 1.8125 -3.3125 0.9375 -3.484375 0.9375 -4.203125 C 0.9375 -4.5625 1.1875 -5.109375 2.265625 -5.109375 C 3.5625 -5.109375 3.640625 -4 3.65625 -3.640625 C 3.671875 -3.53125 3.75 -3.53125 3.796875 -3.53125 C 3.921875 -3.53125 3.921875 -3.59375 3.921875 -3.8125 Z M 3.921875 -5.0625 "
               style="stroke:none;" />
          </symbol>
          <symbol
             id="lx-text959-0-glyph0-5"
             overflow="visible">
            <path
               id="path1080"
               d="M 5.484375 -2.5625 C 5.484375 -4.09375 4.3125 -5.328125 2.921875 -5.328125 C 1.5 -5.328125 0.359375 -4.0625 0.359375 -2.5625 C 0.359375 -1.03125 1.546875 0.125 2.921875 0.125 C 4.328125 0.125 5.484375 -1.046875 5.484375 -2.5625 Z M 2.921875 -0.140625 C 2.484375 -0.140625 1.953125 -0.328125 1.609375 -0.921875 C 1.28125 -1.453125 1.265625 -2.15625 1.265625 -2.671875 C 1.265625 -3.125 1.265625 -3.84375 1.640625 -4.390625 C 1.96875 -4.90625 2.5 -5.09375 2.921875 -5.09375 C 3.375 -5.09375 3.890625 -4.875 4.203125 -4.40625 C 4.578125 -3.859375 4.578125 -3.109375 4.578125 -2.671875 C 4.578125 -2.25 4.578125 -1.5 4.265625 -0.9375 C 3.9375 -0.375 3.375 -0.140625 2.921875 -0.140625 Z M 2.921875 -0.140625 "
               style="stroke:none;" />
          </symbol>
          <symbol
             id="lx-text959-0-glyph0-6"
             overflow="visible">
            <path
               id="path1083"
               d="M 2.0625 -4.8125 L 3.40625 -4.8125 L 3.40625 -5.15625 L 2.03125 -5.15625 L 2.03125 -6.546875 C 2.03125 -7.625 2.578125 -8.171875 3.078125 -8.171875 C 3.171875 -8.171875 3.34375 -8.15625 3.484375 -8.078125 C 3.4375 -8.0625 3.140625 -7.953125 3.140625 -7.609375 C 3.140625 -7.34375 3.328125 -7.140625 3.609375 -7.140625 C 3.890625 -7.140625 4.09375 -7.34375 4.09375 -7.625 C 4.09375 -8.0625 3.65625 -8.421875 3.078125 -8.421875 C 2.25 -8.421875 1.296875 -7.765625 1.296875 -6.546875 L 1.296875 -5.15625 L 0.375 -5.15625 L 0.375 -4.8125 L 1.296875 -4.8125 L 1.296875 -0.890625 C 1.296875 -0.34375 1.171875 -0.34375 0.390625 -0.34375 L 0.390625 0 C 0.734375 -0.03125 1.390625 -0.03125 1.75 -0.03125 C 2.0625 -0.03125 2.921875 -0.03125 3.1875 0 L 3.1875 -0.34375 L 2.953125 -0.34375 C 2.078125 -0.34375 2.0625 -0.484375 2.0625 -0.90625 Z M 2.0625 -4.8125 "
               style="stroke:none;" />
          </symbol>
          <symbol
             id="lx-text959-0-glyph0-7"
             overflow="visible">
            <path
               id="path1086"
               d="M 2 -2.78125 C 2 -3.9375 2.46875 -5.03125 3.390625 -5.03125 C 3.484375 -5.03125 3.515625 -5.03125 3.5625 -5.015625 C 3.46875 -4.96875 3.28125 -4.90625 3.28125 -4.578125 C 3.28125 -4.234375 3.546875 -4.09375 3.734375 -4.09375 C 3.984375 -4.09375 4.21875 -4.25 4.21875 -4.578125 C 4.21875 -4.9375 3.890625 -5.265625 3.375 -5.265625 C 2.359375 -5.265625 2.015625 -4.171875 1.953125 -3.9375 L 1.9375 -3.9375 L 1.9375 -5.265625 L 0.328125 -5.140625 L 0.328125 -4.796875 C 1.140625 -4.796875 1.25 -4.703125 1.25 -4.125 L 1.25 -0.890625 C 1.25 -0.34375 1.109375 -0.34375 0.328125 -0.34375 L 0.328125 0 C 0.671875 -0.03125 1.328125 -0.03125 1.6875 -0.03125 C 2.015625 -0.03125 2.859375 -0.03125 3.125 0 L 3.125 -0.34375 L 2.890625 -0.34375 C 2.015625 -0.34375 2 -0.484375 2 -0.90625 Z M 2 -2.78125 "
               style="stroke:none;" />
          </symbol>
          <symbol
             id="lx-text959-0-glyph0-8"
             overflow="visible">
            <path
               id="path1089"
               d="M 2.015625 -4.8125 L 3.6875 -4.8125 L 3.6875 -5.15625 L 2.015625 -5.15625 L 2.015625 -7.34375 L 1.75 -7.34375 C 1.734375 -6.234375 1.296875 -5.078125 0.21875 -5.046875 L 0.21875 -4.8125 L 1.234375 -4.8125 L 1.234375 -1.484375 C 1.234375 -0.15625 2.109375 0.125 2.75 0.125 C 3.5 0.125 3.890625 -0.625 3.890625 -1.484375 L 3.890625 -2.15625 L 3.640625 -2.15625 L 3.640625 -1.5 C 3.640625 -0.640625 3.28125 -0.140625 2.828125 -0.140625 C 2.015625 -0.140625 2.015625 -1.25 2.015625 -1.453125 Z M 2.015625 -4.8125 "
               style="stroke:none;" />
          </symbol>
          <symbol
             id="lx-text959-0-glyph0-9"
             overflow="visible">
            <path
               id="path1092"
               d="M 5.3125 -2.90625 C 5.3125 -4.015625 5.3125 -4.34375 5.046875 -4.734375 C 4.703125 -5.203125 4.140625 -5.265625 3.734375 -5.265625 C 2.5625 -5.265625 2.109375 -4.28125 2.015625 -4.046875 L 2.015625 -5.265625 L 0.375 -5.140625 L 0.375 -4.796875 C 1.1875 -4.796875 1.296875 -4.703125 1.296875 -4.125 L 1.296875 -0.890625 C 1.296875 -0.34375 1.15625 -0.34375 0.375 -0.34375 L 0.375 0 C 0.6875 -0.03125 1.34375 -0.03125 1.671875 -0.03125 C 2.015625 -0.03125 2.671875 -0.03125 2.96875 0 L 2.96875 -0.34375 C 2.21875 -0.34375 2.0625 -0.34375 2.0625 -0.890625 L 2.0625 -3.109375 C 2.0625 -4.359375 2.890625 -5.03125 3.640625 -5.03125 C 4.375 -5.03125 4.546875 -4.421875 4.546875 -3.6875 L 4.546875 -0.890625 C 4.546875 -0.34375 4.40625 -0.34375 3.640625 -0.34375 L 3.640625 0 C 3.9375 -0.03125 4.59375 -0.03125 4.921875 -0.03125 C 5.265625 -0.03125 5.921875 -0.03125 6.234375 0 L 6.234375 -0.34375 C 5.625 -0.34375 5.328125 -0.34375 5.3125 -0.703125 Z M 5.3125 -2.90625 "
               style="stroke:none;" />
          </symbol>
        </g>
      </defs>
      <g
         id="lx-text959-0-surface1">
        <g
           id="g1107"
           style="fill:rgb(0%,0%,0%);fill-opacity:1;">
          <use
             id="use1099"
             y="0.0"
             x="0.0"
             xlink:href="#lx-text959-0-glyph0-1" />
          <use
             id="use1101"
             y="0.0"
             x="5.853266"
             xlink:href="#lx-text959-0-glyph0-2" />
          <use
             id="use1103"
             y="0.0"
             x="12.031713"
             xlink:href="#lx-text959-0-glyph0-3" />
          <use
             id="use1105"
             y="0.0"
             x="15.283528"
             xlink:href="#lx-text959-0-glyph0-4" />
        </g>
        <g
           id="g1113"
           style="fill:rgb(0%,0%,0%);fill-opacity:1;">
          <use
             id="use1109"
             y="0.0"
             x="23.798021"
             xlink:href="#lx-text959-0-glyph0-5" />
          <use
             id="use1111"
             y="0.0"
             x="29.651287"
             xlink:href="#lx-text959-0-glyph0-6" />
        </g>
        <g
           id="g1131"
           style="fill:rgb(0%,0%,0%);fill-opacity:1;">
          <use
             id="use1115"
             y="0.0"
             x="37.137633"
             xlink:href="#lx-text959-0-glyph0-7" />
          <use
             id="use1117"
             y="0.0"
             x="41.690173"
             xlink:href="#lx-text959-0-glyph0-5" />
          <use
             id="use1119"
             y="0.0"
             x="47.543439"
             xlink:href="#lx-text959-0-glyph0-8" />
          <use
             id="use1121"
             y="0.0"
             x="52.09598"
             xlink:href="#lx-text959-0-glyph0-1" />
          <use
             id="use1123"
             y="0.0"
             x="57.949245"
             xlink:href="#lx-text959-0-glyph0-8" />
          <use
             id="use1125"
             y="0.0"
             x="62.501786"
             xlink:href="#lx-text959-0-glyph0-3" />
          <use
             id="use1127"
             y="0.0"
             x="65.7536"
             xlink:href="#lx-text959-0-glyph0-5" />
          <use
             id="use1129"
             y="0.0"
             x="71.606866"
             xlink:href="#lx-text959-0-glyph0-9" />
        </g>
      </g>
    </g>
    <g
       id="lx-text959-0-3"
       transform="matrix(0.705556,0,0,0.705556,77.546671,28.14882)">
      <defs
         id="defs1149">
        <g
           id="g1147">
          <symbol
             id="lx-text959-0-3-glyph0-0"
             overflow="visible">
            <path
               id="path1135"
               d=""
               style="stroke:none;" />
          </symbol>
          <symbol
             id="lx-text959-0-3-glyph0-1"
             overflow="visible">
            <path
               id="path1138"
               d="M 2.015625 -4.8125 L 3.6875 -4.8125 L 3.6875 -5.15625 L 2.015625 -5.15625 L 2.015625 -7.34375 L 1.75 -7.34375 C 1.734375 -6.234375 1.296875 -5.078125 0.21875 -5.046875 L 0.21875 -4.8125 L 1.234375 -4.8125 L 1.234375 -1.484375 C 1.234375 -0.15625 2.109375 0.125 2.75 0.125 C 3.5 0.125 3.890625 -0.625 3.890625 -1.484375 L 3.890625 -2.15625 L 3.640625 -2.15625 L 3.640625 -1.5 C 3.640625 -0.640625 3.28125 -0.140625 2.828125 -0.140625 C 2.015625 -0.140625 2.015625 -1.25 2.015625 -1.453125 Z M 2.015625 -4.8125 "
               style="stroke:none;" />
          </symbol>
          <symbol
             id="lx-text959-0-3-glyph0-2"
             overflow="visible">
            <path
               id="path1141"
               d="M 5.484375 -2.5625 C 5.484375 -4.09375 4.3125 -5.328125 2.921875 -5.328125 C 1.5 -5.328125 0.359375 -4.0625 0.359375 -2.5625 C 0.359375 -1.03125 1.546875 0.125 2.921875 0.125 C 4.328125 0.125 5.484375 -1.046875 5.484375 -2.5625 Z M 2.921875 -0.140625 C 2.484375 -0.140625 1.953125 -0.328125 1.609375 -0.921875 C 1.28125 -1.453125 1.265625 -2.15625 1.265625 -2.671875 C 1.265625 -3.125 1.265625 -3.84375 1.640625 -4.390625 C 1.96875 -4.90625 2.5 -5.09375 2.921875 -5.09375 C 3.375 -5.09375 3.890625 -4.875 4.203125 -4.40625 C 4.578125 -3.859375 4.578125 -3.109375 4.578125 -2.671875 C 4.578125 -2.25 4.578125 -1.5 4.265625 -0.9375 C 3.9375 -0.375 3.375 -0.140625 2.921875 -0.140625 Z M 2.921875 -0.140625 "
               style="stroke:none;" />
          </symbol>
          <symbol
             id="lx-text959-0-3-glyph0-3"
             overflow="visible">
            <path
               id="path1144"
               d="M 5.3125 -2.90625 C 5.3125 -4.015625 5.3125 -4.34375 5.046875 -4.734375 C 4.703125 -5.203125 4.140625 -5.265625 3.734375 -5.265625 C 2.703125 -5.265625 2.21875 -4.5 2.0625 -4.125 L 2.046875 -4.125 L 2.046875 -8.296875 L 0.375 -8.15625 L 0.375 -7.8125 C 1.1875 -7.8125 1.296875 -7.734375 1.296875 -7.140625 L 1.296875 -0.890625 C 1.296875 -0.34375 1.15625 -0.34375 0.375 -0.34375 L 0.375 0 C 0.6875 -0.03125 1.34375 -0.03125 1.671875 -0.03125 C 2.015625 -0.03125 2.671875 -0.03125 2.96875 0 L 2.96875 -0.34375 C 2.21875 -0.34375 2.0625 -0.34375 2.0625 -0.890625 L 2.0625 -3.109375 C 2.0625 -4.359375 2.890625 -5.03125 3.640625 -5.03125 C 4.375 -5.03125 4.546875 -4.421875 4.546875 -3.6875 L 4.546875 -0.890625 C 4.546875 -0.34375 4.40625 -0.34375 3.640625 -0.34375 L 3.640625 0 C 3.9375 -0.03125 4.59375 -0.03125 4.921875 -0.03125 C 5.265625 -0.03125 5.921875 -0.03125 6.234375 0 L 6.234375 -0.34375 C 5.625 -0.34375 5.328125 -0.34375 5.3125 -0.703125 Z M 5.3125 -2.90625 "
               style="stroke:none;" />
          </symbol>
        </g>
      </defs>
      <g
         id="lx-text959-0-3-surface1">
        <g
           id="g1155"
           style="fill:rgb(0%,0%,0%);fill-opacity:1;">
          <use
             id="use1151"
             y="0.0"
             x="0.0"
             xlink:href="#lx-text959-0-3-glyph0-1" />
          <use
             id="use1153"
             y="0.0"
             x="4.55254"
             xlink:href="#lx-text959-0-3-glyph0-2" />
        </g>
        <g
           id="g1163"
           style="fill:rgb(0%,0%,0%);fill-opacity:1;">
          <use
             id="use1157"
             y="0.0"
             x="10.728596"
             xlink:href="#lx-text959-0-3-glyph0-2" />
          <use
             id="use1159"
             y="0.0"
             x="16.581862"
             xlink:href="#lx-text959-0-3-glyph0-1" />
          <use
             id="use1161"
             y="0.0"
             x="21.134403"
             xlink:href="#lx-text959-0-3-glyph0-3" />
        </g>
      </g>
    </g>
    <g
       id="lx-text959-08"
       transform="matrix(0.705556,0,0,0.705556,-68.289167,11.466043)">
      <defs
         id="defs1187">
        <g
           id="g1185">
          <symbol
             id="lx-text959-08-glyph0-0"
             overflow="visible">
            <path
               id="path1167"
               d=""
               style="stroke:none;" />
          </symbol>
          <symbol
             id="lx-text959-08-glyph0-1"
             overflow="visible">
            <path
               id="path1170"
               d="M 5.3125 -2.90625 C 5.3125 -4.015625 5.3125 -4.34375 5.046875 -4.734375 C 4.703125 -5.203125 4.140625 -5.265625 3.734375 -5.265625 C 2.703125 -5.265625 2.21875 -4.5 2.0625 -4.125 L 2.046875 -4.125 L 2.046875 -8.296875 L 0.375 -8.15625 L 0.375 -7.8125 C 1.1875 -7.8125 1.296875 -7.734375 1.296875 -7.140625 L 1.296875 -0.890625 C 1.296875 -0.34375 1.15625 -0.34375 0.375 -0.34375 L 0.375 0 C 0.6875 -0.03125 1.34375 -0.03125 1.671875 -0.03125 C 2.015625 -0.03125 2.671875 -0.03125 2.96875 0 L 2.96875 -0.34375 C 2.21875 -0.34375 2.0625 -0.34375 2.0625 -0.890625 L 2.0625 -3.109375 C 2.0625 -4.359375 2.890625 -5.03125 3.640625 -5.03125 C 4.375 -5.03125 4.546875 -4.421875 4.546875 -3.6875 L 4.546875 -0.890625 C 4.546875 -0.34375 4.40625 -0.34375 3.640625 -0.34375 L 3.640625 0 C 3.9375 -0.03125 4.59375 -0.03125 4.921875 -0.03125 C 5.265625 -0.03125 5.921875 -0.03125 6.234375 0 L 6.234375 -0.34375 C 5.625 -0.34375 5.328125 -0.34375 5.3125 -0.703125 Z M 5.3125 -2.90625 "
               style="stroke:none;" />
          </symbol>
          <symbol
             id="lx-text959-08-glyph0-2"
             overflow="visible">
            <path
               id="path1173"
               d="M 4.578125 -2.765625 C 4.84375 -2.765625 4.859375 -2.765625 4.859375 -3 C 4.859375 -4.203125 4.21875 -5.328125 2.765625 -5.328125 C 1.40625 -5.328125 0.359375 -4.09375 0.359375 -2.625 C 0.359375 -1.046875 1.578125 0.125 2.90625 0.125 C 4.328125 0.125 4.859375 -1.171875 4.859375 -1.421875 C 4.859375 -1.5 4.8125 -1.546875 4.734375 -1.546875 C 4.640625 -1.546875 4.609375 -1.484375 4.59375 -1.421875 C 4.28125 -0.421875 3.484375 -0.140625 2.96875 -0.140625 C 2.46875 -0.140625 1.265625 -0.484375 1.265625 -2.546875 L 1.265625 -2.765625 Z M 1.28125 -3 C 1.375 -4.875 2.421875 -5.09375 2.765625 -5.09375 C 4.046875 -5.09375 4.109375 -3.40625 4.125 -3 Z M 1.28125 -3 "
               style="stroke:none;" />
          </symbol>
          <symbol
             id="lx-text959-08-glyph0-3"
             overflow="visible">
            <path
               id="path1176"
               d="M 2.0625 -8.296875 L 0.390625 -8.15625 L 0.390625 -7.8125 C 1.203125 -7.8125 1.296875 -7.734375 1.296875 -7.140625 L 1.296875 -0.890625 C 1.296875 -0.34375 1.171875 -0.34375 0.390625 -0.34375 L 0.390625 0 C 0.734375 -0.03125 1.3125 -0.03125 1.671875 -0.03125 C 2.03125 -0.03125 2.625 -0.03125 2.96875 0 L 2.96875 -0.34375 C 2.203125 -0.34375 2.0625 -0.34375 2.0625 -0.890625 Z M 2.0625 -8.296875 "
               style="stroke:none;" />
          </symbol>
          <symbol
             id="lx-text959-08-glyph0-4"
             overflow="visible">
            <path
               id="path1179"
               d="M 2.078125 -7.359375 C 2.078125 -7.671875 1.828125 -7.953125 1.5 -7.953125 C 1.1875 -7.953125 0.921875 -7.703125 0.921875 -7.375 C 0.921875 -7.015625 1.203125 -6.796875 1.5 -6.796875 C 1.859375 -6.796875 2.078125 -7.09375 2.078125 -7.359375 Z M 0.4375 -5.140625 L 0.4375 -4.796875 C 1.1875 -4.796875 1.296875 -4.71875 1.296875 -4.140625 L 1.296875 -0.890625 C 1.296875 -0.34375 1.171875 -0.34375 0.390625 -0.34375 L 0.390625 0 C 0.734375 -0.03125 1.296875 -0.03125 1.65625 -0.03125 C 1.78125 -0.03125 2.46875 -0.03125 2.875 0 L 2.875 -0.34375 C 2.109375 -0.34375 2.0625 -0.40625 2.0625 -0.875 L 2.0625 -5.265625 Z M 0.4375 -5.140625 "
               style="stroke:none;" />
          </symbol>
          <symbol
             id="lx-text959-08-glyph0-5"
             overflow="visible">
            <path
               id="path1182"
               d="M 3.34375 -2.828125 C 3.6875 -3.28125 4.203125 -3.921875 4.421875 -4.171875 C 4.90625 -4.71875 5.46875 -4.8125 5.859375 -4.8125 L 5.859375 -5.15625 C 5.34375 -5.125 5.3125 -5.125 4.859375 -5.125 C 4.40625 -5.125 4.375 -5.125 3.78125 -5.15625 L 3.78125 -4.8125 C 3.9375 -4.78125 4.125 -4.703125 4.125 -4.4375 C 4.125 -4.234375 4.015625 -4.09375 3.9375 -4 L 3.171875 -3.03125 L 2.25 -4.265625 C 2.21875 -4.3125 2.140625 -4.421875 2.140625 -4.5 C 2.140625 -4.578125 2.203125 -4.796875 2.5625 -4.8125 L 2.5625 -5.15625 C 2.265625 -5.125 1.65625 -5.125 1.328125 -5.125 C 0.9375 -5.125 0.90625 -5.125 0.171875 -5.15625 L 0.171875 -4.8125 C 0.78125 -4.8125 1.015625 -4.78125 1.265625 -4.453125 L 2.671875 -2.625 C 2.6875 -2.609375 2.734375 -2.53125 2.734375 -2.5 C 2.734375 -2.46875 1.8125 -1.296875 1.6875 -1.140625 C 1.15625 -0.484375 0.640625 -0.359375 0.125 -0.34375 L 0.125 0 C 0.578125 -0.03125 0.59375 -0.03125 1.109375 -0.03125 C 1.5625 -0.03125 1.59375 -0.03125 2.1875 0 L 2.1875 -0.34375 C 1.90625 -0.375 1.859375 -0.5625 1.859375 -0.734375 C 1.859375 -0.921875 1.9375 -1.015625 2.0625 -1.171875 C 2.234375 -1.421875 2.625 -1.90625 2.921875 -2.28125 L 3.890625 -1 C 4.09375 -0.734375 4.09375 -0.71875 4.09375 -0.640625 C 4.09375 -0.546875 4 -0.359375 3.6875 -0.34375 L 3.6875 0 C 4 -0.03125 4.578125 -0.03125 4.90625 -0.03125 C 5.3125 -0.03125 5.328125 -0.03125 6.046875 0 L 6.046875 -0.34375 C 5.421875 -0.34375 5.203125 -0.375 4.90625 -0.75 Z M 3.34375 -2.828125 "
               style="stroke:none;" />
          </symbol>
        </g>
      </defs>
      <g
         id="lx-text959-08-surface1">
        <g
           id="g1199"
           style="fill:rgb(0%,0%,0%);fill-opacity:1;">
          <use
             id="use1189"
             y="0.0"
             x="0.0"
             xlink:href="#lx-text959-08-glyph0-1" />
          <use
             id="use1191"
             y="0.0"
             x="6.503629"
             xlink:href="#lx-text959-08-glyph0-2" />
          <use
             id="use1193"
             y="0.0"
             x="11.706532"
             xlink:href="#lx-text959-08-glyph0-3" />
          <use
             id="use1195"
             y="0.0"
             x="14.958346"
             xlink:href="#lx-text959-08-glyph0-4" />
          <use
             id="use1197"
             y="0.0"
             x="18.210161"
             xlink:href="#lx-text959-08-glyph0-5" />
        </g>
      </g>
    </g>
    <g
       id="lx-text959-3"
       transform="matrix(0.705556,0,0,0.705556,28.388648,52.487114)">
      <defs
         id="defs1211">
        <g
           id="g1209">
          <symbol
             id="lx-text959-3-glyph0-0"
             overflow="visible">
            <path
               id="path1203"
               d=""
               style="stroke:none;" />
          </symbol>
          <symbol
             id="lx-text959-3-glyph0-1"
             overflow="visible">
            <path
               id="path1206"
               d="M 6.015625 -8 C 6.03125 -8.046875 6.046875 -8.109375 6.046875 -8.171875 C 6.046875 -8.296875 5.921875 -8.296875 5.90625 -8.296875 C 5.890625 -8.296875 5.3125 -8.25 5.25 -8.234375 C 5.046875 -8.21875 4.859375 -8.203125 4.65625 -8.1875 C 4.34375 -8.15625 4.265625 -8.15625 4.265625 -7.9375 C 4.265625 -7.8125 4.359375 -7.8125 4.53125 -7.8125 C 5.109375 -7.8125 5.125 -7.703125 5.125 -7.59375 C 5.125 -7.515625 5.109375 -7.421875 5.09375 -7.390625 L 4.359375 -4.484375 C 4.234375 -4.796875 3.90625 -5.265625 3.28125 -5.265625 C 1.9375 -5.265625 0.484375 -3.53125 0.484375 -1.75 C 0.484375 -0.578125 1.171875 0.125 1.984375 0.125 C 2.640625 0.125 3.203125 -0.390625 3.53125 -0.78125 C 3.65625 -0.078125 4.21875 0.125 4.578125 0.125 C 4.9375 0.125 5.21875 -0.09375 5.4375 -0.53125 C 5.625 -0.9375 5.796875 -1.65625 5.796875 -1.703125 C 5.796875 -1.765625 5.75 -1.8125 5.671875 -1.8125 C 5.5625 -1.8125 5.5625 -1.75 5.515625 -1.578125 C 5.328125 -0.875 5.109375 -0.125 4.609375 -0.125 C 4.265625 -0.125 4.25 -0.4375 4.25 -0.671875 C 4.25 -0.71875 4.25 -0.96875 4.328125 -1.296875 Z M 3.59375 -1.421875 C 3.53125 -1.21875 3.53125 -1.1875 3.375 -0.96875 C 3.109375 -0.640625 2.578125 -0.125 2.015625 -0.125 C 1.53125 -0.125 1.25 -0.5625 1.25 -1.265625 C 1.25 -1.921875 1.625 -3.265625 1.859375 -3.765625 C 2.265625 -4.609375 2.828125 -5.03125 3.28125 -5.03125 C 4.078125 -5.03125 4.234375 -4.046875 4.234375 -3.953125 C 4.234375 -3.9375 4.203125 -3.796875 4.1875 -3.765625 Z M 3.59375 -1.421875 "
               style="stroke:none;" />
          </symbol>
        </g>
      </defs>
      <g
         id="lx-text959-3-surface1">
        <g
           id="g1215"
           style="fill:rgb(0%,0%,0%);fill-opacity:1;">
          <use
             id="use1213"
             y="0.0"
             x="0.0"
             xlink:href="#lx-text959-3-glyph0-1" />
        </g>
      </g>
    </g>
    <g
       id="lx-text959-3-8"
       transform="matrix(0.705556,0,0,0.705556,67.696292,149.69363)">
      <defs
         id="defs1233">
        <g
           id="g1231">
          <symbol
             id="lx-text959-3-8-glyph0-0"
             overflow="visible">
            <path
               id="path1219"
               d=""
               style="stroke:none;" />
          </symbol>
          <symbol
             id="lx-text959-3-8-glyph0-1"
             overflow="visible">
            <path
               id="path1222"
               d="M 0.515625 1.515625 C 0.4375 1.875 0.375 1.96875 -0.109375 1.96875 C -0.25 1.96875 -0.375 1.96875 -0.375 2.203125 C -0.375 2.21875 -0.359375 2.3125 -0.234375 2.3125 C -0.078125 2.3125 0.09375 2.296875 0.25 2.296875 L 0.765625 2.296875 C 1.015625 2.296875 1.625 2.3125 1.875 2.3125 C 1.953125 2.3125 2.09375 2.3125 2.09375 2.109375 C 2.09375 1.96875 2.015625 1.96875 1.8125 1.96875 C 1.25 1.96875 1.21875 1.890625 1.21875 1.796875 C 1.21875 1.65625 1.75 -0.40625 1.828125 -0.6875 C 1.953125 -0.34375 2.28125 0.125 2.90625 0.125 C 4.25 0.125 5.71875 -1.640625 5.71875 -3.390625 C 5.71875 -4.5 5.09375 -5.265625 4.203125 -5.265625 C 3.4375 -5.265625 2.78125 -4.53125 2.65625 -4.359375 C 2.5625 -4.953125 2.09375 -5.265625 1.609375 -5.265625 C 1.265625 -5.265625 0.984375 -5.109375 0.765625 -4.65625 C 0.546875 -4.21875 0.375 -3.484375 0.375 -3.4375 C 0.375 -3.390625 0.4375 -3.328125 0.515625 -3.328125 C 0.609375 -3.328125 0.625 -3.34375 0.6875 -3.625 C 0.875 -4.328125 1.09375 -5.03125 1.578125 -5.03125 C 1.859375 -5.03125 1.953125 -4.84375 1.953125 -4.484375 C 1.953125 -4.203125 1.90625 -4.078125 1.859375 -3.859375 Z M 2.578125 -3.734375 C 2.671875 -4.0625 3 -4.40625 3.1875 -4.578125 C 3.328125 -4.703125 3.71875 -5.03125 4.171875 -5.03125 C 4.703125 -5.03125 4.9375 -4.5 4.9375 -3.890625 C 4.9375 -3.3125 4.609375 -1.953125 4.296875 -1.34375 C 4 -0.6875 3.453125 -0.125 2.90625 -0.125 C 2.09375 -0.125 1.953125 -1.140625 1.953125 -1.1875 C 1.953125 -1.234375 1.984375 -1.328125 2 -1.390625 Z M 2.578125 -3.734375 "
               style="stroke:none;" />
          </symbol>
          <symbol
             id="lx-text959-3-8-glyph1-0"
             overflow="visible">
            <path
               id="path1225"
               d=""
               style="stroke:none;" />
          </symbol>
          <symbol
             id="lx-text959-3-8-glyph1-1"
             overflow="visible">
            <path
               id="path1228"
               d="M 4.78125 -4.53125 C 4.78125 -5.265625 4.1875 -5.625 3.53125 -5.625 C 2.5 -5.625 1.734375 -4.453125 1.515625 -3.578125 L 0.25 1.453125 C 0.234375 1.5 0.296875 1.546875 0.34375 1.546875 C 0.421875 1.546875 0.484375 1.546875 0.5 1.484375 L 1.03125 -0.640625 C 1.21875 -0.21875 1.59375 0.078125 2.171875 0.078125 C 3.265625 0.078125 4.46875 -0.703125 4.46875 -1.96875 C 4.46875 -2.5 4.265625 -2.859375 3.875 -3.171875 C 3.921875 -3.1875 4.0625 -3.296875 4.109375 -3.328125 C 4.5 -3.59375 4.78125 -4.046875 4.78125 -4.53125 Z M 3.21875 -3.171875 C 3.0625 -3.15625 2.921875 -3.140625 2.765625 -3.140625 C 2.6875 -3.140625 2.59375 -3.140625 2.515625 -3.171875 C 2.65625 -3.21875 2.828125 -3.21875 2.96875 -3.21875 C 3.046875 -3.21875 3.125 -3.203125 3.21875 -3.171875 Z M 4.28125 -4.6875 C 4.28125 -4.28125 4.109375 -3.8125 3.828125 -3.53125 C 3.78125 -3.5 3.625 -3.34375 3.5625 -3.34375 C 3.34375 -3.375 3.171875 -3.4375 2.9375 -3.4375 C 2.734375 -3.4375 2.234375 -3.453125 2.234375 -3.140625 C 2.234375 -2.90625 2.6875 -2.921875 2.84375 -2.921875 C 3.09375 -2.921875 3.328125 -2.9375 3.546875 -3.03125 C 3.796875 -2.84375 3.90625 -2.578125 3.90625 -2.1875 C 3.90625 -1.71875 3.75 -1.1875 3.515625 -0.875 C 3.234375 -0.453125 2.734375 -0.15625 2.140625 -0.15625 C 1.609375 -0.15625 1.1875 -0.5625 1.1875 -1.109375 C 1.1875 -1.21875 1.203125 -1.328125 1.234375 -1.40625 L 1.75 -3.515625 C 1.921875 -4.21875 2.609375 -5.390625 3.5 -5.390625 C 3.90625 -5.390625 4.28125 -5.203125 4.28125 -4.6875 Z M 4.28125 -4.6875 "
               style="stroke:none;" />
          </symbol>
        </g>
      </defs>
      <g
         id="lx-text959-3-8-surface1">
        <g
           id="g1237"
           style="fill:rgb(0%,0%,0%);fill-opacity:1;">
          <use
             id="use1235"
             y="0.0"
             x="0.0"
             xlink:href="#lx-text959-3-8-glyph0-1" />
        </g>
        <g
           id="g1241"
           style="fill:rgb(0%,0%,0%);fill-opacity:1;">
          <use
             id="use1239"
             y="1.793"
             x="5.875"
             xlink:href="#lx-text959-3-8-glyph1-1" />
        </g>
      </g>
    </g>
  </g>
</svg>
