<?xml version="1.0" encoding="UTF-8" standalone="no"?>
<!-- Created with Inkscape (http://www.inkscape.org/) -->

<svg
   xmlns:rendltx="http://NOTSET"
   xmlns:dc="http://purl.org/dc/elements/1.1/"
   xmlns:cc="http://creativecommons.org/ns#"
   xmlns:rdf="http://www.w3.org/1999/02/22-rdf-syntax-ns#"
   xmlns:svg="http://www.w3.org/2000/svg"
   xmlns="http://www.w3.org/2000/svg"
   xmlns:xlink="http://www.w3.org/1999/xlink"
   xmlns:sodipodi="http://sodipodi.sourceforge.net/DTD/sodipodi-0.dtd"
   xmlns:inkscape="http://www.inkscape.org/namespaces/inkscape"
   width="47.356323mm"
   height="35.636574mm"
   viewBox="0 0 47.356323 35.636574"
   version="1.1"
   id="svg8"
   inkscape:version="0.92.4 (5da689c313, 2019-01-14)"
   sodipodi:docname="drivetrainhub_root_fillet_undercut.svg">
  <defs
     id="defs2">
    <marker
       inkscape:stockid="Arrow2Mend"
       orient="auto"
       refY="0"
       refX="0"
       id="Arrow2Mend"
       style="overflow:visible"
       inkscape:isstock="true">
      <path
         id="path6446"
         style="fill:#000000;fill-opacity:1;fill-rule:evenodd;stroke:#000000;stroke-width:0.625;stroke-linejoin:round;stroke-opacity:1"
         d="M 8.7185878,4.0337352 -2.2072895,0.01601326 8.7185884,-4.0017078 c -1.7454984,2.3720609 -1.7354408,5.6174519 -6e-7,8.035443 z"
         transform="scale(-0.6)"
         inkscape:connector-curvature="0" />
    </marker>
    <marker
       inkscape:stockid="Arrow2Lend"
       orient="auto"
       refY="0"
       refX="0"
       id="Arrow2Lend"
       style="overflow:visible"
       inkscape:isstock="true">
      <path
         id="path6440"
         style="fill:#000000;fill-opacity:1;fill-rule:evenodd;stroke:#000000;stroke-width:0.625;stroke-linejoin:round;stroke-opacity:1"
         d="M 8.7185878,4.0337352 -2.2072895,0.01601326 8.7185884,-4.0017078 c -1.7454984,2.3720609 -1.7354408,5.6174519 -6e-7,8.035443 z"
         transform="matrix(-1.1,0,0,-1.1,-1.1,0)"
         inkscape:connector-curvature="0" />
    </marker>
    <marker
       inkscape:stockid="DotL"
       orient="auto"
       refY="0"
       refX="0"
       id="DotL"
       style="overflow:visible"
       inkscape:isstock="true">
      <path
         id="path1138"
         d="m -2.5,-1 c 0,2.76 -2.24,5 -5,5 -2.76,0 -5,-2.24 -5,-5 0,-2.76 2.24,-5 5,-5 2.76,0 5,2.24 5,5 z"
         style="fill:#000000;fill-opacity:1;fill-rule:evenodd;stroke:#000000;stroke-width:1.00000003pt;stroke-opacity:1"
         transform="matrix(0.8,0,0,0.8,5.92,0.8)"
         inkscape:connector-curvature="0" />
    </marker>
    <marker
       inkscape:isstock="true"
       style="overflow:visible"
       id="marker1467"
       refX="0"
       refY="0"
       orient="auto"
       inkscape:stockid="Arrow2Lstart">
      <path
         transform="matrix(1.1,0,0,1.1,1.1,0)"
         d="M 8.7185878,4.0337352 -2.2072895,0.01601326 8.7185884,-4.0017078 c -1.7454984,2.3720609 -1.7354408,5.6174519 -6e-7,8.035443 z"
         style="fill:#000000;fill-opacity:1;fill-rule:evenodd;stroke:#000000;stroke-width:0.625;stroke-linejoin:round;stroke-opacity:1"
         id="path1465"
         inkscape:connector-curvature="0" />
    </marker>
    <marker
       inkscape:isstock="true"
       style="overflow:visible"
       id="marker1421"
       refX="0"
       refY="0"
       orient="auto"
       inkscape:stockid="Arrow2Lend">
      <path
         transform="matrix(-1.1,0,0,-1.1,-1.1,0)"
         d="M 8.7185878,4.0337352 -2.2072895,0.01601326 8.7185884,-4.0017078 c -1.7454984,2.3720609 -1.7354408,5.6174519 -6e-7,8.035443 z"
         style="fill:#000000;fill-opacity:1;fill-rule:evenodd;stroke:#000000;stroke-width:0.625;stroke-linejoin:round;stroke-opacity:1"
         id="path1419"
         inkscape:connector-curvature="0" />
    </marker>
    <marker
       style="overflow:visible"
       refY="0"
       refX="0"
       orient="auto"
       id="DistanceX">
      <path
         id="path817"
         style="stroke:#000000;stroke-width:0.5"
         d="M 3,-3 -3,3 M 0,-5 V 5"
         inkscape:connector-curvature="0" />
    </marker>
    <pattern
       y="0"
       x="0"
       width="8"
       patternUnits="userSpaceOnUse"
       id="Hatch"
       height="8">
      <path
         id="path820"
         stroke-width="0.25"
         stroke="#000000"
         linecap="square"
         d="M8 4 l-4,4" />
      <path
         id="path822"
         stroke-width="0.25"
         stroke="#000000"
         linecap="square"
         d="M6 2 l-4,4" />
      <path
         id="path824"
         stroke-width="0.25"
         stroke="#000000"
         linecap="square"
         d="M4 0 l-4,4" />
    </pattern>
    <symbol
       id="*MODEL_SPACE" />
    <symbol
       id="*PAPER_SPACE" />
    <marker
       style="overflow:visible"
       refY="0"
       refX="0"
       orient="auto"
       id="DistanceX-6">
      <path
         id="path5945"
         style="stroke:#000000;stroke-width:0.5"
         d="M 3,-3 -3,3 M 0,-5 V 5"
         inkscape:connector-curvature="0" />
    </marker>
    <pattern
       y="0"
       x="0"
       width="8"
       patternUnits="userSpaceOnUse"
       id="Hatch-4"
       height="8">
      <path
         id="path5948"
         stroke-width="0.25"
         stroke="#000000"
         linecap="square"
         d="M8 4 l-4,4" />
      <path
         id="path5950"
         stroke-width="0.25"
         stroke="#000000"
         linecap="square"
         d="M6 2 l-4,4" />
      <path
         id="path5952"
         stroke-width="0.25"
         stroke="#000000"
         linecap="square"
         d="M4 0 l-4,4" />
    </pattern>
    <symbol
       id="*MODEL_SPACE-3" />
    <symbol
       id="*PAPER_SPACE-6" />
  </defs>
  <sodipodi:namedview
     id="base"
     pagecolor="#ffffff"
     bordercolor="#666666"
     borderopacity="1.0"
     inkscape:pageopacity="0.0"
     inkscape:pageshadow="2"
     inkscape:zoom="6.1103542"
     inkscape:cx="89.492263"
     inkscape:cy="67.344705"
     inkscape:document-units="mm"
     inkscape:current-layer="ltx-render-layer"
     showgrid="false"
     inkscape:window-width="1920"
     inkscape:window-height="1046"
     inkscape:window-x="-11"
     inkscape:window-y="-11"
     inkscape:window-maximized="1"
     showguides="true"
     inkscape:guide-bbox="true"
     inkscape:snap-midpoints="true"
     inkscape:object-paths="true"
     inkscape:snap-smooth-nodes="true"
     inkscape:snap-perpendicular="true"
     inkscape:snap-tangential="true"
     inkscape:snap-nodes="false">
    <sodipodi:guide
       position="87.666424,-16.199511"
       orientation="0,1"
       id="guide1069"
       inkscape:locked="false" />
    <sodipodi:guide
       position="24.029135,46.509552"
       orientation="1,0"
       id="guide1071"
       inkscape:locked="false" />
    <sodipodi:guide
       inkscape:locked="false"
       id="guide6415"
       orientation="0,1"
       position="43.815611,-2.2737438" />
  </sodipodi:namedview>
  <metadata
     id="metadata5">
    <rdf:RDF>
      <cc:Work
         rdf:about="">
        <dc:format>image/svg+xml</dc:format>
        <dc:type
           rdf:resource="http://purl.org/dc/dcmitype/StillImage" />
        <dc:title />
      </cc:Work>
    </rdf:RDF>
  </metadata>
  <g
     inkscape:label="Drawing"
     inkscape:groupmode="layer"
     id="layer1"
     transform="translate(-119.85339,-31.947553)">
    <path
       style="fill:none;fill-opacity:1;stroke:#000408;stroke-width:0.26499999;stroke-linecap:round;stroke-linejoin:round;stroke-miterlimit:4;stroke-dasharray:1.06, 0.53;stroke-dashoffset:0;stroke-opacity:1;paint-order:normal"
       id="path6413"
       sodipodi:type="arc"
       sodipodi:cx="143.96837"
       sodipodi:cy="108.82237"
       sodipodi:rx="58.26046"
       sodipodi:ry="58.26046"
       sodipodi:start="4.2881658"
       sodipodi:end="5.120218"
       d="M 119.98761,55.726192 A 58.26046,58.26046 0 0 1 167.07548,55.3402"
       sodipodi:open="true" />
    <g
       id="g1055"
       transform="matrix(18.772612,1.8195461,-1.8195461,18.772612,1538.6808,-20664.027)"
       style="stroke:#000000;stroke-width:0.02651031;stroke-linecap:round;stroke-miterlimit:4;stroke-dasharray:none;stroke-opacity:1">
      <g
         id="g831"
         inkscape:label="0"
         style="stroke:#000000;stroke-width:0.02651031;stroke-linecap:round;stroke-miterlimit:4;stroke-dasharray:none;stroke-opacity:1" />
      <g
         id="g969"
         inkscape:label="VISIBLE"
         style="stroke:#000000;stroke-width:0.02651031;stroke-linecap:round;stroke-miterlimit:4;stroke-dasharray:none;stroke-opacity:1">
        <path
           id="path889"
           style="fill:none;stroke:#000000;stroke-width:0.02651031;stroke-linecap:round;stroke-miterlimit:4;stroke-dasharray:none;stroke-opacity:1"
           d="m 31.726139,1100.4374 c 4.8e-5,-0.021 5.84e-4,-0.043 0.0018,-0.067 0.0013,-0.026 0.0034,-0.053 0.0062,-0.082 0.0031,-0.031 0.0071,-0.063 0.01213,-0.096 0.0054,-0.035 0.01186,-0.072 0.01949,-0.1097 0.0081,-0.04 0.01754,-0.081 0.02827,-0.1231 0.01134,-0.044 0.02413,-0.09 0.03842,-0.1358 0.01503,-0.048 0.03171,-0.098 0.04991,-0.1478 0.01904,-0.052 0.03973,-0.1053 0.06268,-0.1589 0.02095,-0.049 0.04378,-0.099 0.06685,-0.148"
           inkscape:connector-curvature="0"
           sodipodi:nodetypes="cccccccccc" />
        <path
           id="path891"
           style="fill:none;stroke:#000000;stroke-width:0.02651031;stroke-linecap:round;stroke-miterlimit:4;stroke-dasharray:none;stroke-opacity:1"
           d="m 32.510444,1099.3237 a 7.068014,7.068014 0 0 0 -0.498643,0.046"
           inkscape:connector-curvature="0" />
        <path
           id="path957"
           style="fill:none;stroke:#000000;stroke-width:0.02651031;stroke-linecap:round;stroke-miterlimit:4;stroke-dasharray:none;stroke-opacity:1"
           d="m 32.987688,1100.3208 c -0.0039,-0.02 -0.0087,-0.043 -0.01419,-0.065 -0.006,-0.025 -0.01307,-0.052 -0.02107,-0.079 -0.0087,-0.03 -0.01854,-0.06 -0.02952,-0.092 -0.0118,-0.034 -0.02491,-0.069 -0.03932,-0.1042 -0.01534,-0.038 -0.03215,-0.077 -0.0504,-0.1158 -0.01929,-0.042 -0.0402,-0.084 -0.06272,-0.1264 -0.02368,-0.045 -0.04915,-0.09 -0.07621,-0.1361 -0.02833,-0.048 -0.0584,-0.096 -0.09081,-0.1447 -0.02959,-0.044 -0.06113,-0.089 -0.09291,-0.1332"
           inkscape:connector-curvature="0"
           sodipodi:nodetypes="cccccccccc" />
      </g>
    </g>
    <path
       style="fill:none;stroke:#156bba;stroke-width:0.5;stroke-linecap:butt;stroke-linejoin:miter;stroke-miterlimit:4;stroke-dasharray:none;stroke-opacity:1"
       d="m 155.84755,51.784368 c -4.63522,9.119137 3.59814,10.912602 3.95613,11.002433"
       id="path6392-7"
       inkscape:connector-curvature="0"
       sodipodi:nodetypes="cc" />
    <circle
       id="path6409"
       style="fill:#000000;stroke:none;stroke-width:1.5625;stroke-miterlimit:4;stroke-dasharray:none"
       cx="155.84755"
       cy="51.784367"
       r="0.87890625" />
    <path
       style="fill:none;stroke:#156bba;stroke-width:0.5;stroke-linecap:butt;stroke-linejoin:miter;stroke-miterlimit:4;stroke-dasharray:none;stroke-opacity:1"
       d="m 131.96672,51.784513 c 4.63522,9.119137 -3.59814,10.912602 -3.95613,11.002433"
       id="path6392-7-0"
       inkscape:connector-curvature="0"
       sodipodi:nodetypes="cc" />
    <circle
       id="path6411"
       style="fill:#000000;stroke:none;stroke-width:1.5625;stroke-miterlimit:4;stroke-dasharray:none"
       cx="131.96666"
       cy="51.784367"
       r="0.87890625" />
    <path
       style="display:inline;fill:none;stroke:#000000;stroke-width:0.26499999;stroke-linecap:butt;stroke-linejoin:miter;stroke-miterlimit:4;stroke-dasharray:none;stroke-opacity:1"
       d="m 152.17199,65.706662 4.23699,-3.560721"
       id="path6933"
       inkscape:connector-curvature="0"
       sodipodi:nodetypes="cc" />
  </g>
  <g
     inkscape:groupmode="layer"
     id="layer2"
     inkscape:label="Text"
     style="display:none"
     transform="translate(-39.466352,-14.894965)">
    <text
       xml:space="preserve"
       style="font-style:normal;font-weight:normal;font-size:10.58333302px;line-height:1.25;font-family:sans-serif;letter-spacing:0px;word-spacing:0px;fill:#000000;fill-opacity:1;stroke:none;stroke-width:0.26458332"
       x="79.41864"
       y="33.761787"
       id="text1065"><tspan
         sodipodi:role="line"
         x="79.41864"
         y="33.761787"
         style="font-size:3.52777767px;stroke-width:0.26458332"
         id="tspan1403">F</tspan></text>
    <text
       xml:space="preserve"
       style="font-style:normal;font-weight:normal;font-size:10.58333302px;line-height:1.25;font-family:sans-serif;letter-spacing:0px;word-spacing:0px;display:inline;fill:#000000;fill-opacity:1;stroke:none;stroke-width:0.26458332"
       x="38.050083"
       y="47.601341"
       id="text1065-7-6"><tspan
         sodipodi:role="line"
         x="38.050083"
         y="47.601341"
         style="font-size:3.52777767px;stroke-width:0.26458332"
         id="tspan1403-5-8">undercut root fillet</tspan></text>
  </g>
  <g
     transform="translate(-39.466352,-14.894965)"
     inkscape:label="Rendered Latex"
     inkscape:groupmode="layer"
     id="ltx-render-layer"
     rendltx:preamble=""
     rendltx:packages="amsmath,amssymb"
     rendltx:scale="1.0"
     rendltx:depth="0.0"
     rendltx:fontsize="10.0"
     rendltx:newline="False"
     rendltx:math="False"
     style="display:inline">
    <g
       id="lx-text1065"
       transform="matrix(0.352778,0,0,0.352778,76.698973,33.561581)">
      <defs
         id="defs1035">
        <g
           id="g1033">
          <symbol
             id="lx-text1065-glyph0-0"
             overflow="visible"
             style="overflow:visible">
            <path
               id="path1027"
               d=""
               style="stroke:none"
               inkscape:connector-curvature="0" />
          </symbol>
          <symbol
             id="lx-text1065-glyph0-1"
             overflow="visible"
             style="overflow:visible">
            <path
               id="path1030"
               d="m 5.796875,-6.78125 h -5.46875 v 0.3125 H 0.5625 c 0.765625,0 0.796875,0.109375 0.796875,0.46875 v 5.21875 c 0,0.359375 -0.03125,0.46875 -0.796875,0.46875 H 0.328125 V 0 c 0.34375,-0.03125 1.125,-0.03125 1.515625,-0.03125 0.40625,0 1.3125,0 1.671875,0.03125 V -0.3125 H 3.1875 C 2.25,-0.3125 2.25,-0.4375 2.25,-0.78125 v -2.453125 h 0.84375 c 0.96875,0 1.0625,0.3125 1.0625,1.15625 h 0.25 V -4.71875 h -0.25 c 0,0.84375 -0.09375,1.171875 -1.0625,1.171875 H 2.25 v -2.53125 c 0,-0.328125 0.015625,-0.390625 0.484375,-0.390625 h 1.1875 c 1.5,0 1.75,0.5625 1.90625,1.9375 h 0.25 z m 0,0"
               style="stroke:none"
               inkscape:connector-curvature="0" />
          </symbol>
        </g>
      </defs>
      <g
         id="lx-text1065-surface1">
        <g
           id="g1039"
           style="fill:#000000;fill-opacity:1">
          <use
             id="use1037"
             y="0"
             x="0"
             xlink:href="#lx-text1065-glyph0-1"
             width="100%"
             height="100%" />
        </g>
      </g>
    </g>
    <g
       id="lx-text1065-7-6"
       transform="matrix(0.352778,0,0,0.352778,41.749063,50.492953)">
      <defs
         id="defs1110">
        <g
           id="g1108">
          <symbol
             id="lx-text1065-7-6-glyph0-0"
             overflow="visible"
             style="overflow:visible">
            <path
               id="path1075"
               d=""
               style="stroke:none"
               inkscape:connector-curvature="0" />
          </symbol>
          <symbol
             id="lx-text1065-7-6-glyph0-1"
             overflow="visible"
             style="overflow:visible">
            <path
               id="path1078"
               d="M 3.890625,-0.78125 V 0.109375 L 5.328125,0 V -0.3125 C 4.640625,-0.3125 4.5625,-0.375 4.5625,-0.875 v -3.53125 l -1.46875,0.109375 v 0.3125 c 0.6875,0 0.78125,0.0625 0.78125,0.5625 v 1.765625 c 0,0.875 -0.484375,1.546875 -1.21875,1.546875 -0.828125,0 -0.875,-0.46875 -0.875,-0.984375 v -3.3125 L 0.3125,-4.296875 v 0.3125 c 0.78125,0 0.78125,0.03125 0.78125,0.90625 v 1.5 c 0,0.78125 0,1.6875 1.515625,1.6875 0.5625,0 1,-0.28125 1.28125,-0.890625 z m 0,0"
               style="stroke:none"
               inkscape:connector-curvature="0" />
          </symbol>
          <symbol
             id="lx-text1065-7-6-glyph0-2"
             overflow="visible"
             style="overflow:visible">
            <path
               id="path1081"
               d="M 1.09375,-3.421875 V -0.75 c 0,0.4375 -0.109375,0.4375 -0.78125,0.4375 V 0 c 0.359375,-0.015625 0.859375,-0.03125 1.140625,-0.03125 0.25,0 0.765625,0.015625 1.109375,0.03125 v -0.3125 c -0.671875,0 -0.78125,0 -0.78125,-0.4375 V -2.59375 C 1.78125,-3.625 2.5,-4.1875 3.125,-4.1875 c 0.640625,0 0.75,0.53125 0.75,1.109375 V -0.75 c 0,0.4375 -0.109375,0.4375 -0.78125,0.4375 V 0 c 0.34375,-0.015625 0.859375,-0.03125 1.125,-0.03125 0.25,0 0.78125,0.015625 1.109375,0.03125 v -0.3125 c -0.515625,0 -0.765625,0 -0.765625,-0.296875 v -1.90625 c 0,-0.859375 0,-1.15625 -0.3125,-1.515625 -0.140625,-0.171875 -0.46875,-0.375 -1.046875,-0.375 C 2.46875,-4.40625 2,-3.984375 1.71875,-3.359375 V -4.40625 L 0.3125,-4.296875 v 0.3125 c 0.703125,0 0.78125,0.0625 0.78125,0.5625 z m 0,0"
               style="stroke:none"
               inkscape:connector-curvature="0" />
          </symbol>
          <symbol
             id="lx-text1065-7-6-glyph0-3"
             overflow="visible"
             style="overflow:visible">
            <path
               id="path1084"
               d="m 3.78125,-0.546875 v 0.65625 L 5.25,0 v -0.3125 c -0.6875,0 -0.78125,-0.0625 -0.78125,-0.5625 V -6.921875 L 3.046875,-6.8125 V -6.5 c 0.6875,0 0.765625,0.0625 0.765625,0.5625 v 2.15625 c -0.28125,-0.359375 -0.71875,-0.625 -1.25,-0.625 -1.171875,0 -2.21875,0.984375 -2.21875,2.265625 0,1.265625 0.96875,2.25 2.109375,2.25 0.640625,0 1.078125,-0.34375 1.328125,-0.65625 z m 0,-2.671875 v 2.046875 c 0,0.171875 0,0.1875 -0.109375,0.359375 C 3.375,-0.328125 2.9375,-0.109375 2.5,-0.109375 2.046875,-0.109375 1.6875,-0.375 1.453125,-0.75 1.203125,-1.15625 1.171875,-1.71875 1.171875,-2.140625 1.171875,-2.5 1.1875,-3.09375 1.46875,-3.546875 1.6875,-3.859375 2.0625,-4.1875 2.609375,-4.1875 c 0.34375,0 0.765625,0.15625 1.0625,0.59375 0.109375,0.171875 0.109375,0.1875 0.109375,0.375 z m 0,0"
               style="stroke:none"
               inkscape:connector-curvature="0" />
          </symbol>
          <symbol
             id="lx-text1065-7-6-glyph0-4"
             overflow="visible"
             style="overflow:visible">
            <path
               id="path1087"
               d="M 1.109375,-2.515625 C 1.171875,-4 2.015625,-4.25 2.359375,-4.25 c 1.015625,0 1.125,1.34375 1.125,1.734375 z m 0,0.21875 h 2.78125 c 0.21875,0 0.25,0 0.25,-0.21875 0,-0.984375 -0.546875,-1.953125 -1.78125,-1.953125 -1.15625,0 -2.078125,1.03125 -2.078125,2.28125 0,1.328125 1.046875,2.296875 2.1875,2.296875 C 3.6875,0.109375 4.140625,-1 4.140625,-1.1875 4.140625,-1.28125 4.0625,-1.3125 4,-1.3125 c -0.078125,0 -0.109375,0.0625 -0.125,0.140625 -0.34375,1.03125 -1.25,1.03125 -1.34375,1.03125 -0.5,0 -0.890625,-0.296875 -1.125,-0.671875 -0.296875,-0.46875 -0.296875,-1.125 -0.296875,-1.484375 z m 0,0"
               style="stroke:none"
               inkscape:connector-curvature="0" />
          </symbol>
          <symbol
             id="lx-text1065-7-6-glyph0-5"
             overflow="visible"
             style="overflow:visible">
            <path
               id="path1090"
               d="M 1.671875,-3.3125 V -4.40625 L 0.28125,-4.296875 v 0.3125 c 0.703125,0 0.78125,0.0625 0.78125,0.5625 V -0.75 c 0,0.4375 -0.109375,0.4375 -0.78125,0.4375 V 0 c 0.390625,-0.015625 0.859375,-0.03125 1.140625,-0.03125 0.390625,0 0.859375,0 1.265625,0.03125 V -0.3125 H 2.46875 c -0.734375,0 -0.75,-0.109375 -0.75,-0.46875 V -2.3125 c 0,-0.984375 0.421875,-1.875 1.171875,-1.875 0.0625,0 0.09375,0 0.109375,0.015625 -0.03125,0 -0.234375,0.125 -0.234375,0.390625 0,0.265625 0.21875,0.421875 0.4375,0.421875 0.171875,0 0.421875,-0.125 0.421875,-0.4375 0,-0.3125 -0.3125,-0.609375 -0.734375,-0.609375 -0.734375,0 -1.09375,0.671875 -1.21875,1.09375 z m 0,0"
               style="stroke:none"
               inkscape:connector-curvature="0" />
          </symbol>
          <symbol
             id="lx-text1065-7-6-glyph0-6"
             overflow="visible"
             style="overflow:visible">
            <path
               id="path1093"
               d="m 1.171875,-2.171875 c 0,-1.625 0.8125,-2.046875 1.34375,-2.046875 0.09375,0 0.71875,0.015625 1.0625,0.375 -0.40625,0.03125 -0.46875,0.328125 -0.46875,0.453125 0,0.265625 0.1875,0.453125 0.453125,0.453125 0.265625,0 0.46875,-0.15625 0.46875,-0.46875 0,-0.671875 -0.765625,-1.0625 -1.53125,-1.0625 -1.25,0 -2.15625,1.078125 -2.15625,2.3125 0,1.28125 0.984375,2.265625 2.140625,2.265625 1.328125,0 1.65625,-1.203125 1.65625,-1.296875 0,-0.09375 -0.109375,-0.09375 -0.140625,-0.09375 -0.078125,0 -0.109375,0.03125 -0.125,0.09375 -0.28125,0.921875 -0.9375,1.046875 -1.296875,1.046875 -0.53125,0 -1.40625,-0.421875 -1.40625,-2.03125 z m 0,0"
               style="stroke:none"
               inkscape:connector-curvature="0" />
          </symbol>
          <symbol
             id="lx-text1065-7-6-glyph0-7"
             overflow="visible"
             style="overflow:visible">
            <path
               id="path1096"
               d="m 1.71875,-3.984375 h 1.4375 v -0.3125 H 1.71875 V -6.125 h -0.25 c 0,0.8125 -0.296875,1.875 -1.28125,1.921875 v 0.21875 h 0.84375 v 2.75 c 0,1.21875 0.9375,1.34375 1.296875,1.34375 0.703125,0 0.984375,-0.703125 0.984375,-1.34375 v -0.5625 h -0.25 V -1.25 c 0,0.734375 -0.296875,1.109375 -0.671875,1.109375 -0.671875,0 -0.671875,-0.90625 -0.671875,-1.078125 z m 0,0"
               style="stroke:none"
               inkscape:connector-curvature="0" />
          </symbol>
          <symbol
             id="lx-text1065-7-6-glyph0-8"
             overflow="visible"
             style="overflow:visible">
            <path
               id="path1099"
               d="M 4.6875,-2.140625 C 4.6875,-3.40625 3.703125,-4.46875 2.5,-4.46875 c -1.25,0 -2.21875,1.09375 -2.21875,2.328125 0,1.296875 1.03125,2.25 2.203125,2.25 1.203125,0 2.203125,-0.984375 2.203125,-2.25 z m -2.1875,2 c -0.4375,0 -0.875,-0.203125 -1.140625,-0.671875 -0.25,-0.4375 -0.25,-1.046875 -0.25,-1.40625 0,-0.390625 0,-0.921875 0.234375,-1.359375 C 1.609375,-4.03125 2.078125,-4.25 2.484375,-4.25 c 0.4375,0 0.859375,0.21875 1.125,0.65625 0.265625,0.421875 0.265625,1 0.265625,1.375 0,0.359375 0,0.90625 -0.21875,1.34375 C 3.421875,-0.421875 2.984375,-0.140625 2.5,-0.140625 Z m 0,0"
               style="stroke:none"
               inkscape:connector-curvature="0" />
          </symbol>
          <symbol
             id="lx-text1065-7-6-glyph0-9"
             overflow="visible"
             style="overflow:visible">
            <path
               id="path1102"
               d="m 3.296875,-3.984375 c 0.453125,0 0.515625,0.125 0.515625,0.53125 V -0.75 c 0,0.4375 -0.109375,0.4375 -0.765625,0.4375 V 0 c 0.328125,-0.015625 0.84375,-0.03125 1.09375,-0.03125 0.25,0 0.75,0.015625 1.109375,0.03125 v -0.3125 c -0.671875,0 -0.78125,0 -0.78125,-0.4375 v -3.671875 l -1.25,0.09375 C 3.0625,-4.3125 3.046875,-4.3125 3.046875,-4.3125 3.015625,-4.296875 3,-4.296875 2.859375,-4.296875 H 1.6875 v -1.125 c 0,-0.984375 0.859375,-1.390625 1.46875,-1.390625 0.296875,0 0.65625,0.109375 0.859375,0.328125 -0.40625,0.03125 -0.46875,0.296875 -0.46875,0.46875 C 3.546875,-5.6875 3.8125,-5.5625 4,-5.5625 c 0.234375,0 0.453125,-0.15625 0.453125,-0.453125 0,-0.59375 -0.546875,-1.015625 -1.28125,-1.015625 C 2.25,-7.03125 1.0625,-6.515625 1.0625,-5.4375 v 1.140625 H 0.265625 v 0.3125 H 1.0625 V -0.75 c 0,0.4375 -0.109375,0.4375 -0.78125,0.4375 V 0 C 0.609375,-0.015625 1.140625,-0.03125 1.390625,-0.03125 1.640625,-0.03125 2.125,-0.015625 2.5,0 v -0.3125 c -0.671875,0 -0.78125,0 -0.78125,-0.4375 v -3.234375 z m 0,0"
               style="stroke:none"
               inkscape:connector-curvature="0" />
          </symbol>
          <symbol
             id="lx-text1065-7-6-glyph0-10"
             overflow="visible"
             style="overflow:visible">
            <path
               id="path1105"
               d="M 1.765625,-6.921875 0.328125,-6.8125 V -6.5 c 0.703125,0 0.78125,0.0625 0.78125,0.5625 V -0.75 c 0,0.4375 -0.109375,0.4375 -0.78125,0.4375 V 0 C 0.65625,-0.015625 1.1875,-0.03125 1.4375,-0.03125 c 0.25,0 0.734375,0.015625 1.109375,0.03125 v -0.3125 c -0.671875,0 -0.78125,0 -0.78125,-0.4375 z m 0,0"
               style="stroke:none"
               inkscape:connector-curvature="0" />
          </symbol>
        </g>
      </defs>
      <g
         id="lx-text1065-7-6-surface1">
        <g
           id="g1128"
           style="fill:#000000;fill-opacity:1">
          <use
             id="use1112"
             y="0"
             x="0"
             xlink:href="#lx-text1065-7-6-glyph0-1"
             width="100%"
             height="100%" />
          <use
             id="use1114"
             y="0"
             x="5.5352211"
             xlink:href="#lx-text1065-7-6-glyph0-2"
             width="100%"
             height="100%" />
          <use
             id="use1116"
             y="0"
             x="11.070441"
             xlink:href="#lx-text1065-7-6-glyph0-3"
             width="100%"
             height="100%" />
          <use
             id="use1118"
             y="0"
             x="16.605661"
             xlink:href="#lx-text1065-7-6-glyph0-4"
             width="100%"
             height="100%" />
          <use
             id="use1120"
             y="0"
             x="21.033041"
             xlink:href="#lx-text1065-7-6-glyph0-5"
             width="100%"
             height="100%" />
          <use
             id="use1122"
             y="0"
             x="24.935392"
             xlink:href="#lx-text1065-7-6-glyph0-6"
             width="100%"
             height="100%" />
          <use
             id="use1124"
             y="0"
             x="29.36277"
             xlink:href="#lx-text1065-7-6-glyph0-1"
             width="100%"
             height="100%" />
          <use
             id="use1126"
             y="0"
             x="34.897991"
             xlink:href="#lx-text1065-7-6-glyph0-7"
             width="100%"
             height="100%" />
        </g>
        <g
           id="g1134"
           style="fill:#000000;fill-opacity:1">
          <use
             id="use1130"
             y="0"
             x="42.089993"
             xlink:href="#lx-text1065-7-6-glyph0-5"
             width="100%"
             height="100%" />
          <use
             id="use1132"
             y="0"
             x="45.992344"
             xlink:href="#lx-text1065-7-6-glyph0-8"
             width="100%"
             height="100%" />
        </g>
        <g
           id="g1140"
           style="fill:#000000;fill-opacity:1">
          <use
             id="use1136"
             y="0"
             x="51.252598"
             xlink:href="#lx-text1065-7-6-glyph0-8"
             width="100%"
             height="100%" />
          <use
             id="use1138"
             y="0"
             x="56.233894"
             xlink:href="#lx-text1065-7-6-glyph0-7"
             width="100%"
             height="100%" />
        </g>
        <g
           id="g1152"
           style="fill:#000000;fill-opacity:1">
          <use
             id="use1142"
             y="0"
             x="63.425896"
             xlink:href="#lx-text1065-7-6-glyph0-9"
             width="100%"
             height="100%" />
          <use
             id="use1144"
             y="0"
             x="68.961121"
             xlink:href="#lx-text1065-7-6-glyph0-10"
             width="100%"
             height="100%" />
          <use
             id="use1146"
             y="0"
             x="71.728729"
             xlink:href="#lx-text1065-7-6-glyph0-10"
             width="100%"
             height="100%" />
          <use
             id="use1148"
             y="0"
             x="74.496338"
             xlink:href="#lx-text1065-7-6-glyph0-4"
             width="100%"
             height="100%" />
          <use
             id="use1150"
             y="0"
             x="78.923714"
             xlink:href="#lx-text1065-7-6-glyph0-7"
             width="100%"
             height="100%" />
        </g>
      </g>
    </g>
  </g>
</svg>
