  0
SECTION
  2
HEADER
  9
$ACADVER
  1
AC1014
  9
$ACADMAINTVER
 70
     9
  9
$DWGCODEPAGE
  3
ANSI_1252
  9
$INSBASE
 10
0.0
 20
0.0
 30
0.0
  9
$EXTMIN
 10
1.000000000000000E+20
 20
1.000000000000000E+20
 30
1.000000000000000E+20
  9
$EXTMAX
 10
-1.000000000000000E+20
 20
-1.000000000000000E+20
 30
-1.000000000000000E+20
  9
$LIMMIN
 10
0.0
 20
0.0
  9
$LIMMAX
 10
12.0
 20
9.0
  9
$ORTHOMODE
 70
     0
  9
$REGENMODE
 70
     1
  9
$FILLMODE
 70
     1
  9
$QTEXTMODE
 70
     0
  9
$MIRRTEXT
 70
     1
  9
$DRAGMODE
 70
     2
  9
$LTSCALE
 40
0.5
  9
$OSMODE
 70
    23
  9
$ATTMODE
 70
     1
  9
$TEXTSIZE
 40
0.12
  9
$TRACEWID
 40
0.05
  9
$TEXTSTYLE
  7
ONSHAPE-STANDARD
  9
$CLAYER
  8
0
  9
$CELTYPE
  6
BYLAYER
  9
$CECOLOR
 62
   256
  9
$CELTSCALE
 40
1.0
  9
$DELOBJ
 70
     1
  9
$DISPSILH
 70
     0
  9
$DIMSCALE
 40
1.0
  9
$DIMASZ
 40
0.18
  9
$DIMEXO
 40
0.0625
  9
$DIMDLI
 40
0.38
  9
$DIMRND
 40
0.0
  9
$DIMDLE
 40
0.0
  9
$DIMEXE
 40
0.08
  9
$DIMTP
 40
0.0
  9
$DIMTM
 40
0.0
  9
$DIMTXT
 40
0.12
  9
$DIMCEN
 40
0.09
  9
$DIMTSZ
 40
0.0
  9
$DIMTOL
 70
     0
  9
$DIMLIM
 70
     0
  9
$DIMTIH
 70
     1
  9
$DIMTOH
 70
     1
  9
$DIMSE1
 70
     0
  9
$DIMSE2
 70
     0
  9
$DIMTAD
 70
     0
  9
$DIMZIN
 70
     7
  9
$DIMBLK
  1

  9
$DIMASO
 70
     1
  9
$DIMSHO
 70
     1
  9
$DIMPOST
  1

  9
$DIMAPOST
  1

  9
$DIMALT
 70
     0
  9
$DIMALTD
 70
     2
  9
$DIMALTF
 40
25.4
  9
$DIMLFAC
 40
0.5
  9
$DIMTOFL
 70
     0
  9
$DIMTVP
 40
0.0
  9
$DIMTIX
 70
     0
  9
$DIMSOXD
 70
     0
  9
$DIMSAH
 70
     0
  9
$DIMBLK1
  1

  9
$DIMBLK2
  1

  9
$DIMSTYLE
  2
ONSHAPE-STANDARD
  9
$DIMCLRD
 70
     7
  9
$DIMCLRE
 70
     7
  9
$DIMCLRT
 70
     7
  9
$DIMTFAC
 40
1.0
  9
$DIMGAP
 40
0.09
  9
$DIMJUST
 70
     0
  9
$DIMSD1
 70
     0
  9
$DIMSD2
 70
     0
  9
$DIMTOLJ
 70
     1
  9
$DIMTZIN
 70
     7
  9
$DIMALTZ
 70
     7
  9
$DIMALTTZ
 70
     0
  9
$DIMFIT
 70
     3
  9
$DIMUPT
 70
     1
  9
$DIMUNIT
 70
     2
  9
$DIMDEC
 70
     3
  9
$DIMTDEC
 70
     3
  9
$DIMALTU
 70
     2
  9
$DIMALTTD
 70
     2
  9
$DIMTXSTY
  7
ONSHAPE-STANDARD-DIMENSION
  9
$DIMAUNIT
 70
     0
  9
$LUNITS
 70
     2
  9
$LUPREC
 70
     4
  9
$SKETCHINC
 40
0.1
  9
$FILLETRAD
 40
0.5
  9
$AUNITS
 70
     0
  9
$AUPREC
 70
     0
  9
$MENU
  1
.
  9
$ELEVATION
 40
0.0
  9
$PELEVATION
 40
0.0
  9
$THICKNESS
 40
0.0
  9
$LIMCHECK
 70
     0
  9
$CHAMFERA
 40
0.0
  9
$CHAMFERB
 40
0.0
  9
$CHAMFERC
 40
0.0
  9
$CHAMFERD
 40
0.0
  9
$SKPOLY
 70
     0
  9
$TDCREATE
 40
2458613.740567118
  9
$TDUPDATE
 40
2458613.740567118
  9
$TDINDWG
 40
0.0
  9
$TDUSRTIMER
 40
0.0
  9
$USRTIMER
 70
     1
  9
$ANGBASE
 50
0.0
  9
$ANGDIR
 70
     0
  9
$PDMODE
 70
     0
  9
$PDSIZE
 40
0.0
  9
$PLINEWID
 40
0.0
  9
$COORDS
 70
     1
  9
$SPLFRAME
 70
     0
  9
$SPLINETYPE
 70
     6
  9
$SPLINESEGS
 70
     8
  9
$ATTDIA
 70
     0
  9
$ATTREQ
 70
     1
  9
$HANDLING
 70
     1
  9
$HANDSEED
  5
11A
  9
$SURFTAB1
 70
     6
  9
$SURFTAB2
 70
     6
  9
$SURFTYPE
 70
     6
  9
$SURFU
 70
     6
  9
$SURFV
 70
     6
  9
$UCSNAME
  2

  9
$UCSORG
 10
0.0
 20
0.0
 30
0.0
  9
$UCSXDIR
 10
1.0
 20
0.0
 30
0.0
  9
$UCSYDIR
 10
0.0
 20
1.0
 30
0.0
  9
$PUCSNAME
  2

  9
$PUCSORG
 10
0.0
 20
0.0
 30
0.0
  9
$PUCSXDIR
 10
1.0
 20
0.0
 30
0.0
  9
$PUCSYDIR
 10
0.0
 20
1.0
 30
0.0
  9
$USERI1
 70
     0
  9
$USERI2
 70
     0
  9
$USERI3
 70
     0
  9
$USERI4
 70
     0
  9
$USERI5
 70
     0
  9
$USERR1
 40
0.0
  9
$USERR2
 40
0.0
  9
$USERR3
 40
0.0
  9
$USERR4
 40
0.0
  9
$USERR5
 40
0.0
  9
$WORLDVIEW
 70
     1
  9
$SHADEDGE
 70
     3
  9
$SHADEDIF
 70
    70
  9
$TILEMODE
 70
     1
  9
$MAXACTVP
 70
    64
  9
$PINSBASE
 10
0.0
 20
0.0
 30
0.0
  9
$PLIMCHECK
 70
     0
  9
$PEXTMIN
 10
1.000000000000000E+20
 20
1.000000000000000E+20
 30
1.000000000000000E+20
  9
$PEXTMAX
 10
-1.000000000000000E+20
 20
-1.000000000000000E+20
 30
-1.000000000000000E+20
  9
$PLIMMIN
 10
0.0
 20
0.0
  9
$PLIMMAX
 10
12.0
 20
9.0
  9
$UNITMODE
 70
     0
  9
$VISRETAIN
 70
     1
  9
$PLINEGEN
 70
     0
  9
$PSLTSCALE
 70
     1
  9
$TREEDEPTH
 70
  3020
  9
$PICKSTYLE
 70
     1
  9
$CMLSTYLE
  2
STANDARD
  9
$CMLJUST
 70
     0
  9
$CMLSCALE
 40
1.0
  9
$PROXYGRAPHICS
 70
     1
  9
$MEASUREMENT
 70
     0
  0
ENDSEC
  0
SECTION
  2
CLASSES
  0
CLASS
  1
ACDBDICTIONARYWDFLT
  2
AcDbDictionaryWithDefault
  3
ObjectDBX Classes
 90
        0
280
     0
281
     0
  0
CLASS
  1
VISUALSTYLE
  2
AcDbVisualStyle
  3
ObjectDBX Classes
 90
     4095
280
     0
281
     0
  0
CLASS
  1
MATERIAL
  2
AcDbMaterial
  3
ObjectDBX Classes
 90
     1153
280
     0
281
     0
  0
CLASS
  1
SCALE
  2
AcDbScale
  3
ObjectDBX Classes
 90
     1153
280
     0
281
     0
  0
CLASS
  1
SUN
  2
AcDbSun
  3
SCENEOE
 90
     1153
280
     0
281
     0
  0
CLASS
  1
TABLESTYLE
  2
AcDbTableStyle
  3
ObjectDBX Classes
 90
     4095
280
     0
281
     0
  0
CLASS
  1
DICTIONARYVAR
  2
AcDbDictionaryVar
  3
ObjectDBX Classes
 90
        0
280
     0
281
     0
  0
CLASS
  1
XRECORD
  2
AcDbXrecord
  3
ObjectDBX Classes
 90
        0
280
     0
281
     0
  0
CLASS
  1
LWPOLYLINE
  2
AcDbPolyline
  3
ObjectDBX Classes
 90
        0
280
     0
281
     1
  0
CLASS
  1
HATCH
  2
AcDbHatch
  3
ObjectDBX Classes
 90
        0
280
     0
281
     1
  0
CLASS
  1
ACDBPLACEHOLDER
  2
AcDbPlaceHolder
  3
ObjectDBX Classes
 90
        0
280
     0
281
     0
  0
CLASS
  1
LAYOUT
  2
AcDbLayout
  3
ObjectDBX Classes
 90
        0
280
     0
281
     0
  0
ENDSEC
  0
SECTION
  2
TABLES
  0
TABLE
  2
VPORT
  5
8
330
0
100
AcDbSymbolTable
 70
     1
  0
VPORT
  5
29
330
8
100
AcDbSymbolTableRecord
100
AcDbViewportTableRecord
  2
*ACTIVE
 70
     0
 10
0.0
 20
0.0
 11
1.0
 21
1.0
 12
8.697784907856255
 22
4.270234062339402
 13
0.0
 23
0.0
 14
0.5
 24
0.5
 15
0.5
 25
0.5
 16
0.0
 26
0.0
 36
1.0
 17
0.0
 27
0.0
 37
0.0
 40
3.808772154941316
 41
0.9960485305254272
 42
50.0
 43
0.0
 44
0.0
 50
0.0
 51
0.0
 71
     0
 72
   100
 73
     1
 74
     3
 75
     0
 76
     0
 77
     0
 78
     0
  0
ENDTAB
  0
TABLE
  2
LTYPE
  5
5
330
0
100
AcDbSymbolTable
 70
     1
  0
LTYPE
  5
14
330
5
100
AcDbSymbolTableRecord
100
AcDbLinetypeTableRecord
  2
BYBLOCK
 70
     0
  3

 72
    65
 73
     0
 40
0.0
  0
LTYPE
  5
15
330
5
100
AcDbSymbolTableRecord
100
AcDbLinetypeTableRecord
  2
BYLAYER
 70
     0
  3

 72
    65
 73
     0
 40
0.0
  0
LTYPE
  5
16
330
5
100
AcDbSymbolTableRecord
100
AcDbLinetypeTableRecord
  2
CONTINUOUS
 70
     0
  3
Solid line
 72
    65
 73
     0
 40
0.0
  0
ENDTAB
  0
TABLE
  2
LAYER
  5
2
330
0
100
AcDbSymbolTable
 70
     2
  0
LAYER
  5
10
330
2
100
AcDbSymbolTableRecord
100
AcDbLayerTableRecord
  2
0
 70
     0
 62
     7
  6
CONTINUOUS
  0
LAYER
  5
71
330
2
100
AcDbSymbolTableRecord
100
AcDbLayerTableRecord
  2
VISIBLE
 70
     0
 62
     7
  6
CONTINUOUS
  0
ENDTAB
  0
TABLE
  2
STYLE
  5
3
330
0
100
AcDbSymbolTable
 70
    19
  0
STYLE
  5
11
330
3
100
AcDbSymbolTableRecord
100
AcDbTextStyleTableRecord
  2
STANDARD
 70
     0
 40
0.0
 41
1.0
 50
0.0
 71
     0
 42
0.12
  3
txt
  4

  0
STYLE
  5
6E
330
3
100
AcDbSymbolTableRecord
100
AcDbTextStyleTableRecord
  2
ONSHAPE-STANDARD
 70
     0
 40
0.0
 41
1.0
 50
0.0
 71
     0
 42
0.12
  3
NotoSans-Regular.ttf
  4

1001
ACAD
1000
Noto Sans
1071
        0
  0
STYLE
  5
70
330
3
100
AcDbSymbolTableRecord
100
AcDbTextStyleTableRecord
  2
ONSHAPE-STANDARD-DIMENSION
 70
     0
 40
0.0
 41
1.0
 50
0.0
 71
     0
 42
0.12
  3

  4

1001
ACAD
1000
Noto Sans
1071
        0
  0
STYLE
  5
BD
330
3
100
AcDbSymbolTableRecord
100
AcDbTextStyleTableRecord
  2
ONSHAPE-STANDARD-BOLD
 70
     0
 40
0.0
 41
1.0
 50
0.0
 71
     0
 42
0.12
  3
NotoSans-Bold.ttf
  4

1001
ACAD
1000
Noto Sans
1071
 33554432
  0
STYLE
  5
BE
330
3
100
AcDbSymbolTableRecord
100
AcDbTextStyleTableRecord
  2
ONSHAPE-STANDARD-FIELDS
 70
     0
 40
0.0
 41
1.0
 50
0.0
 71
     0
 42
0.12
  3

  4

1001
ACAD
1000
Noto Sans
1071
        0
  0
STYLE
  5
BF
330
3
100
AcDbSymbolTableRecord
100
AcDbTextStyleTableRecord
  2
ONSHAPE-STANDARD-TCFIELDS
 70
     0
 40
0.0
 41
1.0
 50
0.0
 71
     0
 42
0.12
  3
NotoSansTC-Regular.otf
  4

1001
ACAD
1000
Noto Sans TC
1071
        0
  0
STYLE
  5
C0
330
3
100
AcDbSymbolTableRecord
100
AcDbTextStyleTableRecord
  2
ONSHAPE-STANDARD-SCFIELDS
 70
     0
 40
0.0
 41
1.0
 50
0.0
 71
     0
 42
0.12
  3
NotoSansSC-Regular.otf
  4

1001
ACAD
1000
Noto Sans SC
1071
        0
  0
STYLE
  5
C1
330
3
100
AcDbSymbolTableRecord
100
AcDbTextStyleTableRecord
  2
ONSHAPE-STANDARD-KOREANFIE
 70
     0
 40
0.0
 41
1.0
 50
0.0
 71
     0
 42
0.12
  3
NotoSansKR-Regular.otf
  4

1001
ACAD
1000
Noto Sans KR
1071
        0
  0
STYLE
  5
C3
330
3
100
AcDbSymbolTableRecord
100
AcDbTextStyleTableRecord
  2
TTFSTYLE
 70
     0
 40
0.0
 41
1.0
 50
0.0
 71
     0
 42
0.12
  3
Verdana.ttf
  4

1001
ACAD
1000
Verdana
1071
       34
  0
STYLE
  5
C4
330
3
100
AcDbSymbolTableRecord
100
AcDbTextStyleTableRecord
  2
ONSHAPE-STANDARD-GTOLERANC
 70
     0
 40
0.0
 41
1.0
 50
0.0
 71
     0
 42
0.12
  3

  4

1001
ACAD
1000
Noto Sans
1071
        0
  0
STYLE
  5
C5
330
3
100
AcDbSymbolTableRecord
100
AcDbTextStyleTableRecord
  2
ONSHAPE-STANDARD-TABLE-DAT
 70
     0
 40
0.0
 41
1.0
 50
0.0
 71
     0
 42
0.12
  3
NotoSans-Regular.ttf
  4

1001
ACAD
1000
Noto Sans
1071
        0
  0
STYLE
  5
C6
330
3
100
AcDbSymbolTableRecord
100
AcDbTextStyleTableRecord
  2
ONSHAPE-STANDARD-TABLE-TIT
 70
     0
 40
0.0
 41
1.0
 50
0.0
 71
     0
 42
0.12
  3
NotoSans-Bold.ttf
  4

1001
ACAD
1000
Noto Sans
1071
 33554432
  0
STYLE
  5
C7
330
3
100
AcDbSymbolTableRecord
100
AcDbTextStyleTableRecord
  2
ONSHAPE-STANDARD-TABLE-HEA
 70
     0
 40
0.0
 41
1.0
 50
0.0
 71
     0
 42
0.12
  3
NotoSans-Bold.ttf
  4

1001
ACAD
1000
Noto Sans
1071
 33554432
  0
STYLE
  5
C8
330
3
100
AcDbSymbolTableRecord
100
AcDbTextStyleTableRecord
  2
ONSHAPE-STANDARD-BOMTABLE-
 70
     0
 40
0.0
 41
1.0
 50
0.0
 71
     0
 42
0.12
  3
NotoSans-Regular.ttf
  4

1001
ACAD
1000
Noto Sans
1071
        0
  0
STYLE
  5
C9
330
3
100
AcDbSymbolTableRecord
100
AcDbTextStyleTableRecord
  2
ONSHAPE-STANDARD-BOMTABLE0
 70
     0
 40
0.0
 41
1.0
 50
0.0
 71
     0
 42
0.12
  3
NotoSans-Bold.ttf
  4

1001
ACAD
1000
Noto Sans
1071
 33554432
  0
STYLE
  5
CA
330
3
100
AcDbSymbolTableRecord
100
AcDbTextStyleTableRecord
  2
ONSHAPE-STANDARD-BOMTABLE1
 70
     0
 40
0.0
 41
1.0
 50
0.0
 71
     0
 42
0.12
  3
NotoSans-Bold.ttf
  4

1001
ACAD
1000
Noto Sans
1071
 33554432
  0
STYLE
  5
CB
330
3
100
AcDbSymbolTableRecord
100
AcDbTextStyleTableRecord
  2
ONSHAPE-STANDARD-NOTESTYLE
 70
     0
 40
0.12
 41
1.0
 50
0.0
 71
     0
 42
0.12
  3
Noto Sans
  4

1001
ACAD
1000
Noto Sans
1071
        0
  0
STYLE
  5
CC
330
3
100
AcDbSymbolTableRecord
100
AcDbTextStyleTableRecord
  2
ONSHAPE-STANDARD-VIEW-LABE
 70
     0
 40
0.12
 41
1.0
 50
0.0
 71
     0
 42
0.12
  3
NotoSans-Regular.ttf
  4

1001
ACAD
1000
Noto Sans
1071
        0
  0
STYLE
  5
CD
330
3
100
AcDbSymbolTableRecord
100
AcDbTextStyleTableRecord
  2
ONSHAPE-STANDARD-HOLE-CALL
 70
     0
 40
0.12
 41
1.0
 50
0.0
 71
     0
 42
0.12
  3
Noto Sans
  4

1001
ACAD
1000
Noto Sans
1071
        0
  0
ENDTAB
  0
TABLE
  2
VIEW
  5
6
330
0
100
AcDbSymbolTable
 70
     0
  0
ENDTAB
  0
TABLE
  2
UCS
  5
7
330
0
100
AcDbSymbolTable
 70
     0
  0
ENDTAB
  0
TABLE
  2
APPID
  5
9
330
0
100
AcDbSymbolTable
 70
     1
  0
APPID
  5
12
330
9
100
AcDbSymbolTableRecord
100
AcDbRegAppTableRecord
  2
ACAD
 70
     0
  0
ENDTAB
  0
TABLE
  2
DIMSTYLE
  5
A
330
0
100
AcDbSymbolTable
 70
    17
  0
DIMSTYLE
105
27
330
A
100
AcDbSymbolTableRecord
100
AcDbDimStyleTableRecord
  2
STANDARD
 70
     0
  3

  4

  5

  6

  7

 40
1.0
 41
0.18
 42
0.0625
 43
0.38
 44
0.18
 45
0.0
 46
0.0
 47
0.0
 48
0.0
140
0.18
141
0.09
142
0.0
143
25.4
144
1.0
145
0.0
146
1.0
147
0.09
 71
     0
 72
     0
 73
     1
 74
     1
 75
     0
 76
     0
 77
     0
 78
     0
170
     0
171
     2
172
     0
173
     0
174
     0
175
     0
176
     0
177
     0
178
     0
270
     2
271
     4
272
     4
273
     2
274
     2
340
11
275
     0
280
     0
281
     0
282
     0
283
     1
284
     0
285
     0
286
     0
287
     3
288
     0
  0
DIMSTYLE
105
6F
330
A
100
AcDbSymbolTableRecord
100
AcDbDimStyleTableRecord
  2
ONSHAPE-STANDARD
 70
     0
  3

  4

  5

  6

  7

 40
1.0
 41
0.18
 42
0.0625
 43
0.38
 44
0.08
 45
0.0
 46
0.0
 47
0.0
 48
0.0
140
0.12
141
0.09
142
0.0
143
25.4
144
1.0
145
0.0
146
1.0
147
0.09
 71
     0
 72
     0
 73
     1
 74
     1
 75
     0
 76
     0
 77
     0
 78
     7
170
     0
171
     2
172
     0
173
     0
174
     0
175
     0
176
     7
177
     7
178
     7
179
     1
270
     2
271
     3
272
     3
273
     2
274
     2
340
70
275
     0
280
     0
281
     0
282
     0
283
     1
284
     7
285
     7
286
     0
287
     3
288
     1
  0
DIMSTYLE
105
D0
330
A
100
AcDbSymbolTableRecord
100
AcDbDimStyleTableRecord
  2
ANSI
 70
     0
  3

  4
mm
  5

  6

  7

 40
1.0
 41
0.12
 42
0.05
 43
0.5
 44
0.1
 45
0.0
 46
0.0
 47
0.1
 48
0.1
140
0.12
141
0.0
142
0.0
143
25.4
144
1.0
145
0.0
146
0.71
147
0.06
 71
     0
 72
     0
 73
     1
 74
     1
 75
     0
 76
     0
 77
     0
 78
     7
170
     0
171
     2
172
     0
173
     0
174
     0
175
     0
176
     7
177
     7
178
     7
270
     2
271
     3
272
     4
273
     2
274
     2
340
11
275
     0
280
     0
281
     0
282
     0
283
     1
284
     7
285
     7
286
     0
287
     3
288
     1
  0
DIMSTYLE
105
D1
330
A
100
AcDbSymbolTableRecord
100
AcDbDimStyleTableRecord
  2
ANSI$3
 70
     0
  3

  4
mm
  5

  6

  7

 40
1.0
 41
0.12
 42
0.05
 43
0.5
 44
0.1
 45
0.0
 46
0.0
 47
0.1
 48
0.1
140
0.12
141
0.0
142
0.0
143
25.4
144
1.0
145
0.0
146
0.71
147
0.06
 71
     0
 72
     0
 73
     1
 74
     1
 75
     0
 76
     0
 77
     0
 78
     7
170
     0
171
     2
172
     0
173
     0
174
     0
175
     0
176
     7
177
     7
178
     7
270
     2
271
     3
272
     4
273
     2
274
     2
340
11
275
     0
280
     0
281
     0
282
     0
283
     1
284
     7
285
     7
286
     0
288
     1
  0
DIMSTYLE
105
D2
330
A
100
AcDbSymbolTableRecord
100
AcDbDimStyleTableRecord
  2
ANSI$4
 70
     0
  3

  4
mm
  5

  6

  7

 40
1.0
 41
0.12
 42
0.05
 43
0.5
 44
0.1
 45
0.0
 46
0.0
 47
0.1
 48
0.1
140
0.12
141
0.0
142
0.0
143
25.4
144
1.0
145
0.0
146
0.71
147
0.06
 71
     0
 72
     0
 73
     1
 74
     1
 75
     0
 76
     0
 77
     0
 78
     7
170
     0
171
     2
172
     0
173
     0
174
     0
175
     0
176
     7
177
     7
178
     7
270
     2
271
     3
272
     4
273
     2
274
     2
340
11
275
     0
280
     0
281
     0
282
     0
283
     1
284
     7
285
     7
286
     0
287
     3
288
     1
  0
DIMSTYLE
105
D3
330
A
100
AcDbSymbolTableRecord
100
AcDbDimStyleTableRecord
  2
ANSI$7
 70
     0
  3

  4
mm
  5

  6

  7

 40
1.0
 41
0.12
 42
0.05
 43
0.5
 44
0.1
 45
0.0
 46
0.0
 47
0.1
 48
0.1
140
0.12
141
0.0
142
0.0
143
25.4
144
1.0
145
0.0
146
0.71
147
0.06
 71
     0
 72
     0
 73
     1
 74
     1
 75
     0
 76
     0
 77
     0
 78
     7
170
     0
171
     2
172
     0
173
     0
174
     0
175
     0
176
     7
177
     7
178
     7
270
     2
271
     3
272
     4
273
     2
274
     2
340
11
275
     0
280
     0
281
     0
282
     0
283
     1
284
     7
285
     7
286
     0
287
     3
288
     1
  0
DIMSTYLE
105
D4
330
A
100
AcDbSymbolTableRecord
100
AcDbDimStyleTableRecord
  2
ANSI$SF
 70
     0
  3

  4
mm
  5

  6

  7

 40
1.0
 41
0.12
 42
0.05
 43
0.5
 44
0.1
 45
0.0
 46
0.0
 47
0.1
 48
0.1
140
0.12
141
0.0
142
0.0
143
25.4
144
1.0
145
0.0
146
0.71
147
0.06
 71
     0
 72
     0
 73
     1
 74
     1
 75
     1
 76
     1
 77
     0
 78
     7
170
     0
171
     2
172
     0
173
     0
174
     0
175
     0
176
     7
177
     7
178
     7
270
     2
271
     3
272
     4
273
     2
274
     2
340
11
275
     0
280
     0
281
     0
282
     0
283
     1
284
     7
285
     7
286
     0
287
     3
288
     1
  0
DIMSTYLE
105
D5
330
A
100
AcDbSymbolTableRecord
100
AcDbDimStyleTableRecord
  2
ANSI$SH
 70
     0
  3

  4
mm
  5

  6

  7

 40
1.0
 41
0.12
 42
0.05
 43
0.5
 44
0.1
 45
0.0
 46
0.0
 47
0.1
 48
0.1
140
0.12
141
0.0
142
0.0
143
25.4
144
1.0
145
0.0
146
0.71
147
0.06
 71
     0
 72
     0
 73
     1
 74
     1
 75
     1
 76
     1
 77
     0
 78
     7
170
     0
171
     2
172
     0
173
     1
174
     0
175
     0
176
     7
177
     7
178
     7
270
     2
271
     3
272
     4
273
     2
274
     2
340
11
275
     0
280
     0
281
     0
282
     0
283
     1
284
     7
285
     7
286
     0
287
     3
288
     1
  0
DIMSTYLE
105
D8
330
A
100
AcDbSymbolTableRecord
100
AcDbDimStyleTableRecord
  2
ONSHAPE-STANDARD$0
 70
     0
  3

  4

  5

  6

  7

 40
1.0
 41
0.18
 42
0.0625
 43
0.38
 44
0.08
 45
0.0
 46
0.0
 47
0.0
 48
0.0
140
0.12
141
0.09
142
0.0
143
25.4
144
1.0
145
0.0
146
1.0
147
0.09
 71
     0
 72
     0
 73
     1
 74
     1
 75
     0
 76
     0
 77
     0
 78
     7
170
     0
171
     2
172
     0
173
     0
174
     0
175
     0
176
     7
177
     7
178
     7
179
     1
270
     2
271
     3
272
     3
273
     2
274
     2
340
70
275
     0
280
     0
281
     0
282
     0
283
     1
284
     7
285
     7
286
     0
287
     3
288
     1
  0
DIMSTYLE
105
D9
330
A
100
AcDbSymbolTableRecord
100
AcDbDimStyleTableRecord
  2
ONSHAPE-STANDARD$2
 70
     0
  3

  4

  5

  6

  7

 40
1.0
 41
0.18
 42
0.0625
 43
0.38
 44
0.08
 45
0.0
 46
0.0
 47
0.0
 48
0.0
140
0.12
141
0.09
142
0.0
143
25.4
144
1.0
145
0.0
146
1.0
147
0.09
 71
     0
 72
     0
 73
     1
 74
     1
 75
     0
 76
     0
 77
     0
 78
     7
170
     0
171
     2
172
     0
173
     0
174
     0
175
     0
176
     7
177
     7
178
     7
179
     1
270
     2
271
     3
272
     3
273
     2
274
     2
340
70
275
     0
280
     0
281
     0
282
     0
283
     1
284
     7
285
     7
286
     0
287
     3
288
     1
  0
DIMSTYLE
105
DA
330
A
100
AcDbSymbolTableRecord
100
AcDbDimStyleTableRecord
  2
ONSHAPE-STANDARD$3
 70
     0
  3

  4

  5

  6

  7

 40
1.0
 41
0.18
 42
0.0625
 43
0.38
 44
0.08
 45
0.0
 46
0.0
 47
0.0
 48
0.0
140
0.12
141
0.0
142
0.0
143
25.4
144
1.0
145
0.0
146
1.0
147
0.09
 71
     0
 72
     0
 73
     1
 74
     1
 75
     0
 76
     0
 77
     0
 78
     7
170
     0
171
     2
172
     0
173
     0
174
     0
175
     0
176
     7
177
     7
178
     7
179
     1
270
     2
271
     3
272
     3
273
     2
274
     2
340
70
275
     0
280
     0
281
     0
282
     0
283
     1
284
     7
285
     7
286
     0
287
     3
288
     1
  0
DIMSTYLE
105
DB
330
A
100
AcDbSymbolTableRecord
100
AcDbDimStyleTableRecord
  2
ONSHAPE-STANDARD$4
 70
     0
  3

  4

  5

  6

  7

 40
1.0
 41
0.18
 42
0.0625
 43
0.38
 44
0.08
 45
0.0
 46
0.0
 47
0.0
 48
0.0
140
0.12
141
0.0
142
0.0
143
25.4
144
1.0
145
0.0
146
1.0
147
0.09
 71
     0
 72
     0
 73
     1
 74
     1
 75
     0
 76
     0
 77
     0
 78
     7
170
     0
171
     2
172
     0
173
     0
174
     0
175
     0
176
     7
177
     7
178
     7
179
     1
270
     2
271
     3
272
     3
273
     2
274
     2
340
70
275
     0
280
     0
281
     0
282
     0
283
     1
284
     7
285
     7
286
     0
287
     3
288
     1
  0
DIMSTYLE
105
DC
330
A
100
AcDbSymbolTableRecord
100
AcDbDimStyleTableRecord
  2
ONSHAPE-STANDARD$6
 70
     0
  3

  4

  5

  6

  7

 40
1.0
 41
0.02
 42
0.0625
 43
0.38
 44
0.08
 45
0.0
 46
0.0
 47
0.0
 48
0.0
140
0.12
141
0.09
142
0.0
143
25.4
144
1.0
145
0.0
146
1.0
147
0.09
 71
     0
 72
     0
 73
     1
 74
     1
 75
     0
 76
     0
 77
     0
 78
     7
170
     0
171
     2
172
     0
173
     0
174
     0
175
     0
176
     7
177
     7
178
     7
179
     1
270
     2
271
     3
272
     3
273
     2
274
     2
340
70
275
     0
280
     0
281
     0
282
     0
283
     1
284
     7
285
     7
286
     0
287
     3
288
     1
  0
DIMSTYLE
105
DD
330
A
100
AcDbSymbolTableRecord
100
AcDbDimStyleTableRecord
  2
ONSHAPE-STANDARD$7
 70
     0
  3

  4

  5

  6

  7

 40
1.0
 41
0.18
 42
0.0625
 43
0.38
 44
0.08
 45
0.0
 46
0.0
 47
0.0
 48
0.0
140
0.12
141
0.09
142
0.0
143
25.4
144
1.0
145
0.0
146
1.0
147
0.09
 71
     0
 72
     0
 73
     1
 74
     1
 75
     0
 76
     0
 77
     0
 78
     7
170
     0
171
     2
172
     0
173
     0
174
     0
175
     0
176
     7
177
     7
178
     7
179
     1
270
     2
271
     3
272
     3
273
     2
274
     2
340
70
275
     0
280
     0
281
     0
282
     0
283
     1
284
     7
285
     7
286
     0
287
     3
288
     1
  0
DIMSTYLE
105
DE
330
A
100
AcDbSymbolTableRecord
100
AcDbDimStyleTableRecord
  2
ONSHAPE-STANDARD-GTOLERANC
 70
     0
  3

  4

  5

  6

  7

 40
1.0
 41
0.18
 42
0.0625
 43
0.38
 44
0.08
 45
0.0
 46
0.0
 47
0.0
 48
0.0
140
0.12
141
0.09
142
0.0
143
25.4
144
1.0
145
0.0
146
1.0
147
0.09
 71
     0
 72
     0
 73
     1
 74
     1
 75
     0
 76
     0
 77
     0
 78
     7
170
     0
171
     2
172
     0
173
     0
174
     0
175
     0
176
     7
177
     7
178
     7
179
     1
270
     2
271
     3
272
     3
273
     2
274
     2
340
C4
275
     0
280
     0
281
     0
282
     0
283
     1
284
     7
285
     7
286
     0
287
     3
288
     1
  0
DIMSTYLE
105
E0
330
A
100
AcDbSymbolTableRecord
100
AcDbDimStyleTableRecord
  2
ONSHAPE-ORDINATESTYLE
 70
     0
  3

  4

  5

  6

  7

 40
1.0
 41
0.02
 42
0.0625
 43
0.38
 44
0.08
 45
0.0
 46
0.0
 47
0.0
 48
0.0
140
0.12
141
0.09
142
0.0
143
25.4
144
1.0
145
0.0
146
1.0
147
0.09
 71
     0
 72
     0
 73
     1
 74
     1
 75
     0
 76
     0
 77
     0
 78
     7
170
     0
171
     2
172
     0
173
     0
174
     0
175
     0
176
     7
177
     7
178
     7
179
     1
270
     2
271
     3
272
     3
273
     2
274
     2
340
70
275
     0
280
     0
281
     0
282
     0
283
     1
284
     7
285
     7
286
     0
287
     3
288
     1
  0
DIMSTYLE
105
E1
330
A
100
AcDbSymbolTableRecord
100
AcDbDimStyleTableRecord
  2
ONSHAPE-CHAMFERDIMSTYLE
 70
     0
  3

  4

  5

  6

  7

 40
1.0
 41
0.18
 42
0.0625
 43
0.38
 44
0.08
 45
0.0
 46
0.0
 47
0.0
 48
0.0
140
0.12
141
0.09
142
0.0
143
25.4
144
1.0
145
0.0
146
1.0
147
0.09
 71
     0
 72
     0
 73
     1
 74
     1
 75
     0
 76
     0
 77
     0
 78
     7
170
     0
171
     2
172
     0
173
     0
174
     0
175
     0
176
     7
177
     7
178
     7
179
     1
270
     2
271
     3
272
     3
273
     2
274
     2
340
70
275
     0
280
     0
281
     0
282
     0
283
     1
284
     7
285
     7
286
     0
287
     3
288
     1
  0
ENDTAB
  0
TABLE
  2
BLOCK_RECORD
  5
1
330
0
100
AcDbSymbolTable
 70
     1
  0
BLOCK_RECORD
  5
1F
330
1
100
AcDbSymbolTableRecord
100
AcDbBlockTableRecord
  2
*MODEL_SPACE
  0
BLOCK_RECORD
  5
1B
330
1
100
AcDbSymbolTableRecord
100
AcDbBlockTableRecord
  2
*PAPER_SPACE
  0
ENDTAB
  0
ENDSEC
  0
SECTION
  2
BLOCKS
  0
BLOCK
  5
20
330
1F
100
AcDbEntity
  8
0
100
AcDbBlockBegin
  2
*MODEL_SPACE
 70
     0
 10
0.0
 20
0.0
 30
0.0
  3
*MODEL_SPACE
  1

  0
ENDBLK
  5
21
330
1F
100
AcDbEntity
  8
0
100
AcDbBlockEnd
  0
BLOCK
  5
1C
330
1B
100
AcDbEntity
 67
     1
  8
0
100
AcDbBlockBegin
  2
*PAPER_SPACE
 70
     0
 10
0.0
 20
0.0
 30
0.0
  3
*PAPER_SPACE
  1

  0
ENDBLK
  5
1D
330
1B
100
AcDbEntity
 67
     1
  8
0
100
AcDbBlockEnd
  0
ENDSEC
  0
SECTION
  2
ENTITIES
  0
ARC
  5
73
330
1F
100
AcDbEntity
  8
VISIBLE
100
AcDbCircle
 10
8.708196046035567
 20
4.270234062339402
 30
0.0
 40
1.87007874015748
100
AcDbArc
 50
262.6757120596048
 51
266.7360526462775
  0
SPLINE
  5
74
330
1F
100
AcDbEntity
  8
VISIBLE
100
AcDbSpline
210
0.0
220
0.0
230
1.0
 70
     8
 71
     3
 72
    20
 73
    16
 74
     0
 42
0.000000001
 43
0.000000000620737
 40
0.10825192075491
 40
0.10825192075491
 40
0.10825192075491
 40
0.10825192075491
 40
0.1666411963469485
 40
0.2000001269197105
 40
0.2430662679326505
 40
0.29402279583564
 40
0.3518020593930985
 40
0.4156794341611105
 40
0.485121458881961
 40
0.559714157153641
 40
0.639124147108644
 40
0.723075456777559
 40
0.8113347242840959
 40
0.903701245370925
 40
0.9880400396243484
 40
0.9880400396243484
 40
0.9880400396243484
 40
0.9880400396243484
 10
8.40210268316617
 20
2.759138510322901
 30
0.0
 10
8.399037017117625
 20
2.743835685351773
 30
0.0
 10
8.395573619865766
 20
2.726003127737758
 30
0.0
 10
8.395296084648749
 20
2.721882952546248
 30
0.0
 10
8.394350295054695
 20
2.710934120428291
 30
0.0
 10
8.394085288850121
 20
2.697585843500069
 30
0.0
 10
8.394508801437752
 20
2.679768638789368
 30
0.0
 10
8.396143184469
 20
2.658246176436146
 30
0.0
 10
8.399334998207348
 20
2.63287670708065
 30
0.0
 10
8.404478141538746
 20
2.603842841247714
 30
0.0
 10
8.411946762767734
 20
2.571264015799931
 30
0.0
 10
8.422090787013204
 20
2.535319014588636
 30
0.0
 10
8.4353259847089
 20
2.49618961884174
 30
0.0
 10
8.451029721517731
 20
2.455967853786216
 30
0.0
 10
8.463686338389824
 20
2.428528201331819
 30
0.0
 10
8.469788934948351
 20
2.415414247971309
 30
0.0
  0
ARC
  5
75
330
1F
100
AcDbEntity
  8
VISIBLE
100
AcDbCircle
 10
8.28493104669574
 20
2.782611895690779
 30
0.0
 40
0.11949975821644
100
AcDbArc
 50
348.6717042665132
 51
159.5635898511342
  0
ARC
  5
76
330
1F
100
AcDbEntity
  8
VISIBLE
100
AcDbCircle
 10
8.708196046035567
 20
4.270234062339402
 30
0.0
 40
1.87007874015748
100
AcDbArc
 50
241.4992414713695
 51
245.5595820580422
  0
SPLINE
  5
77
330
1F
100
AcDbEntity
  8
VISIBLE
100
AcDbSpline
210
0.0
220
0.0
230
1.0
 70
     8
 71
     3
 72
    20
 73
    16
 74
     0
 42
0.000000001
 43
0.0000000005797886
 40
0.1082519207549112
 40
0.1082519207549112
 40
0.1082519207549112
 40
0.1082519207549112
 40
0.1666411963469485
 40
0.2000001269197105
 40
0.2430662679326505
 40
0.29402279583564
 40
0.3518020593930985
 40
0.4156794341611105
 40
0.485121458881961
 40
0.559714157153641
 40
0.639124147108644
 40
0.723075456777559
 40
0.8113347242840959
 40
0.903701245370925
 40
0.9880400396243462
 40
0.9880400396243462
 40
0.9880400396243462
 40
0.9880400396243462
 10
7.876901810576428
 20
2.971753100519339
 30
0.0
 10
7.868515144131591
 20
2.958591087513676
 30
0.0
 10
7.858843759549972
 20
2.943213846153284
 30
0.0
 10
7.857096586716257
 20
2.939472154491142
 30
0.0
 10
7.852259489827848
 20
2.929604331205555
 30
0.0
 10
7.847190425103184
 20
2.917253164942478
 30
0.0
 10
7.841149022113462
 20
2.900486125951331
 30
0.0
 10
7.834898228741383
 20
2.879826620249153
 30
0.0
 10
7.828709997033561
 20
2.855017278487429
 30
0.0
 10
7.823017593292591
 20
2.826086087219492
 30
0.0
 10
7.818213045993385
 20
2.793009260045943
 30
0.0
 10
7.814687234768023
 20
2.755827100410226
 30
0.0
 10
7.81289352095343
 20
2.714558920654965
 30
0.0
 10
7.813007041999897
 20
2.671380397672875
 30
0.0
 10
7.814896639979108
 20
2.641221586407474
 30
0.0
 10
7.815849835434943
 20
2.626788676932225
 30
0.0
  0
ARC
  5
78
330
1F
100
AcDbEntity
  8
VISIBLE
100
AcDbCircle
 10
7.776122078335236
 20
3.035968657693447
 30
0.0
 40
0.11949975821644
100
AcDbArc
 50
327.4952336782775
 51
138.3871192628991
  0
ARC
  5
79
330
1F
100
AcDbEntity
  8
VISIBLE
100
AcDbCircle
 10
8.708196046035567
 20
4.270234062339402
 30
0.0
 40
1.87007874015748
100
AcDbArc
 50
220.3227708831342
 51
224.3831114698069
  0
SPLINE
  5
7A
330
1F
100
AcDbEntity
  8
VISIBLE
100
AcDbSpline
210
0.0
220
0.0
230
1.0
 70
     8
 71
     3
 72
    20
 73
    16
 74
     0
 42
0.000000001
 43
0.0000000005675814
 40
0.1082519207549105
 40
0.1082519207549105
 40
0.1082519207549105
 40
0.1082519207549105
 40
0.1666411963469485
 40
0.2000001269197105
 40
0.2430662679326505
 40
0.29402279583564
 40
0.3518020593930985
 40
0.4156794341611105
 40
0.485121458881961
 40
0.559714157153641
 40
0.639124147108644
 40
0.723075456777559
 40
0.8113347242840959
 40
0.903701245370925
 40
0.988040039624349
 40
0.988040039624349
 40
0.988040039624349
 40
0.988040039624349
 10
7.46397183084582
 20
3.359734739740972
 30
0.0
 10
7.451396829780189
 20
3.350491141490421
 30
0.0
 10
7.436823631947549
 20
3.339645998037608
 30
0.0
 10
7.433842786869749
 20
3.336788126097234
 30
0.0
 10
7.425767659425043
 20
3.329334015858232
 30
0.0
 10
7.416579141460013
 20
3.319648053704305
 30
0.0
 10
7.404888747843269
 20
3.306195661957835
 30
0.0
 10
7.391596982349604
 20
3.289189293630055
 30
0.0
 10
7.376864460177926
 20
3.268290718540332
 30
0.0
 10
7.361105300032508
 20
3.243369519531392
 30
0.0
 10
7.344676464940779
 20
3.214261899426892
 30
0.0
 10
7.327956998587763
 20
3.180864238059018
 30
0.0
 10
7.311376624252858
 20
3.143030770646214
 30
0.0
 10
7.29588459789059
 20
3.102726988526746
 30
0.0
 10
7.286751976299206
 20
3.073922133027477
 30
0.0
 10
7.282427036324198
 20
3.060119511837632
 30
0.0
  0
ARC
  5
7B
330
1F
100
AcDbEntity
  8
VISIBLE
100
AcDbCircle
 10
7.393194864112811
 20
3.456019801894258
 30
0.0
 40
0.11949975821644
100
AcDbArc
 50
306.3187630900423
 51
117.2106486746638
  0
SPLINE
  5
7C
330
1F
100
AcDbEntity
  8
VISIBLE
100
AcDbSpline
210
0.0
220
0.0
230
1.0
 70
     8
 71
     3
 72
    20
 73
    16
 74
     0
 42
0.000000001
 43
0.0000000005702015
 40
0.1082519207549098
 40
0.1082519207549098
 40
0.1082519207549098
 40
0.1082519207549098
 40
0.1666411963469485
 40
0.2000001269197105
 40
0.2430662679326505
 40
0.29402279583564
 40
0.3518020593930985
 40
0.4156794341611105
 40
0.485121458881961
 40
0.559714157153641
 40
0.639124147108644
 40
0.723075456777559
 40
0.8113347242840959
 40
0.903701245370925
 40
0.9880400396243478
 40
0.9880400396243478
 40
0.9880400396243478
 40
0.9880400396243478
 10
7.33855201974577
 20
3.562294689677153
 30
0.0
 10
7.324672329612961
 20
3.555158236620109
 30
0.0
 10
7.308468322064195
 20
3.546946941293492
 30
0.0
 10
7.304581383027976
 20
3.545552461342351
 30
0.0
 10
7.294309343142419
 20
3.541646486522547
 30
0.0
 10
7.281543150491013
 20
3.537738667382901
 30
0.0
 10
7.264290206389536
 20
3.533270103134033
 30
0.0
 10
7.243142080046732
 20
3.528952193242959
 30
0.0
 10
7.217867592575541
 20
3.525079476704366
 30
0.0
 10
7.188534587914543
 20
3.522080789309824
 30
0.0
 10
7.155155552957175
 20
3.520348681941933
 30
0.0
 10
7.117806685041893
 20
3.520268648076565
 30
0.0
 10
7.076549045035074
 20
3.522290333172939
 30
0.0
 10
7.033565188420588
 20
3.526387381438239
 30
0.0
 10
7.003709379432784
 20
3.531051622764421
 30
0.0
 10
6.989425987985863
 20
3.533332452936048
 30
0.0
  0
ARC
  5
7D
330
1F
100
AcDbEntity
  8
VISIBLE
100
AcDbCircle
 10
8.708196046035567
 20
4.270234062339402
 30
0.0
 40
1.87007874015748
100
AcDbArc
 50
199.146300294899
 51
203.2066408815715
  0
SPLINE
  5
7E
330
1F
100
AcDbEntity
  8
VISIBLE
100
AcDbSpline
210
0.0
220
0.0
230
1.0
 70
     8
 71
     3
 72
    20
 73
    16
 74
     0
 42
0.000000001
 43
0.0000000005812301
 40
0.1082519207549092
 40
0.1082519207549092
 40
0.1082519207549092
 40
0.1082519207549092
 40
0.1666411963469485
 40
0.2000001269197105
 40
0.2430662679326505
 40
0.29402279583564
 40
0.3518020593930985
 40
0.4156794341611105
 40
0.485121458881961
 40
0.559714157153641
 40
0.639124147108644
 40
0.723075456777559
 40
0.8113347242840959
 40
0.903701245370925
 40
0.9880400396243493
 40
0.9880400396243493
 40
0.9880400396243493
 40
0.9880400396243493
 10
7.219081225860968
 20
3.870684357730434
 30
0.0
 10
7.204016213748944
 20
3.866607573399279
 30
0.0
 10
7.186509393785458
 20
3.861759224572362
 30
0.0
 10
7.182697456108763
 20
3.86017114379532
 30
0.0
 10
7.172474888814993
 20
3.856137465495331
 30
0.0
 10
7.160407877876109
 20
3.850424850311212
 30
0.0
 10
7.144647346068993
 20
3.842103925857056
 30
0.0
 10
7.126109735035875
 20
3.83104749918188
 30
0.0
 10
7.104822631155353
 20
3.816882159133027
 30
0.0
 10
7.081125076507643
 20
3.799336698402372
 30
0.0
 10
7.05529075883785
 20
3.778129430752923
 30
0.0
 10
7.027635693933918
 20
3.753026806883454
 30
0.0
 10
6.998507930507651
 20
3.723737671229688
 30
0.0
 10
6.969502640741154
 20
3.69175187907904
 30
0.0
 10
6.950581210730696
 20
3.668191234694296
 30
0.0
 10
6.94156224243379
 20
3.656883022264508
 30
0.0
  0
ARC
  5
7F
330
1F
100
AcDbEntity
  8
VISIBLE
100
AcDbCircle
 10
7.187865846182147
 20
3.986035093685151
 30
0.0
 40
0.11949975821644
100
AcDbArc
 50
285.1422925018077
 51
96.03417808642867
  0
SPLINE
  5
80
330
1F
100
AcDbEntity
  8
VISIBLE
100
AcDbSpline
210
0.0
220
0.0
230
1.0
 70
     8
 71
     3
 72
    20
 73
    16
 74
     0
 42
0.000000001
 43
0.0000000006008881
 40
0.108251920754913
 40
0.108251920754913
 40
0.108251920754913
 40
0.108251920754913
 40
0.1666411963469485
 40
0.2000001269197105
 40
0.2430662679326505
 40
0.29402279583564
 40
0.3518020593930985
 40
0.4156794341611105
 40
0.485121458881961
 40
0.559714157153641
 40
0.639124147108644
 40
0.723075456777559
 40
0.8113347242840959
 40
0.903701245370925
 40
0.9880400396243489
 40
0.9880400396243489
 40
0.9880400396243489
 40
0.9880400396243489
 10
7.175303828810762
 20
4.10487274737012
 30
0.0
 10
7.159783419016188
 20
4.103232125467716
 30
0.0
 10
7.141707369966564
 20
4.101428883294034
 30
0.0
 10
7.137579162996888
 20
4.101532693798945
 30
0.0
 10
7.126589770212279
 20
4.101601169554125
 30
0.0
 10
7.113273982992454
 20
4.102568917433129
 30
0.0
 10
7.095571860147637
 20
4.104634587639603
 30
0.0
 10
7.074292010665538
 20
4.108247840973917
 30
0.0
 10
7.049325266411153
 20
4.113766838315443
 30
0.0
 10
7.020889803329005
 20
4.121566949073382
 30
0.0
 10
6.989139070835352
 20
4.132009705258196
 30
0.0
 10
6.954283377137783
 20
4.145427043177248
 30
0.0
 10
6.916542090473379
 20
4.162216187005232
 30
0.0
 10
6.87794086240948
 20
4.181564130717719
 30
0.0
 10
6.851786067950119
 20
4.196698568409744
 30
0.0
 10
6.839291132975643
 20
4.203985135329863
 30
0.0
  0
ARC
  5
81
330
1F
100
AcDbEntity
  8
VISIBLE
100
AcDbCircle
 10
8.708196046035567
 20
4.270234062339402
 30
0.0
 40
1.87007874015748
100
AcDbArc
 50
177.9698297066637
 51
182.0301702933363
  0
SPLINE
  5
82
330
1F
100
AcDbEntity
  8
VISIBLE
100
AcDbSpline
210
0.0
220
0.0
230
1.0
 70
     8
 71
     3
 72
    20
 73
    16
 74
     0
 42
0.000000001
 43
0.0000000006175616
 40
0.1082519207549107
 40
0.1082519207549107
 40
0.1082519207549107
 40
0.1082519207549107
 40
0.1666411963469485
 40
0.2000001269197105
 40
0.2430662679326505
 40
0.29402279583564
 40
0.3518020593930985
 40
0.4156794341611105
 40
0.485121458881961
 40
0.559714157153641
 40
0.639124147108644
 40
0.723075456777559
 40
0.8113347242840959
 40
0.903701245370925
 40
0.9880400396243498
 40
0.9880400396243498
 40
0.9880400396243498
 40
0.9880400396243498
 10
7.175303828810764
 20
4.435595377308682
 30
0.0
 10
7.159783419016189
 20
4.437235999211087
 30
0.0
 10
7.141707369966564
 20
4.439039241384769
 30
0.0
 10
7.137579162996888
 20
4.438935430879857
 30
0.0
 10
7.126589770212279
 20
4.438866955124678
 30
0.0
 10
7.113273982992454
 20
4.437899207245674
 30
0.0
 10
7.095571860147637
 20
4.4358335370392
 30
0.0
 10
7.074292010665538
 20
4.432220283704886
 30
0.0
 10
7.049325266411153
 20
4.42670128636336
 30
0.0
 10
7.020889803329005
 20
4.41890117560542
 30
0.0
 10
6.989139070835352
 20
4.408458419420607
 30
0.0
 10
6.954283377137783
 20
4.395041081501554
 30
0.0
 10
6.916542090473379
 20
4.378251937673571
 30
0.0
 10
6.87794086240948
 20
4.358903993961083
 30
0.0
 10
6.851786067950121
 20
4.343769556269058
 30
0.0
 10
6.839291132975643
 20
4.33648298934894
 30
0.0
  0
ARC
  5
83
330
1F
100
AcDbEntity
  8
VISIBLE
100
AcDbCircle
 10
7.187865846182147
 20
4.554433030993652
 30
0.0
 40
0.11949975821644
100
AcDbArc
 50
263.9658219135722
 51
74.85770749819316
  0
SPLINE
  5
84
330
1F
100
AcDbEntity
  8
VISIBLE
100
AcDbSpline
210
0.0
220
0.0
230
1.0
 70
     8
 71
     3
 72
    20
 73
    16
 74
     0
 42
0.000000001
 43
0.0000000006530701
 40
0.108251920754912
 40
0.108251920754912
 40
0.108251920754912
 40
0.108251920754912
 40
0.1666411963469485
 40
0.2000001269197105
 40
0.2430662679326505
 40
0.29402279583564
 40
0.3518020593930985
 40
0.4156794341611105
 40
0.485121458881961
 40
0.559714157153641
 40
0.639124147108644
 40
0.723075456777559
 40
0.8113347242840959
 40
0.903701245370925
 40
0.9880400396243469
 40
0.9880400396243469
 40
0.9880400396243469
 40
0.9880400396243469
 10
7.219081225860966
 20
4.669783766948368
 30
0.0
 10
7.204016213748943
 20
4.673860551279523
 30
0.0
 10
7.186509393785458
 20
4.67870890010644
 30
0.0
 10
7.182697456108763
 20
4.680296980883482
 30
0.0
 10
7.172474888814993
 20
4.684330659183471
 30
0.0
 10
7.160407877876109
 20
4.690043274367591
 30
0.0
 10
7.144647346068993
 20
4.698364198821747
 30
0.0
 10
7.126109735035875
 20
4.709420625496923
 30
0.0
 10
7.104822631155353
 20
4.723585965545776
 30
0.0
 10
7.081125076507643
 20
4.74113142627643
 30
0.0
 10
7.05529075883785
 20
4.76233869392588
 30
0.0
 10
7.027635693933918
 20
4.787441317795349
 30
0.0
 10
6.998507930507651
 20
4.816730453449115
 30
0.0
 10
6.969502640741154
 20
4.848716245599762
 30
0.0
 10
6.950581210730694
 20
4.872276889984507
 30
0.0
 10
6.94156224243379
 20
4.883585102414294
 30
0.0
  0
ARC
  5
85
330
1F
100
AcDbEntity
  8
VISIBLE
100
AcDbCircle
 10
8.708196046035567
 20
4.270234062339402
 30
0.0
 40
1.87007874015748
100
AcDbArc
 50
156.7933591184284
 51
160.853699705101
  0
SPLINE
  5
86
330
1F
100
AcDbEntity
  8
VISIBLE
100
AcDbSpline
210
0.0
220
0.0
230
1.0
 70
     8
 71
     3
 72
    20
 73
    16
 74
     0
 42
0.000000001
 43
0.00000000067101
 40
0.1082519207549112
 40
0.1082519207549112
 40
0.1082519207549112
 40
0.1082519207549112
 40
0.1666411963469485
 40
0.2000001269197105
 40
0.2430662679326505
 40
0.29402279583564
 40
0.3518020593930985
 40
0.4156794341611105
 40
0.485121458881961
 40
0.559714157153641
 40
0.639124147108644
 40
0.723075456777559
 40
0.8113347242840959
 40
0.903701245370925
 40
0.9880400396243478
 40
0.9880400396243478
 40
0.9880400396243478
 40
0.9880400396243478
 10
7.338552019745769
 20
4.978173435001651
 30
0.0
 10
7.324672329612961
 20
4.985309888058694
 30
0.0
 10
7.308468322064196
 20
4.993521183385311
 30
0.0
 10
7.304581383027978
 20
4.994915663336451
 30
0.0
 10
7.294309343142419
 20
4.998821638156257
 30
0.0
 10
7.281543150491015
 20
5.002729457295904
 30
0.0
 10
7.264290206389539
 20
5.00719802154477
 30
0.0
 10
7.243142080046732
 20
5.011515931435845
 30
0.0
 10
7.217867592575541
 20
5.015388647974439
 30
0.0
 10
7.188534587914544
 20
5.018387335368979
 30
0.0
 10
7.155155552957176
 20
5.020119442736871
 30
0.0
 10
7.117806685041895
 20
5.020199476602239
 30
0.0
 10
7.076549045035074
 20
5.018177791505865
 30
0.0
 10
7.033565188420588
 20
5.014080743240565
 30
0.0
 10
7.003709379432784
 20
5.009416501914384
 30
0.0
 10
6.989425987985863
 20
5.007135671742756
 30
0.0
  0
ARC
  5
87
330
1F
100
AcDbEntity
  8
VISIBLE
100
AcDbCircle
 10
7.393194864112811
 20
5.084448322784546
 30
0.0
 40
0.11949975821644
100
AcDbArc
 50
242.7893513253362
 51
53.68123690995861
  0
SPLINE
  5
88
330
1F
100
AcDbEntity
  8
VISIBLE
100
AcDbSpline
210
0.0
220
0.0
230
1.0
 70
     8
 71
     3
 72
    20
 73
    16
 74
     0
 42
0.000000001
 43
0.0000000007138716
 40
0.1082519207549131
 40
0.1082519207549131
 40
0.1082519207549131
 40
0.1082519207549131
 40
0.1666411963469485
 40
0.2000001269197105
 40
0.2430662679326505
 40
0.29402279583564
 40
0.3518020593930985
 40
0.4156794341611105
 40
0.485121458881961
 40
0.559714157153641
 40
0.639124147108644
 40
0.723075456777559
 40
0.8113347242840959
 40
0.903701245370925
 40
0.988040039624345
 40
0.988040039624345
 40
0.988040039624345
 40
0.988040039624345
 10
7.463971830845818
 20
5.180733384937834
 30
0.0
 10
7.451396829780188
 20
5.189976983188384
 30
0.0
 10
7.436823631947549
 20
5.200822126641196
 30
0.0
 10
7.433842786869749
 20
5.203679998581569
 30
0.0
 10
7.425767659425043
 20
5.211134108820572
 30
0.0
 10
7.416579141460013
 20
5.220820070974498
 30
0.0
 10
7.404888747843269
 20
5.234272462720968
 30
0.0
 10
7.391596982349604
 20
5.251278831048748
 30
0.0
 10
7.376864460177928
 20
5.272177406138471
 30
0.0
 10
7.361105300032508
 20
5.297098605147411
 30
0.0
 10
7.344676464940781
 20
5.326206225251913
 30
0.0
 10
7.327956998587766
 20
5.359603886619785
 30
0.0
 10
7.311376624252858
 20
5.397437354032591
 30
0.0
 10
7.29588459789059
 20
5.437741136152058
 30
0.0
 10
7.286751976299206
 20
5.466545991651325
 30
0.0
 10
7.282427036324199
 20
5.48034861284117
 30
0.0
  0
ARC
  5
89
330
1F
100
AcDbEntity
  8
VISIBLE
100
AcDbCircle
 10
8.708196046035567
 20
4.270234062339402
 30
0.0
 40
1.87007874015748
100
AcDbArc
 50
135.6168885301931
 51
139.6772291168657
  0
SPLINE
  5
8A
330
1F
100
AcDbEntity
  8
VISIBLE
100
AcDbSpline
210
0.0
220
0.0
230
1.0
 70
     8
 71
     3
 72
    20
 73
    16
 74
     0
 42
0.000000001
 43
0.000000000735411
 40
0.1082519207549101
 40
0.1082519207549101
 40
0.1082519207549101
 40
0.1082519207549101
 40
0.1666411963469485
 40
0.2000001269197105
 40
0.2430662679326505
 40
0.29402279583564
 40
0.3518020593930985
 40
0.4156794341611105
 40
0.485121458881961
 40
0.559714157153641
 40
0.639124147108644
 40
0.723075456777559
 40
0.8113347242840959
 40
0.903701245370925
 40
0.9880400396243478
 40
0.9880400396243478
 40
0.9880400396243478
 40
0.9880400396243478
 10
7.686778225890761
 20
5.425140357589097
 30
0.0
 10
7.676413784482172
 20
5.436808824270975
 30
0.0
 10
7.664270259443231
 20
5.450319191816308
 30
0.0
 10
7.661149540995584
 20
5.45302362997902
 30
0.0
 10
7.652982149914958
 20
5.460376531830642
 30
0.0
 10
7.642489696889462
 20
5.468632145360155
 30
0.0
 10
7.628016037234094
 20
5.479031439701384
 30
0.0
 10
7.609855805678992
 20
5.490697355160693
 30
0.0
 10
7.587687034574749
 20
5.503438753751405
 30
0.0
 10
7.561418073154159
 20
5.516831249949494
 30
0.0
 10
7.530918759363688
 20
5.53050429017212
 30
0.0
 10
7.496120888799873
 20
5.544070886804907
 30
0.0
 10
7.456918968350031
 20
5.55708970021495
 30
0.0
 10
7.415357691202519
 20
5.568796876467597
 30
0.0
 10
7.385833060126822
 20
5.575232763143811
 30
0.0
 10
7.371690263369368
 20
5.57826570847387
 30
0.0
  0
ARC
  5
8B
330
1F
100
AcDbEntity
  8
VISIBLE
100
AcDbCircle
 10
7.776122078335236
 20
5.504499466985356
 30
0.0
 40
0.11949975821644
100
AcDbArc
 50
221.6128807371012
 51
32.50476632172251
  0
SPLINE
  5
8C
330
1F
100
AcDbEntity
  8
VISIBLE
100
AcDbSpline
210
0.0
220
0.0
230
1.0
 70
     8
 71
     3
 72
    20
 73
    16
 74
     0
 42
0.000000001
 43
0.0000000007730186
 40
0.1082519207549124
 40
0.1082519207549124
 40
0.1082519207549124
 40
0.1082519207549124
 40
0.1666411963469485
 40
0.2000001269197105
 40
0.2430662679326505
 40
0.29402279583564
 40
0.3518020593930985
 40
0.4156794341611105
 40
0.485121458881961
 40
0.559714157153641
 40
0.639124147108644
 40
0.723075456777559
 40
0.8113347242840959
 40
0.903701245370925
 40
0.9880400396243461
 40
0.9880400396243461
 40
0.9880400396243461
 40
0.9880400396243461
 10
7.876901810576429
 20
5.568715024159465
 30
0.0
 10
7.868515144131592
 20
5.581877037165127
 30
0.0
 10
7.858843759549973
 20
5.597254278525519
 30
0.0
 10
7.857096586716258
 20
5.600995970187661
 30
0.0
 10
7.852259489827849
 20
5.61086379347325
 30
0.0
 10
7.847190425103184
 20
5.623214959736325
 30
0.0
 10
7.841149022113463
 20
5.639981998727473
 30
0.0
 10
7.834898228741383
 20
5.66064150442965
 30
0.0
 10
7.828709997033561
 20
5.685450846191374
 30
0.0
 10
7.823017593292592
 20
5.714382037459313
 30
0.0
 10
7.818213045993385
 20
5.74745886463286
 30
0.0
 10
7.814687234768023
 20
5.784641024268577
 30
0.0
 10
7.812893520953432
 20
5.825909204023839
 30
0.0
 10
7.813007041999897
 20
5.869087727005928
 30
0.0
 10
7.81489663997911
 20
5.899246538271329
 30
0.0
 10
7.815849835434943
 20
5.913679447746578
 30
0.0
  0
ARC
  5
8D
330
1F
100
AcDbEntity
  8
VISIBLE
100
AcDbCircle
 10
8.708196046035567
 20
4.270234062339402
 30
0.0
 40
1.87007874015748
100
AcDbArc
 50
114.4404179419578
 51
118.5007585286304
  0
ARC
  5
8E
330
1F
100
AcDbEntity
  8
VISIBLE
100
AcDbCircle
 10
8.284931046695743
 20
5.757856228988024
 30
0.0
 40
0.11949975821644
100
AcDbArc
 50
200.4364101488663
 51
11.32829573348675
  0
SPLINE
  5
8F
330
1F
100
AcDbEntity
  8
VISIBLE
100
AcDbSpline
210
0.0
220
0.0
230
1.0
 70
     8
 71
     3
 72
    20
 73
    16
 74
     0
 42
0.000000001
 43
0.0000000008272537
 40
0.1082519207549103
 40
0.1082519207549103
 40
0.1082519207549103
 40
0.1082519207549103
 40
0.1666411963469485
 40
0.2000001269197105
 40
0.2430662679326505
 40
0.29402279583564
 40
0.3518020593930985
 40
0.4156794341611105
 40
0.485121458881961
 40
0.559714157153641
 40
0.639124147108644
 40
0.723075456777559
 40
0.8113347242840959
 40
0.903701245370925
 40
0.988040039624347
 40
0.988040039624347
 40
0.988040039624347
 40
0.988040039624347
 10
8.402102683166172
 20
5.781329614355903
 30
0.0
 10
8.399037017117626
 20
5.796632439327031
 30
0.0
 10
8.395573619865768
 20
5.814464996941045
 30
0.0
 10
8.395296084648749
 20
5.818585172132555
 30
0.0
 10
8.394350295054696
 20
5.829534004250512
 30
0.0
 10
8.394085288850121
 20
5.842882281178735
 30
0.0
 10
8.394508801437752
 20
5.860699485889436
 30
0.0
 10
8.396143184469
 20
5.882221948242657
 30
0.0
 10
8.399334998207348
 20
5.907591417598153
 30
0.0
 10
8.404478141538746
 20
5.93662528343109
 30
0.0
 10
8.411946762767734
 20
5.96920410887887
 30
0.0
 10
8.422090787013204
 20
6.005149110090167
 30
0.0
 10
8.4353259847089
 20
6.044278505837063
 30
0.0
 10
8.451029721517733
 20
6.084500270892587
 30
0.0
 10
8.463686338389824
 20
6.111939923346986
 30
0.0
 10
8.469788934948351
 20
6.125053876707494
 30
0.0
  0
ARC
  5
90
330
1F
100
AcDbEntity
  8
VISIBLE
100
AcDbCircle
 10
8.708196046035567
 20
4.270234062339402
 30
0.0
 40
1.87007874015748
100
AcDbArc
 50
93.26394735372246
 51
97.32428794039508
  0
ARC
  5
91
330
1F
100
AcDbEntity
  8
VISIBLE
100
AcDbCircle
 10
8.850904298609418
 20
5.810301374185803
 30
0.0
 40
0.11949975821644
100
AcDbArc
 50
179.2599395606309
 51
350.1518251452519
  0
ARC
  5
92
330
1F
100
AcDbEntity
  8
VISIBLE
100
AcDbCircle
 10
8.708196046035567
 20
4.270234062339402
 30
0.0
 40
1.87007874015748
100
AcDbArc
 50
72.08747676548721
 51
76.14781735215985
  0
SPLINE
  5
93
330
1F
100
AcDbEntity
  8
VISIBLE
100
AcDbSpline
210
0.0
220
0.0
230
1.0
 70
     8
 71
     3
 72
    20
 73
    16
 74
     0
 42
0.000000001
 43
0.0000000008800663
 40
0.1082519207549092
 40
0.1082519207549092
 40
0.1082519207549092
 40
0.1082519207549092
 40
0.1666411963469485
 40
0.2000001269197105
 40
0.2430662679326505
 40
0.29402279583564
 40
0.3518020593930985
 40
0.4156794341611105
 40
0.485121458881961
 40
0.559714157153641
 40
0.639124147108644
 40
0.723075456777559
 40
0.8113347242840959
 40
0.903701245370925
 40
0.9880400396243474
 40
0.9880400396243474
 40
0.9880400396243474
 40
0.9880400396243474
 10
9.286740666785764
 20
5.699355833189512
 30
0.0
 10
9.292566020753775
 20
5.713834783827096
 30
0.0
 10
9.299247170948885
 20
5.7307273106852
 30
0.0
 10
9.300277060806188
 20
5.734726335102136
 30
0.0
 10
9.303218589157431
 20
5.745314954165179
 30
0.0
 10
9.305931822577021
 20
5.758387256550445
 30
0.0
 10
9.308789423870433
 20
5.775978909726391
 30
0.0
 10
9.311137611395765
 20
5.797435228352488
 30
0.0
 10
9.312661772113103
 20
5.822959228517577
 30
0.0
 10
9.312941159417672
 20
5.852443787718389
 30
0.0
 10
9.311586049124909
 20
5.885840252302437
 30
0.0
 10
9.308219622809563
 20
5.923037181125071
 30
0.0
 10
9.30239978710664
 20
5.963932285745947
 30
0.0
 10
9.294354166193727
 20
6.006354752883874
 30
0.0
 10
9.286955075183005
 20
6.035652840358658
 30
0.0
 10
9.283366069534413
 20
6.049664852917608
 30
0.0
  0
ARC
  5
94
330
1F
100
AcDbEntity
  8
VISIBLE
100
AcDbCircle
 10
9.39760401023927
 20
5.654751895111156
 30
0.0
 40
0.11949975821644
100
AcDbArc
 50
158.0834689723969
 51
328.9753545570158
  0
SPLINE
  5
95
330
1F
100
AcDbEntity
  8
VISIBLE
100
AcDbSpline
210
0.0
220
0.0
230
1.0
 70
     8
 71
     3
 72
    20
 73
    16
 74
     0
 42
0.000000001
 43
0.0000000008980441
 40
0.1082519207549128
 40
0.1082519207549128
 40
0.1082519207549128
 40
0.1082519207549128
 40
0.1666411963469485
 40
0.2000001269197105
 40
0.2430662679326505
 40
0.29402279583564
 40
0.3518020593930985
 40
0.4156794341611105
 40
0.485121458881961
 40
0.559714157153641
 40
0.639124147108644
 40
0.723075456777559
 40
0.8113347242840959
 40
0.903701245370925
 40
0.9880400396243441
 40
0.9880400396243441
 40
0.9880400396243441
 40
0.9880400396243441
 10
9.500008811900232
 20
5.593160915166308
 30
0.0
 10
9.50805270387167
 20
5.606535165140418
 30
0.0
 10
9.517506938798306
 20
5.622046859874821
 30
0.0
 10
9.520077581875668
 20
5.625278680348522
 30
0.0
 10
9.526754815432733
 20
5.634007139246165
 30
0.0
 10
9.535551649501166
 20
5.644050168451213
 30
0.0
 10
9.54786800227554
 20
5.656931923027051
 30
0.0
 10
9.563575415037699
 20
5.671736137898425
 30
0.0
 10
9.583025494838868
 20
5.688334090966437
 30
0.0
 10
9.606386312553184
 20
5.706325463461352
 30
0.0
 10
9.63385390302004
 20
5.725369928393823
 30
0.0
 10
9.665566418120864
 20
5.74509961987526
 30
0.0
 10
9.701708650692368
 20
5.76510009722728
 30
0.0
 10
9.740411080125462
 20
5.784244801192584
 30
0.0
 10
9.768250407177486
 20
5.795996241391789
 30
0.0
 10
9.781595093702398
 20
5.801576277148809
 30
0.0
  0
ARC
  5
96
330
1F
100
AcDbEntity
  8
VISIBLE
100
AcDbCircle
 10
8.708196046035567
 20
4.270234062339402
 30
0.0
 40
1.87007874015748
100
AcDbArc
 50
50.91100617725193
 51
54.97134676392456
  0
ARC
  5
97
330
1F
100
AcDbEntity
  8
VISIBLE
100
AcDbCircle
 10
9.851195356162005
 20
5.312215610842528
 30
0.0
 40
0.11949975821644
100
AcDbArc
 50
136.9069983841606
 51
307.7988839687809
  0
SPLINE
  5
98
330
1F
100
AcDbEntity
  8
VISIBLE
100
AcDbSpline
210
0.0
220
0.0
230
1.0
 70
     8
 71
     3
 72
    20
 73
    16
 74
     0
 42
0.000000001
 43
0.0000000009052149
 40
0.1082519207549104
 40
0.1082519207549104
 40
0.1082519207549104
 40
0.1082519207549104
 40
0.1666411963469485
 40
0.2000001269197105
 40
0.2430662679326505
 40
0.29402279583564
 40
0.3518020593930985
 40
0.4156794341611105
 40
0.485121458881961
 40
0.559714157153641
 40
0.639124147108644
 40
0.723075456777559
 40
0.8113347242840959
 40
0.903701245370925
 40
0.9880400396243492
 40
0.9880400396243492
 40
0.9880400396243492
 40
0.9880400396243492
 10
9.924435761651136
 20
5.217790851284585
 30
0.0
 10
9.936767803875483
 20
5.227356179036164
 30
0.0
 10
9.95118708584608
 20
5.238405140029569
 30
0.0
 10
9.954751607340167
 20
5.240490099483278
 30
0.0
 10
9.964131025236808
 20
5.246217050035152
 30
0.0
 10
9.975961789315896
 20
5.252404112871903
 30
0.0
 10
9.992099872731936
 20
5.259966811482311
 30
0.0
 10
10.01209449817517
 20
5.268097158770311
 30
0.0
 10
10.03622702967104
 20
5.276548109836343
 30
0.0
 10
10.06450957682287
 20
5.284885664342106
 30
0.0
 10
10.09700199638572
 20
5.292721660869106
 30
0.0
 10
10.13370022266592
 20
5.299663168476256
 30
0.0
 10
10.1746268566107
 20
5.30525697786799
 30
0.0
 10
10.21763166202663
 20
5.309127952561902
 30
0.0
 10
10.24783617122561
 20
5.310029119313365
 30
0.0
 10
10.26229546223445
 20
5.310411690900865
 30
0.0
  0
ARC
  5
99
330
1F
100
AcDbEntity
  8
VISIBLE
100
AcDbCircle
 10
8.708196046035567
 20
4.270234062339402
 30
0.0
 40
1.87007874015748
100
AcDbArc
 50
29.73453558901659
 51
33.79487617568925
  0
SPLINE
  5
9A
330
1F
100
AcDbEntity
  8
VISIBLE
100
AcDbSpline
210
0.0
220
0.0
230
1.0
 70
     8
 71
     3
 72
    20
 73
    16
 74
     0
 42
0.000000001
 43
0.0000000009042987
 40
0.1082519207549116
 40
0.1082519207549116
 40
0.1082519207549116
 40
0.1082519207549116
 40
0.1666411963469485
 40
0.2000001269197105
 40
0.2430662679326505
 40
0.29402279583564
 40
0.3518020593930985
 40
0.4156794341611105
 40
0.485121458881961
 40
0.559714157153641
 40
0.639124147108644
 40
0.723075456777559
 40
0.8113347242840959
 40
0.903701245370925
 40
0.9880400396243475
 40
0.9880400396243475
 40
0.9880400396243475
 40
0.9880400396243475
 10
10.09853879104218
 20
4.936604804137256
 30
0.0
 10
10.11259818553962
 20
4.943380362179481
 30
0.0
 10
10.12891603686558
 20
4.951363028381015
 30
0.0
 10
10.13237125998241
 20
4.953624510775013
 30
0.0
 10
10.14167858219925
 20
4.959467899847758
 30
0.0
 10
10.15249043906021
 20
4.9673005543441
 30
0.0
 10
10.16645365200707
 20
4.978375789367128
 30
0.0
 10
10.18264401191469
 20
4.99265023645626
 30
0.0
 10
10.20096578799574
 20
5.010485879745914
 30
0.0
 10
10.2210358767936
 20
5.032087009905657
 30
0.0
 10
10.2425334909069
 20
5.057680226937807
 30
0.0
 10
10.26510508074553
 20
5.087437035774261
 30
0.0
 10
10.28835502409387
 20
5.121579680719558
 30
0.0
 10
10.31098906979821
 20
5.158350561984448
 30
0.0
 10
10.3252590694609
 20
5.184986845266693
 30
0.0
 10
10.33204659410232
 20
5.197759744966444
 30
0.0
  0
ARC
  5
9B
330
1F
100
AcDbEntity
  8
VISIBLE
100
AcDbCircle
 10
10.15041831167435
 20
4.828953944629474
 30
0.0
 40
0.11949975821644
100
AcDbArc
 50
115.7305277959249
 51
286.6224133805459
  0
SPLINE
  5
9C
330
1F
100
AcDbEntity
  8
VISIBLE
100
AcDbSpline
210
0.0
220
0.0
230
1.0
 70
     8
 71
     3
 72
    20
 73
    16
 74
     0
 42
0.000000001
 43
0.0000000008950847
 40
0.1082519207549113
 40
0.1082519207549113
 40
0.1082519207549113
 40
0.1082519207549113
 40
0.1666411963469485
 40
0.2000001269197105
 40
0.2430662679326505
 40
0.29402279583564
 40
0.3518020593930985
 40
0.4156794341611105
 40
0.485121458881961
 40
0.559714157153641
 40
0.639124147108644
 40
0.723075456777559
 40
0.8113347242840959
 40
0.903701245370925
 40
0.9880400396243497
 40
0.9880400396243497
 40
0.9880400396243497
 40
0.9880400396243497
 10
10.18460279839124
 20
4.714447992462393
 30
0.0
 10
10.1995574802319
 20
4.718912547475277
 30
0.0
 10
10.21699440531632
 20
4.72400655132112
 30
0.0
 10
10.22107139684766
 20
4.724663064427451
 30
0.0
 10
10.23188625672379
 20
4.726615050227399
 30
0.0
 10
10.24515314056813
 20
4.728110549576052
 30
0.0
 10
10.26293341703629
 20
4.729332807867334
 30
0.0
 10
10.28451487020045
 20
4.729691239118907
 30
0.0
 10
10.31007062128953
 20
4.728853840413151
 30
0.0
 10
10.33945518316702
 20
4.726411543993778
 30
0.0
 10
10.37258415051718
 20
4.721980777363581
 30
0.0
 10
10.40931178916572
 20
4.715196612029873
 30
0.0
 10
10.44949545578723
 20
4.705628278506603
 30
0.0
 10
10.49099459991672
 20
4.693702727346897
 30
0.0
 10
10.51948500492637
 20
4.683631913087294
 30
0.0
 10
10.53310609304669
 20
4.67876535209248
 30
0.0
  0
ARC
  5
9D
330
1F
100
AcDbEntity
  8
VISIBLE
100
AcDbCircle
 10
8.708196046035567
 20
4.270234062339402
 30
0.0
 40
1.87007874015748
100
AcDbArc
 50
8.558065000781328
 51
12.61840558745393
  0
SPLINE
  5
9E
330
1F
100
AcDbEntity
  8
VISIBLE
100
AcDbSpline
210
0.0
220
0.0
230
1.0
 70
     8
 71
     3
 72
    20
 73
    16
 74
     0
 42
0.000000001
 43
0.000000000887717
 40
0.1082519207549103
 40
0.1082519207549103
 40
0.1082519207549103
 40
0.1082519207549103
 40
0.1666411963469485
 40
0.2000001269197105
 40
0.2430662679326505
 40
0.29402279583564
 40
0.3518020593930985
 40
0.4156794341611105
 40
0.485121458881961
 40
0.559714157153641
 40
0.639124147108644
 40
0.723075456777559
 40
0.8113347242840959
 40
0.903701245370925
 40
0.9880400396243478
 40
0.9880400396243478
 40
0.9880400396243478
 40
0.9880400396243478
 10
10.24537292217348
 20
4.389356543776072
 30
0.0
 10
10.26093053098111
 20
4.390595724395326
 30
0.0
 10
10.27903014582537
 20
4.392144651143277
 30
0.0
 10
10.28306898709627
 20
4.393005250117196
 30
0.0
 10
10.29385868219841
 20
4.395091855567786
 30
0.0
 10
10.30676991963047
 20
4.398489895181115
 30
0.0
 10
10.32379106428982
 20
4.403773149963961
 30
0.0
 10
10.34404465033812
 20
4.41123504287548
 30
0.0
 10
10.36757217522653
 20
4.421247696017621
 30
0.0
 10
10.39409020392265
 20
4.434139997697465
 30
0.0
 10
10.42338146844553
 20
4.450239127899726
 30
0.0
 10
10.45517824834806
 20
4.469832727053614
 30
0.0
 10
10.48919192080368
 20
4.493270947029607
 30
0.0
 10
10.52358071427735
 20
4.51938241227705
 30
0.0
 10
10.54650922803032
 20
4.53906508827765
 30
0.0
 10
10.55745250983442
 20
4.548523525825884
 30
0.0
  0
ARC
  5
9F
330
1F
100
AcDbEntity
  8
VISIBLE
100
AcDbCircle
 10
10.25486115858272
 20
4.270234062339402
 30
0.0
 40
0.11949975821644
100
AcDbArc
 50
94.5540572076903
 51
265.4459427923114
  0
ARC
  5
A0
330
1F
100
AcDbEntity
  8
VISIBLE
100
AcDbCircle
 10
8.708196046035567
 20
4.270234062339402
 30
0.0
 40
1.87007874015748
100
AcDbArc
 50
347.3815944125461
 51
351.4419349992186
  0
SPLINE
  5
A1
330
1F
100
AcDbEntity
  8
VISIBLE
100
AcDbSpline
210
0.0
220
0.0
230
1.0
 70
     8
 71
     3
 72
    20
 73
    16
 74
     0
 42
0.000000001
 43
0.0000000008524109
 40
0.1082519207549112
 40
0.1082519207549112
 40
0.1082519207549112
 40
0.1082519207549112
 40
0.1666411963469485
 40
0.2000001269197105
 40
0.2430662679326505
 40
0.29402279583564
 40
0.3518020593930985
 40
0.4156794341611105
 40
0.485121458881961
 40
0.559714157153641
 40
0.639124147108644
 40
0.723075456777559
 40
0.8113347242840959
 40
0.903701245370925
 40
0.9880400396243497
 40
0.9880400396243497
 40
0.9880400396243497
 40
0.9880400396243497
 10
10.18460279839124
 20
3.82602013221641
 30
0.0
 10
10.1995574802319
 20
3.821555577203526
 30
0.0
 10
10.21699440531632
 20
3.816461573357684
 30
0.0
 10
10.22107139684766
 20
3.815805060251351
 30
0.0
 10
10.23188625672379
 20
3.813853074451405
 30
0.0
 10
10.24515314056813
 20
3.812357575102751
 30
0.0
 10
10.26293341703629
 20
3.811135316811467
 30
0.0
 10
10.28451487020045
 20
3.810776885559897
 30
0.0
 10
10.31007062128953
 20
3.811614284265652
 30
0.0
 10
10.33945518316702
 20
3.814056580685025
 30
0.0
 10
10.37258415051718
 20
3.818487347315223
 30
0.0
 10
10.40931178916572
 20
3.82527151264893
 30
0.0
 10
10.44949545578723
 20
3.834839846172201
 30
0.0
 10
10.49099459991672
 20
3.846765397331906
 30
0.0
 10
10.51948500492637
 20
3.856836211591509
 30
0.0
 10
10.53310609304669
 20
3.861702772586323
 30
0.0
  0
ARC
  5
A2
330
1F
100
AcDbEntity
  8
VISIBLE
100
AcDbCircle
 10
10.15041831167435
 20
3.711514180049329
 30
0.0
 40
0.11949975821644
100
AcDbArc
 50
73.37758661945415
 51
244.2694722040751
  0
SPLINE
  5
A3
330
1F
100
AcDbEntity
  8
VISIBLE
100
AcDbSpline
210
0.0
220
0.0
230
1.0
 70
     8
 71
     3
 72
    20
 73
    16
 74
     0
 42
0.000000001
 43
0.0000000008230841
 40
0.1082519207549113
 40
0.1082519207549113
 40
0.1082519207549113
 40
0.1082519207549113
 40
0.1666411963469485
 40
0.2000001269197105
 40
0.2430662679326505
 40
0.29402279583564
 40
0.3518020593930985
 40
0.4156794341611105
 40
0.485121458881961
 40
0.559714157153641
 40
0.639124147108644
 40
0.723075456777559
 40
0.8113347242840959
 40
0.903701245370925
 40
0.9880400396243475
 40
0.9880400396243475
 40
0.9880400396243475
 40
0.9880400396243475
 10
10.09853879104218
 20
3.603863320541546
 30
0.0
 10
10.11259818553962
 20
3.597087762499322
 30
0.0
 10
10.12891603686558
 20
3.589105096297788
 30
0.0
 10
10.13237125998241
 20
3.58684361390379
 30
0.0
 10
10.14167858219925
 20
3.581000224831044
 30
0.0
 10
10.15249043906021
 20
3.573167570334702
 30
0.0
 10
10.16645365200707
 20
3.562092335311674
 30
0.0
 10
10.18264401191469
 20
3.547817888222543
 30
0.0
 10
10.20096578799574
 20
3.529982244932889
 30
0.0
 10
10.2210358767936
 20
3.508381114773146
 30
0.0
 10
10.2425334909069
 20
3.482787897740996
 30
0.0
 10
10.26510508074553
 20
3.453031088904541
 30
0.0
 10
10.28835502409387
 20
3.418888443959245
 30
0.0
 10
10.31098906979821
 20
3.382117562694355
 30
0.0
 10
10.3252590694609
 20
3.35548127941211
 30
0.0
 10
10.33204659410232
 20
3.342708379712359
 30
0.0
  0
ARC
  5
A4
330
1F
100
AcDbEntity
  8
VISIBLE
100
AcDbCircle
 10
8.708196046035567
 20
4.270234062339402
 30
0.0
 40
1.87007874015748
100
AcDbArc
 50
326.2051238243107
 51
330.2654644109834
  0
SPLINE
  5
A5
330
1F
100
AcDbEntity
  8
VISIBLE
100
AcDbSpline
210
0.0
220
0.0
230
1.0
 70
     8
 71
     3
 72
    20
 73
    16
 74
     0
 42
0.000000001
 43
0.0000000008048672
 40
0.1082519207549096
 40
0.1082519207549096
 40
0.1082519207549096
 40
0.1082519207549096
 40
0.1666411963469485
 40
0.2000001269197105
 40
0.2430662679326505
 40
0.29402279583564
 40
0.3518020593930985
 40
0.4156794341611105
 40
0.485121458881961
 40
0.559714157153641
 40
0.639124147108644
 40
0.723075456777559
 40
0.8113347242840959
 40
0.903701245370925
 40
0.9880400396243474
 40
0.9880400396243474
 40
0.9880400396243474
 40
0.9880400396243474
 10
9.924435761651136
 20
3.322677273394217
 30
0.0
 10
9.936767803875483
 20
3.313111945642639
 30
0.0
 10
9.95118708584608
 20
3.302062984649233
 30
0.0
 10
9.954751607340167
 20
3.299978025195526
 30
0.0
 10
9.964131025236808
 20
3.29425107464365
 30
0.0
 10
9.975961789315896
 20
3.288064011806899
 30
0.0
 10
9.992099872731936
 20
3.28050131319649
 30
0.0
 10
10.01209449817517
 20
3.27237096590849
 30
0.0
 10
10.03622702967104
 20
3.26392001484246
 30
0.0
 10
10.06450957682287
 20
3.255582460336695
 30
0.0
 10
10.09700199638572
 20
3.247746463809695
 30
0.0
 10
10.13370022266592
 20
3.240804956202547
 30
0.0
 10
10.1746268566107
 20
3.235211146810811
 30
0.0
 10
10.21763166202663
 20
3.2313401721169
 30
0.0
 10
10.24783617122561
 20
3.230439005365438
 30
0.0
 10
10.26229546223444
 20
3.230056433777937
 30
0.0
  0
ARC
  5
A6
330
1F
100
AcDbEntity
  8
VISIBLE
100
AcDbCircle
 10
9.851195356162005
 20
3.228252513836273
 30
0.0
 40
0.11949975821644
100
AcDbArc
 50
52.2011160312199
 51
223.0930016158395
  0
SPLINE
  5
A7
330
1F
100
AcDbEntity
  8
VISIBLE
100
AcDbSpline
210
0.0
220
0.0
230
1.0
 70
     8
 71
     3
 72
    20
 73
    16
 74
     0
 42
0.000000001
 43
0.0000000007637833
 40
0.1082519207549122
 40
0.1082519207549122
 40
0.1082519207549122
 40
0.1082519207549122
 40
0.1666411963469485
 40
0.2000001269197105
 40
0.2430662679326505
 40
0.29402279583564
 40
0.3518020593930985
 40
0.4156794341611105
 40
0.485121458881961
 40
0.559714157153641
 40
0.639124147108644
 40
0.723075456777559
 40
0.8113347242840959
 40
0.903701245370925
 40
0.9880400396243485
 40
0.9880400396243485
 40
0.9880400396243485
 40
0.9880400396243485
 10
9.763931168042632
 20
3.146612121347911
 30
0.0
 10
9.774593549097212
 20
3.135215262540983
 30
0.0
 10
9.786925820662962
 20
3.121876960189863
 30
0.0
 10
9.78933077859774
 20
3.118520020104401
 30
0.0
 10
9.795898722490238
 20
3.109709029483112
 30
0.0
 10
9.80315099760045
 20
3.098499603495722
 30
0.0
 10
9.812170469553532
 20
3.08312816009237
 30
0.0
 10
9.822111005501071
 20
3.063969002002454
 30
0.0
 10
9.832752575390534
 20
3.040719171022266
 30
0.0
 10
9.843664147585791
 20
3.013326564706691
 30
0.0
 10
9.854464739381111
 20
2.981695766621756
 30
0.0
 10
9.864762720874648
 20
2.945794570024268
 30
0.0
 10
9.87410890143412
 20
2.905558653500457
 30
0.0
 10
9.881931346077186
 20
2.86309446748743
 30
0.0
 10
9.885615589122343
 20
2.83310195457755
 30
0.0
 10
9.887330663787285
 20
2.818739643607812
 30
0.0
  0
ARC
  5
A8
330
1F
100
AcDbEntity
  8
VISIBLE
100
AcDbCircle
 10
8.708196046035567
 20
4.270234062339402
 30
0.0
 40
1.87007874015748
100
AcDbArc
 50
305.0286532360754
 51
309.0889938227481
  0
SPLINE
  5
A9
330
1F
100
AcDbEntity
  8
VISIBLE
100
AcDbSpline
210
0.0
220
0.0
230
1.0
 70
     8
 71
     3
 72
    20
 73
    16
 74
     0
 42
0.000000001
 43
0.0000000007461679
 40
0.1082519207549109
 40
0.1082519207549109
 40
0.1082519207549109
 40
0.1082519207549109
 40
0.1666411963469485
 40
0.2000001269197105
 40
0.2430662679326505
 40
0.29402279583564
 40
0.3518020593930985
 40
0.4156794341611105
 40
0.485121458881961
 40
0.559714157153641
 40
0.639124147108644
 40
0.723075456777559
 40
0.8113347242840959
 40
0.903701245370925
 40
0.9880400396243476
 40
0.9880400396243476
 40
0.9880400396243476
 40
0.9880400396243476
 10
9.50000881190023
 20
2.947307209512495
 30
0.0
 10
9.50805270387167
 20
2.933932959538385
 30
0.0
 10
9.517506938798306
 20
2.918421264803982
 30
0.0
 10
9.520077581875666
 20
2.915189444330281
 30
0.0
 10
9.526754815432732
 20
2.906460985432638
 30
0.0
 10
9.535551649501166
 20
2.89641795622759
 30
0.0
 10
9.54786800227554
 20
2.883536201651752
 30
0.0
 10
9.563575415037697
 20
2.868731986780378
 30
0.0
 10
9.583025494838864
 20
2.852134033712366
 30
0.0
 10
9.60638631255318
 20
2.834142661217451
 30
0.0
 10
9.633853903020036
 20
2.81509819628498
 30
0.0
 10
9.665566418120864
 20
2.795368504803543
 30
0.0
 10
9.701708650692368
 20
2.775368027451523
 30
0.0
 10
9.740411080125462
 20
2.756223323486219
 30
0.0
 10
9.768250407177486
 20
2.744471883287014
 30
0.0
 10
9.781595093702398
 20
2.738891847529994
 30
0.0
  0
ARC
  5
AA
330
1F
100
AcDbEntity
  8
VISIBLE
100
AcDbCircle
 10
9.397604010239268
 20
2.885716229567648
 30
0.0
 40
0.11949975821644
100
AcDbArc
 50
31.024645442984
 51
201.9165310276044
  0
SPLINE
  5
AB
330
1F
100
AcDbEntity
  8
VISIBLE
100
AcDbSpline
210
0.0
220
0.0
230
1.0
 70
     8
 71
     3
 72
    20
 73
    16
 74
     0
 42
0.000000001
 43
0.0000000006994651
 40
0.1082519207549102
 40
0.1082519207549102
 40
0.1082519207549102
 40
0.1082519207549102
 40
0.1666411963469485
 40
0.2000001269197105
 40
0.2430662679326505
 40
0.29402279583564
 40
0.3518020593930985
 40
0.4156794341611105
 40
0.485121458881961
 40
0.559714157153641
 40
0.639124147108644
 40
0.723075456777559
 40
0.8113347242840959
 40
0.903701245370925
 40
0.9880400396243448
 40
0.9880400396243448
 40
0.9880400396243448
 40
0.9880400396243448
 10
9.286740666785764
 20
2.841112291489289
 30
0.0
 10
9.292566020753775
 20
2.826633340851706
 30
0.0
 10
9.299247170948883
 20
2.809740813993602
 30
0.0
 10
9.300277060806186
 20
2.805741789576667
 30
0.0
 10
9.303218589157431
 20
2.795153170513624
 30
0.0
 10
9.30593182257702
 20
2.782080868128358
 30
0.0
 10
9.308789423870431
 20
2.764489214952412
 30
0.0
 10
9.311137611395765
 20
2.743032896326315
 30
0.0
 10
9.312661772113103
 20
2.717508896161226
 30
0.0
 10
9.312941159417672
 20
2.688024336960413
 30
0.0
 10
9.311586049124909
 20
2.654627872376366
 30
0.0
 10
9.308219622809563
 20
2.61743094355373
 30
0.0
 10
9.302399787106639
 20
2.576535838932856
 30
0.0
 10
9.294354166193726
 20
2.53411337179493
 30
0.0
 10
9.286955075183005
 20
2.504815284320145
 30
0.0
 10
9.283366069534411
 20
2.490803271761196
 30
0.0
  0
ARC
  5
AC
330
1F
100
AcDbEntity
  8
VISIBLE
100
AcDbCircle
 10
8.708196046035567
 20
4.270234062339402
 30
0.0
 40
1.87007874015748
100
AcDbArc
 50
283.8521826478402
 51
287.9125232345128
  0
SPLINE
  5
AD
330
1F
100
AcDbEntity
  8
VISIBLE
100
AcDbSpline
210
0.0
220
0.0
230
1.0
 70
     8
 71
     3
 72
    20
 73
    16
 74
     0
 42
0.000000001
 43
0.000000000681625
 40
0.1082519207549095
 40
0.1082519207549095
 40
0.1082519207549095
 40
0.1082519207549095
 40
0.1666411963469485
 40
0.2000001269197105
 40
0.2430662679326505
 40
0.29402279583564
 40
0.3518020593930985
 40
0.4156794341611105
 40
0.485121458881961
 40
0.559714157153641
 40
0.639124147108644
 40
0.723075456777559
 40
0.8113347242840959
 40
0.903701245370925
 40
0.9880400396243476
 40
0.9880400396243476
 40
0.9880400396243476
 40
0.9880400396243476
 10
8.968643160533302
 20
2.750605747695801
 30
0.0
 10
8.971312530068346
 20
2.735228842067438
 30
0.0
 10
8.974524871136456
 20
2.717349353919186
 30
0.0
 10
8.97575445620507
 20
2.7134071476886
 30
0.0
 10
8.978827708030849
 20
2.702856007185376
 30
0.0
 10
8.983402550902744
 20
2.690313378356519
 30
0.0
 10
8.990233781346003
 20
2.673852320150986
 30
0.0
 10
8.99953260829578
 20
2.654373628947602
 30
0.0
 10
9.011673395348485
 20
2.631870319411878
 30
0.0
 10
9.026957475746205
 20
2.606654963476886
 30
0.0
 10
9.045690586821351
 20
2.578974090657098
 30
0.0
 10
9.068134439853324
 20
2.549120819461935
 30
0.0
 10
9.094611062271744
 20
2.517414849442492
 30
0.0
 10
9.123784138169501
 20
2.485582014560776
 30
0.0
 10
9.145498427693159
 20
2.464567398029709
 30
0.0
 10
9.155926235873496
 20
2.454543512852201
 30
0.0
  0
ARC
  5
AE
330
1F
100
AcDbEntity
  8
VISIBLE
100
AcDbCircle
 10
8.850904298609418
 20
2.730166750493
 30
0.0
 40
0.11949975821644
100
AcDbArc
 50
9.84817485474876
 51
180.7400604393702
  0
SPLINE
  5
AF
330
1F
100
AcDbEntity
  8
VISIBLE
100
AcDbSpline
210
0.0
220
0.0
230
1.0
 70
     8
 71
     3
 72
    20
 73
    16
 74
     0
 42
0.000000001
 43
0.0000000005715869
 40
0.108251920754911
 40
0.108251920754911
 40
0.108251920754911
 40
0.108251920754911
 40
0.1666411963469485
 40
0.2000001269197105
 40
0.2430662679326505
 40
0.29402279583564
 40
0.3518020593930985
 40
0.4156794341611105
 40
0.485121458881961
 40
0.559714157153641
 40
0.639124147108644
 40
0.723075456777559
 40
0.8113347242840959
 40
0.903701245370925
 40
0.9880400396243478
 40
0.9880400396243478
 40
0.9880400396243478
 40
0.9880400396243478
 10
7.68677822589076
 20
3.115327767089706
 30
0.0
 10
7.676413784482171
 20
3.103659300407828
 30
0.0
 10
7.664270259443231
 20
3.090148932862495
 30
0.0
 10
7.661149540995584
 20
3.087444494699783
 30
0.0
 10
7.652982149914958
 20
3.080091592848161
 30
0.0
 10
7.642489696889462
 20
3.071835979318648
 30
0.0
 10
7.628016037234094
 20
3.061436684977419
 30
0.0
 10
7.609855805678992
 20
3.04977076951811
 30
0.0
 10
7.587687034574749
 20
3.037029370927398
 30
0.0
 10
7.561418073154159
 20
3.023636874729309
 30
0.0
 10
7.530918759363688
 20
3.009963834506685
 30
0.0
 10
7.496120888799873
 20
2.996397237873896
 30
0.0
 10
7.456918968350031
 20
2.983378424463852
 30
0.0
 10
7.415357691202519
 20
2.971671248211206
 30
0.0
 10
7.385833060126822
 20
2.965235361534992
 30
0.0
 10
7.371690263369368
 20
2.962202416204933
 30
0.0
  0
SPLINE
  5
B0
330
1F
100
AcDbEntity
  8
VISIBLE
100
AcDbSpline
210
0.0
220
0.0
230
1.0
 70
     8
 71
     3
 72
    20
 73
    16
 74
     0
 42
0.000000001
 43
0.0000000009009634
 40
0.1082519207549108
 40
0.1082519207549108
 40
0.1082519207549108
 40
0.1082519207549108
 40
0.1666411963469485
 40
0.2000001269197105
 40
0.2430662679326505
 40
0.29402279583564
 40
0.3518020593930985
 40
0.4156794341611105
 40
0.485121458881961
 40
0.559714157153641
 40
0.639124147108644
 40
0.723075456777559
 40
0.8113347242840959
 40
0.903701245370925
 40
0.9880400396243492
 40
0.9880400396243492
 40
0.9880400396243492
 40
0.9880400396243492
 10
9.763931168042632
 20
5.393856003330891
 30
0.0
 10
9.774593549097213
 20
5.405252862137819
 30
0.0
 10
9.786925820662963
 20
5.418591164488941
 30
0.0
 10
9.78933077859774
 20
5.421948104574401
 30
0.0
 10
9.795898722490238
 20
5.430759095195691
 30
0.0
 10
9.80315099760045
 20
5.441968521183081
 30
0.0
 10
9.812170469553532
 20
5.457339964586433
 30
0.0
 10
9.822111005501071
 20
5.476499122676349
 30
0.0
 10
9.832752575390536
 20
5.499748953656537
 30
0.0
 10
9.843664147585793
 20
5.52714155997211
 30
0.0
 10
9.854464739381115
 20
5.558772358057045
 30
0.0
 10
9.864762720874648
 20
5.594673554654536
 30
0.0
 10
9.874108901434122
 20
5.634909471178347
 30
0.0
 10
9.881931346077188
 20
5.677373657191373
 30
0.0
 10
9.885615589122343
 20
5.707366170101253
 30
0.0
 10
9.887330663787285
 20
5.721728481070992
 30
0.0
  0
SPLINE
  5
B1
330
1F
100
AcDbEntity
  8
VISIBLE
100
AcDbSpline
210
0.0
220
0.0
230
1.0
 70
     8
 71
     3
 72
    20
 73
    16
 74
     0
 42
0.000000001
 43
0.0000000008456896
 40
0.1082519207549103
 40
0.1082519207549103
 40
0.1082519207549103
 40
0.1082519207549103
 40
0.1666411963469485
 40
0.2000001269197105
 40
0.2430662679326505
 40
0.29402279583564
 40
0.3518020593930985
 40
0.4156794341611105
 40
0.485121458881961
 40
0.559714157153641
 40
0.639124147108644
 40
0.723075456777559
 40
0.8113347242840959
 40
0.903701245370925
 40
0.9880400396243484
 40
0.9880400396243484
 40
0.9880400396243484
 40
0.9880400396243484
 10
8.731414508670174
 20
5.811844848857722
 30
0.0
 10
8.731616089218832
 20
5.827450428811718
 30
0.0
 10
8.731743791687917
 20
5.845615750819895
 30
0.0
 10
8.731259521135701
 20
5.849716769161439
 30
0.0
 10
8.730177364242287
 20
5.860652964988208
 30
0.0
 10
8.727985118763389
 20
5.873822656898092
 30
0.0
 10
8.72429491450794
 20
5.891258669606506
 30
0.0
 10
8.718733617874012
 20
5.912114354044764
 30
0.0
 10
8.710934523068682
 20
5.936465365739089
 30
0.0
 10
8.700543992678945
 20
5.96405982472549
 30
0.0
 10
8.687216195452063
 20
5.994711578210376
 30
0.0
 10
8.670640015855733
 20
6.02818058790536
 30
0.0
 10
8.650440164950918
 20
6.064211770136653
 30
0.0
 10
8.627613084168637
 20
6.100863129141498
 30
0.0
 10
8.610129947342816
 20
6.125509922121411
 30
0.0
 10
8.601721576480896
 20
6.137279236330243
 30
0.0
  0
SPLINE
  5
B2
330
1F
100
AcDbEntity
  8
VISIBLE
100
AcDbSpline
210
0.0
220
0.0
230
1.0
 70
     8
 71
     3
 72
    20
 73
    16
 74
     0
 42
0.000000001
 43
0.0000000005977986
 40
0.1082519207549126
 40
0.1082519207549126
 40
0.1082519207549126
 40
0.1082519207549126
 40
0.1666411963469485
 40
0.2000001269197105
 40
0.2430662679326505
 40
0.29402279583564
 40
0.3518020593930985
 40
0.4156794341611105
 40
0.485121458881961
 40
0.559714157153641
 40
0.639124147108644
 40
0.723075456777559
 40
0.8113347242840959
 40
0.903701245370925
 40
0.9880400396243483
 40
0.9880400396243483
 40
0.9880400396243483
 40
0.9880400396243483
 10
8.172952568517832
 20
2.824337339232431
 30
0.0
 10
8.167503151077046
 20
2.809712750008313
 30
0.0
 10
8.161060158894035
 20
2.792727960244792
 30
0.0
 10
8.159127131353813
 20
2.789078813230192
 30
0.0
 10
8.154167440500634
 20
2.779272034485653
 30
0.0
 10
8.147365791022828
 20
2.767783592919366
 30
0.0
 10
8.137626163751344
 20
2.752858050811037
 30
0.0
 10
8.124906466884777
 20
2.735419676309343
 30
0.0
 10
8.108837427526513
 20
2.715530392148713
 30
0.0
 10
8.08918027814752
 20
2.693552817969012
 30
0.0
 10
8.065679786853883
 20
2.669785464738651
 30
0.0
 10
8.038132558882836
 20
2.644564549388809
 30
0.0
 10
8.006280794572064
 20
2.618263500363108
 30
0.0
 10
7.971755177669282
 20
2.592333218617142
 30
0.0
 10
7.946549189534093
 20
2.575666406096632
 30
0.0
 10
7.934457050536142
 20
2.567729301337842
 30
0.0
  0
SPLINE
  5
B3
330
1F
100
AcDbEntity
  8
VISIBLE
100
AcDbSpline
210
0.0
220
0.0
230
1.0
 70
     8
 71
     3
 72
    20
 73
    16
 74
     0
 42
0.000000001
 43
0.0000000008680254
 40
0.1082519207549121
 40
0.1082519207549121
 40
0.1082519207549121
 40
0.1082519207549121
 40
0.1666411963469485
 40
0.2000001269197105
 40
0.2430662679326505
 40
0.29402279583564
 40
0.3518020593930985
 40
0.4156794341611105
 40
0.485121458881961
 40
0.559714157153641
 40
0.639124147108644
 40
0.723075456777559
 40
0.8113347242840959
 40
0.903701245370925
 40
0.9880400396243478
 40
0.9880400396243478
 40
0.9880400396243478
 40
0.9880400396243478
 10
10.24537292217348
 20
4.15111158090273
 30
0.0
 10
10.26093053098111
 20
4.149872400283477
 30
0.0
 10
10.27903014582537
 20
4.148323473535525
 30
0.0
 10
10.28306898709627
 20
4.147462874561607
 30
0.0
 10
10.29385868219841
 20
4.145376269111017
 30
0.0
 10
10.30676991963047
 20
4.141978229497688
 30
0.0
 10
10.32379106428982
 20
4.136694974714842
 30
0.0
 10
10.34404465033812
 20
4.129233081803323
 30
0.0
 10
10.36757217522653
 20
4.119220428661182
 30
0.0
 10
10.39409020392265
 20
4.106328126981338
 30
0.0
 10
10.42338146844553
 20
4.090228996779077
 30
0.0
 10
10.45517824834806
 20
4.070635397625189
 30
0.0
 10
10.48919192080368
 20
4.047197177649196
 30
0.0
 10
10.52358071427735
 20
4.021085712401753
 30
0.0
 10
10.54650922803032
 20
4.001403036401153
 30
0.0
 10
10.55745250983442
 20
3.99194459885292
 30
0.0
  0
SPLINE
  5
B4
330
1F
100
AcDbEntity
  8
VISIBLE
100
AcDbSpline
210
0.0
220
0.0
230
1.0
 70
     8
 71
     3
 72
    20
 73
    16
 74
     0
 42
0.000000001
 43
0.0000000008714006
 40
0.1082519207549121
 40
0.1082519207549121
 40
0.1082519207549121
 40
0.1082519207549121
 40
0.1666411963469485
 40
0.2000001269197105
 40
0.2430662679326505
 40
0.29402279583564
 40
0.3518020593930985
 40
0.4156794341611105
 40
0.485121458881961
 40
0.559714157153641
 40
0.639124147108644
 40
0.723075456777559
 40
0.8113347242840959
 40
0.903701245370925
 40
0.9880400396243475
 40
0.9880400396243475
 40
0.9880400396243475
 40
0.9880400396243475
 10
8.9686431605333
 20
5.789862376983004
 30
0.0
 10
8.971312530068346
 20
5.805239282611366
 30
0.0
 10
8.974524871136456
 20
5.823118770759617
 30
0.0
 10
8.97575445620507
 20
5.827060976990203
 30
0.0
 10
8.978827708030849
 20
5.837612117493427
 30
0.0
 10
8.983402550902742
 20
5.850154746322284
 30
0.0
 10
8.990233781346003
 20
5.866615804527817
 30
0.0
 10
8.99953260829578
 20
5.886094495731201
 30
0.0
 10
9.011673395348485
 20
5.908597805266925
 30
0.0
 10
9.026957475746203
 20
5.933813161201917
 30
0.0
 10
9.045690586821351
 20
5.961494034021705
 30
0.0
 10
9.068134439853324
 20
5.991347305216868
 30
0.0
 10
9.094611062271742
 20
6.023053275236311
 30
0.0
 10
9.1237841381695
 20
6.054886110118026
 30
0.0
 10
9.145498427693159
 20
6.075900726649094
 30
0.0
 10
9.155926235873494
 20
6.085924611826602
 30
0.0
  0
SPLINE
  5
B5
330
1F
100
AcDbEntity
  8
VISIBLE
100
AcDbSpline
210
0.0
220
0.0
230
1.0
 70
     8
 71
     3
 72
    20
 73
    16
 74
     0
 42
0.000000001
 43
0.0000000006426373
 40
0.108251920754913
 40
0.108251920754913
 40
0.108251920754913
 40
0.108251920754913
 40
0.1666411963469485
 40
0.2000001269197105
 40
0.2430662679326505
 40
0.29402279583564
 40
0.3518020593930985
 40
0.4156794341611105
 40
0.485121458881961
 40
0.559714157153641
 40
0.639124147108644
 40
0.723075456777559
 40
0.8113347242840959
 40
0.903701245370925
 40
0.9880400396243484
 40
0.9880400396243484
 40
0.9880400396243484
 40
0.9880400396243484
 10
8.731414508670174
 20
2.72862327582108
 30
0.0
 10
8.731616089218832
 20
2.713017695867084
 30
0.0
 10
8.731743791687917
 20
2.694852373858908
 30
0.0
 10
8.731259521135701
 20
2.690751355517364
 30
0.0
 10
8.730177364242287
 20
2.679815159690595
 30
0.0
 10
8.72798511876339
 20
2.666645467780711
 30
0.0
 10
8.72429491450794
 20
2.649209455072297
 30
0.0
 10
8.718733617874014
 20
2.628353770634039
 30
0.0
 10
8.710934523068683
 20
2.604002758939714
 30
0.0
 10
8.700543992678945
 20
2.576408299953313
 30
0.0
 10
8.687216195452063
 20
2.545756546468427
 30
0.0
 10
8.670640015855733
 20
2.512287536773443
 30
0.0
 10
8.650440164950918
 20
2.47625635454215
 30
0.0
 10
8.627613084168637
 20
2.439604995537305
 30
0.0
 10
8.610129947342816
 20
2.414958202557392
 30
0.0
 10
8.601721576480898
 20
2.40318888834856
 30
0.0
  0
SPLINE
  5
B6
330
1F
100
AcDbEntity
  8
VISIBLE
100
AcDbSpline
210
0.0
220
0.0
230
1.0
 70
     8
 71
     3
 72
    20
 73
    16
 74
     0
 42
0.000000001
 43
0.0000000007964487
 40
0.1082519207549097
 40
0.1082519207549097
 40
0.1082519207549097
 40
0.1082519207549097
 40
0.1666411963469485
 40
0.2000001269197105
 40
0.2430662679326505
 40
0.29402279583564
 40
0.3518020593930985
 40
0.4156794341611105
 40
0.485121458881961
 40
0.559714157153641
 40
0.639124147108644
 40
0.723075456777559
 40
0.8113347242840959
 40
0.903701245370925
 40
0.9880400396243466
 40
0.9880400396243466
 40
0.9880400396243466
 40
0.9880400396243466
 10
8.172952568517836
 20
5.71613078544637
 30
0.0
 10
8.167503151077048
 20
5.73075537467049
 30
0.0
 10
8.161060158894037
 20
5.747740164434012
 30
0.0
 10
8.159127131353813
 20
5.751389311448611
 30
0.0
 10
8.154167440500636
 20
5.76119609019315
 30
0.0
 10
8.147365791022828
 20
5.772684531759439
 30
0.0
 10
8.137626163751346
 20
5.787610073867766
 30
0.0
 10
8.124906466884777
 20
5.80504844836946
 30
0.0
 10
8.108837427526513
 20
5.82493773253009
 30
0.0
 10
8.089180278147522
 20
5.846915306709791
 30
0.0
 10
8.065679786853883
 20
5.870682659940152
 30
0.0
 10
8.038132558882836
 20
5.895903575289994
 30
0.0
 10
8.006280794572064
 20
5.922204624315695
 30
0.0
 10
7.971755177669283
 20
5.948134906061663
 30
0.0
 10
7.946549189534094
 20
5.964801718582171
 30
0.0
 10
7.934457050536143
 20
5.972738823340961
 30
0.0
  0
ENDSEC
  0
SECTION
  2
OBJECTS
  0
DICTIONARY
  5
C
330
0
100
AcDbDictionary
  3
ACAD_GROUP
350
D
  3
ACAD_LAYOUT
350
1A
  3
ACAD_MATERIAL
350
43
  3
ACAD_MLEADERSTYLE
350
10D
  3
ACAD_MLINESTYLE
350
17
  3
ACAD_PLOTSETTINGS
350
19
  3
ACAD_SCALELIST
350
47
  3
ACAD_VISUALSTYLE
350
2A
  3
ACDBHEADERROUNDTRIPXREC
350
EC
  3
ACDBVARIABLEDICTIONARY
350
6C
  3
ONSHAPE_DATA
350
B7
  0
DICTIONARY
  5
D
102
{ACAD_REACTORS
330
C
102
}
330
C
100
AcDbDictionary
  0
DICTIONARY
  5
1A
102
{ACAD_REACTORS
330
C
102
}
330
C
100
AcDbDictionary
  0
DICTIONARY
  5
43
102
{ACAD_REACTORS
330
C
102
}
330
C
100
AcDbDictionary
  3
BYBLOCK
350
45
  3
BYLAYER
350
44
  3
GLOBAL
350
46
  0
DICTIONARY
  5
10D
102
{ACAD_REACTORS
330
C
102
}
330
C
100
AcDbDictionary
  0
DICTIONARY
  5
17
102
{ACAD_REACTORS
330
C
102
}
330
C
100
AcDbDictionary
  3
STANDARD
350
18
  0
DICTIONARY
  5
19
102
{ACAD_REACTORS
330
C
102
}
330
C
100
AcDbDictionary
  0
DICTIONARY
  5
47
102
{ACAD_REACTORS
330
C
102
}
330
C
100
AcDbDictionary
  3
A0
350
48
  3
A1
350
49
  3
A2
350
4A
  3
A3
350
4B
  3
A4
350
4C
  3
A5
350
4D
  3
A6
350
4E
  3
A7
350
4F
  3
A8
350
50
  3
A9
350
51
  3
B0
350
52
  3
B1
350
53
  3
B2
350
54
  3
B3
350
55
  3
B4
350
56
  3
B5
350
57
  3
B6
350
58
  3
B7
350
59
  3
B8
350
5A
  3
B9
350
5B
  3
C0
350
5C
  3
C1
350
5D
  3
C2
350
5E
  3
C3
350
5F
  3
C4
350
60
  3
C5
350
61
  3
C6
350
62
  3
C7
350
63
  3
C8
350
64
  3
C9
350
65
  3
D0
350
66
  3
D1
350
67
  3
D2
350
68
  0
DICTIONARY
  5
2A
102
{ACAD_REACTORS
330
C
102
}
330
C
100
AcDbDictionary
  3
2DWIREFRAME
350
2F
  3
BASIC
350
32
  3
BRIGHTEN
350
36
  3
COLORCHANGE
350
3A
  3
CONCEPTUAL
350
34
  3
DIM
350
35
  3
EDGECOLOROFF
350
3D
  3
FACEPATTERN
350
39
  3
FLAT
350
2B
  3
FLATWITHEDGES
350
2C
  3
GOURAUD
350
2D
  3
GOURAUDWITHEDGES
350
2E
  3
HIDDEN
350
31
  3
JITTEROFF
350
3B
  3
LINEPATTERN
350
38
  3
OVERHANGOFF
350
3C
  3
REALISTIC
350
33
  3
SHADED
350
42
  3
SHADED_WITH_EDGES
350
41
  3
SHADES_OF_GRAY
350
3E
  3
SKETCHY
350
3F
  3
THICKEN
350
37
  3
WIREFRAME
350
30
  3
X-RAY
350
40
  0
DICTIONARY
  5
EC
102
{ACAD_REACTORS
330
C
102
}
330
C
100
AcDbDictionary
  3
CEPSNTYPE
350
F5
  3
DIMSTYLEDATA
350
10B
  3
FINGERPRINTGUID
350
F6
  3
HYPERLINKBASE
350
EF
  3
INSUNITS
350
F4
  3
LAYOUTDICT
350
F1
  3
LWETCUNION
350
F3
  3
PLOTSETDICT
350
F2
  3
PSVPSCALE
350
F8
  3
PUCSBASE
350
FB
  3
PUCSORGBACK
350
101
  3
PUCSORGBOTTOM
350
FD
  3
PUCSORGFRONT
350
100
  3
PUCSORGLEFT
350
FE
  3
PUCSORGRIGHT
350
FF
  3
PUCSORGTOP
350
FC
  3
PUCSORTHOREF
350
F9
  3
PUCSORTHOVIEW
350
FA
  3
STYLESHEET
350
F0
  3
TSTACKALIGN
350
ED
  3
TSTACKSIZE
350
EE
  3
UCSBASE
350
104
  3
UCSORGBACK
350
10A
  3
UCSORGBOTTOM
350
106
  3
UCSORGFRONT
350
109
  3
UCSORGLEFT
350
107
  3
UCSORGRIGHT
350
108
  3
UCSORGTOP
350
105
  3
UCSORTHOREF
350
102
  3
UCSORTHOVIEW
350
103
  3
VERSIONGUID
350
F7
  0
DICTIONARY
  5
6C
102
{ACAD_REACTORS
330
C
102
}
330
C
100
AcDbDictionary
  3
CANNOSCALE
350
112
  3
CTABLESTYLE
350
10C
  3
DIMASSOC
350
110
  3
HIDETEXT
350
111
  3
MSLTSCALE
350
113
  3
OLEFRAME
350
6D
  0
DICTIONARY
  5
B7
102
{ACAD_REACTORS
330
C
102
}
330
C
100
AcDbDictionary
280
     1
  3
DIM_UNITS
360
B8
  3
ONSHAPE_VSHARP_EXTENSION
360
BA
  3
ONSHAPE_WELD_STANDARD
360
B9
  0
MATERIAL
  5
45
102
{ACAD_REACTORS
330
43
102
}
102
{ACAD_XDICTIONARY
360
116
102
}
330
43
100
AcDbMaterial
  1
BYBLOCK
  0
MATERIAL
  5
44
102
{ACAD_REACTORS
330
43
102
}
102
{ACAD_XDICTIONARY
360
114
102
}
330
43
100
AcDbMaterial
  1
BYLAYER
  0
MATERIAL
  5
46
102
{ACAD_REACTORS
330
43
102
}
102
{ACAD_XDICTIONARY
360
118
102
}
330
43
100
AcDbMaterial
  1
GLOBAL
  0
MLINESTYLE
  5
18
102
{ACAD_REACTORS
330
17
102
}
330
17
100
AcDbMlineStyle
  2
Standard
 70
     0
  3

 62
   256
 51
90.0
 52
90.0
 71
     2
 49
0.5
 62
   256
  6
BYLAYER
 49
-0.5
 62
   256
  6
BYLAYER
  0
ACAD_PROXY_OBJECT
  5
48
102
{ACAD_REACTORS
330
47
102
}
330
47
100
AcDbProxyObject
 90
      499
 91
      503
 93
       41
310
903313A31580
  0
ACAD_PROXY_OBJECT
  5
49
102
{ACAD_REACTORS
330
47
102
}
330
47
100
AcDbProxyObject
 90
      499
 91
      503
 93
      105
310
903313A324000000000000004000
  0
ACAD_PROXY_OBJECT
  5
4A
102
{ACAD_REACTORS
330
47
102
}
330
47
100
AcDbProxyObject
 90
      499
 91
      503
 93
      105
310
903313A344000000000000104000
  0
ACAD_PROXY_OBJECT
  5
4B
102
{ACAD_REACTORS
330
47
102
}
330
47
100
AcDbProxyObject
 90
      499
 91
      503
 93
      105
310
903313A354000000000000144000
  0
ACAD_PROXY_OBJECT
  5
4C
102
{ACAD_REACTORS
330
47
102
}
330
47
100
AcDbProxyObject
 90
      499
 91
      503
 93
      105
310
903313A384000000000000204000
  0
ACAD_PROXY_OBJECT
  5
4D
102
{ACAD_REACTORS
330
47
102
}
330
47
100
AcDbProxyObject
 90
      499
 91
      503
 93
      113
310
904313A31304000000000000244000
  0
ACAD_PROXY_OBJECT
  5
4E
102
{ACAD_REACTORS
330
47
102
}
330
47
100
AcDbProxyObject
 90
      499
 91
      503
 93
      113
310
904313A31364000000000000304000
  0
ACAD_PROXY_OBJECT
  5
4F
102
{ACAD_REACTORS
330
47
102
}
330
47
100
AcDbProxyObject
 90
      499
 91
      503
 93
      113
310
904313A32304000000000000344000
  0
ACAD_PROXY_OBJECT
  5
50
102
{ACAD_REACTORS
330
47
102
}
330
47
100
AcDbProxyObject
 90
      499
 91
      503
 93
      113
310
904313A333040000000000003E4000
  0
ACAD_PROXY_OBJECT
  5
51
102
{ACAD_REACTORS
330
47
102
}
330
47
100
AcDbProxyObject
 90
      499
 91
      503
 93
      113
310
904313A34304000000000000444000
  0
ACAD_PROXY_OBJECT
  5
52
102
{ACAD_REACTORS
330
47
102
}
330
47
100
AcDbProxyObject
 90
      499
 91
      503
 93
      113
310
904313A35304000000000000494000
  0
ACAD_PROXY_OBJECT
  5
53
102
{ACAD_REACTORS
330
47
102
}
330
47
100
AcDbProxyObject
 90
      499
 91
      503
 93
      121
310
905313A3130304000000000000594000
  0
ACAD_PROXY_OBJECT
  5
54
102
{ACAD_REACTORS
330
47
102
}
330
47
100
AcDbProxyObject
 90
      499
 91
      503
 93
      105
310
903323A310000000000000010100
  0
ACAD_PROXY_OBJECT
  5
55
102
{ACAD_REACTORS
330
47
102
}
330
47
100
AcDbProxyObject
 90
      499
 91
      503
 93
      105
310
903343A310000000000000410100
  0
ACAD_PROXY_OBJECT
  5
56
102
{ACAD_REACTORS
330
47
102
}
330
47
100
AcDbProxyObject
 90
      499
 91
      503
 93
      105
310
903383A310000000000000810100
  0
ACAD_PROXY_OBJECT
  5
57
102
{ACAD_REACTORS
330
47
102
}
330
47
100
AcDbProxyObject
 90
      499
 91
      503
 93
      113
310
90431303A310000000000000910100
  0
ACAD_PROXY_OBJECT
  5
58
102
{ACAD_REACTORS
330
47
102
}
330
47
100
AcDbProxyObject
 90
      499
 91
      503
 93
      121
310
9053130303A310000000000001650100
  0
ACAD_PROXY_OBJECT
  5
59
102
{ACAD_REACTORS
330
47
102
}
330
47
100
AcDbProxyObject
 90
      499
 91
      503
 93
      257
310
90E312F31323822203D2031272D3022000000000000200FC000000000000284000
  0
ACAD_PROXY_OBJECT
  5
5A
102
{ACAD_REACTORS
330
47
102
}
330
47
100
AcDbProxyObject
 90
      499
 91
      503
 93
      249
310
90D312F363422203D2031272D3022000000000000240FC000000000000284000
  0
ACAD_PROXY_OBJECT
  5
5B
102
{ACAD_REACTORS
330
47
102
}
330
47
100
AcDbProxyObject
 90
      499
 91
      503
 93
      249
310
90D312F333222203D2031272D3022000000000000280FC000000000000284000
  0
ACAD_PROXY_OBJECT
  5
5C
102
{ACAD_REACTORS
330
47
102
}
330
47
100
AcDbProxyObject
 90
      499
 91
      503
 93
      249
310
90D312F313622203D2031272D30220000000000002C0FC000000000000284000
  0
ACAD_PROXY_OBJECT
  5
5D
102
{ACAD_REACTORS
330
47
102
}
330
47
100
AcDbProxyObject
 90
      499
 91
      503
 93
      249
310
90D332F333222203D2031272D30220000000000002E0FC000000000000284000
  0
ACAD_PROXY_OBJECT
  5
5E
102
{ACAD_REACTORS
330
47
102
}
330
47
100
AcDbProxyObject
 90
      499
 91
      503
 93
      241
310
90C312F3822203D2031272D3022000000000000300FC000000000000284000
  0
ACAD_PROXY_OBJECT
  5
5F
102
{ACAD_REACTORS
330
47
102
}
330
47
100
AcDbProxyObject
 90
      499
 91
      503
 93
      249
310
90D332F313622203D2031272D3022000000000000320FC000000000000284000
  0
ACAD_PROXY_OBJECT
  5
60
102
{ACAD_REACTORS
330
47
102
}
330
47
100
AcDbProxyObject
 90
      499
 91
      503
 93
      241
310
90C312F3422203D2031272D3022000000000000340FC000000000000284000
  0
ACAD_PROXY_OBJECT
  5
61
102
{ACAD_REACTORS
330
47
102
}
330
47
100
AcDbProxyObject
 90
      499
 91
      503
 93
      241
310
90C332F3822203D2031272D3022000000000000360FC000000000000284000
  0
ACAD_PROXY_OBJECT
  5
62
102
{ACAD_REACTORS
330
47
102
}
330
47
100
AcDbProxyObject
 90
      499
 91
      503
 93
      241
310
90C312F3222203D2031272D3022000000000000380FC000000000000284000
  0
ACAD_PROXY_OBJECT
  5
63
102
{ACAD_REACTORS
330
47
102
}
330
47
100
AcDbProxyObject
 90
      499
 91
      503
 93
      241
310
90C332F3422203D2031272D30220000000000003A0FC000000000000284000
  0
ACAD_PROXY_OBJECT
  5
64
102
{ACAD_REACTORS
330
47
102
}
330
47
100
AcDbProxyObject
 90
      499
 91
      503
 93
      161
310
90A3122203D2031272D30224000000000000284000
  0
ACAD_PROXY_OBJECT
  5
65
102
{ACAD_REACTORS
330
47
102
}
330
47
100
AcDbProxyObject
 90
      499
 91
      503
 93
      257
310
90E312D312F3222203D2031272D30220000000000003E0FC000000000000284000
  0
ACAD_PROXY_OBJECT
  5
66
102
{ACAD_REACTORS
330
47
102
}
330
47
100
AcDbProxyObject
 90
      499
 91
      503
 93
      225
310
90A3322203D2031272D302200000000000002100000000000000284000
  0
ACAD_PROXY_OBJECT
  5
67
102
{ACAD_REACTORS
330
47
102
}
330
47
100
AcDbProxyObject
 90
      499
 91
      503
 93
      225
310
90A3622203D2031272D302200000000000006100000000000000284000
  0
ACAD_PROXY_OBJECT
  5
68
102
{ACAD_REACTORS
330
47
102
}
330
47
100
AcDbProxyObject
 90
      499
 91
      503
 93
      249
310
90D31272D3022203D2031272D30220000000000000A100000000000000284000
  0
ACAD_PROXY_OBJECT
  5
2F
102
{ACAD_REACTORS
330
2A
102
}
330
2A
100
AcDbProxyObject
 90
      499
 91
      501
 93
      436
310
42CC9915DA5C99599C985B595049028333333333333E33F0000000000000F90107901411070040501600405405064090741402480A0340
1001
ACAD
1000
AcDbSavedByObjectVersion
1070
     0
  0
ACAD_PROXY_OBJECT
  5
32
102
{ACAD_REACTORS
330
2A
102
}
330
2A
100
AcDbProxyObject
 90
      499
 91
      501
 93
      388
310
4150985CDA58D07406404333333333333E33F0000000000000F90107A41107004050150841D405064090741402480A0350
1001
ACAD
1000
AcDbSavedByObjectVersion
1070
     0
  0
ACAD_PROXY_OBJECT
  5
36
102
{ACAD_REACTORS
330
2A
102
}
330
2A
100
AcDbProxyObject
 90
      499
 91
      501
 93
      428
310
42109C9A59DA1D195B90C409028333333333333E33F0000000000000F9010790141107004050150841D405064090741402480A029950
1001
ACAD
1000
AcDbSavedByObjectVersion
1070
     0
  0
ACAD_PROXY_OBJECT
  5
3A
102
{ACAD_REACTORS
330
2A
102
}
330
2A
100
AcDbProxyObject
 90
      499
 91
      501
 93
      452
310
42D0DBDB1BDC90DA185B99D95104090240C333333333333E33F0000000000000F90108901411070040501508421405064090741402480A0350
1001
ACAD
1000
AcDbSavedByObjectVersion
1070
     0
  0
ACAD_PROXY_OBJECT
  5
34
102
{ACAD_REACTORS
330
2A
102
}
330
2A
100
AcDbProxyObject
 90
      499
 91
      501
 93
      500
310
4290DBDB98D95C1D1D585B10940D028333333333333E33F0000000000000F90107902409070040501000000000018199010841D405064090740C02480A0340
1001
ACAD
1000
AcDbSavedByObjectVersion
1070
     0
  0
ACAD_PROXY_OBJECT
  5
35
102
{ACAD_REACTORS
330
2A
102
}
330
2A
100
AcDbProxyObject
 90
      499
 91
      501
 93
      412
310
40D11A5B50B409028333333333333E33F0000000000000F9010790141107004050150841D405064090741402480A02677FFFFFD0
1001
ACAD
1000
AcDbSavedByObjectVersion
1070
     0
  0
ACAD_PROXY_OBJECT
  5
3D
102
{ACAD_REACTORS
330
2A
102
}
330
2A
100
AcDbProxyObject
 90
      499
 91
      501
 93
      452
310
43115919D950DBDB1BDC93D999916409028333333333333E33F0000000000000F9010790141107004050150841D405064090741402480A0350
1001
ACAD
1000
AcDbSavedByObjectVersion
1070
     0
  0
ACAD_PROXY_OBJECT
  5
39
102
{ACAD_REACTORS
330
2A
102
}
330
2A
100
AcDbProxyObject
 90
      499
 91
      501
 93
      444
310
42D19858D95C185D1D195C9B90F409028333333333333E33F0000000000000F9010790141107004050150841D405064090741402480A0350
1001
ACAD
1000
AcDbSavedByObjectVersion
1070
     0
  0
ACAD_PROXY_OBJECT
  5
2B
102
{ACAD_REACTORS
330
2A
102
}
330
2A
100
AcDbProxyObject
 90
      499
 91
      501
 93
      380
310
41119B185D240901404333333333333E33F0000000000000F9010740A907004050150841D405064090741402480A1B50
1001
ACAD
1000
AcDbSavedByObjectVersion
1070
     0
  0
ACAD_PROXY_OBJECT
  5
2C
102
{ACAD_REACTORS
330
2A
102
}
330
2A
100
AcDbProxyObject
 90
      499
 91
      501
 93
      468
310
43519B185D15DA5D1A115919D95CD0140901404333333333333E33F0000000000000F90107409019070040501600405405064090741402480A1B50
1001
ACAD
1000
AcDbSavedByObjectVersion
1070
     0
  0
ACAD_PROXY_OBJECT
  5
2D
102
{ACAD_REACTORS
330
2A
102
}
330
2A
100
AcDbProxyObject
 90
      499
 91
      501
 93
      404
310
41D1DBDD5C985D5910240902404333333333333E33F0000000000000F9010740A9070040501641D405064090741402480A1B50
1001
ACAD
1000
AcDbSavedByObjectVersion
1070
     0
  0
ACAD_PROXY_OBJECT
  5
2E
102
{ACAD_REACTORS
330
2A
102
}
330
2A
100
AcDbProxyObject
 90
      499
 91
      501
 93
      492
310
4411DBDD5C985D5915DA5D1A115919D95CD0340902404333333333333E33F0000000000000F90107409019070040501600405405064090741402480A1B50
1001
ACAD
1000
AcDbSavedByObjectVersion
1070
     0
  0
ACAD_PROXY_OBJECT
  5
31
102
{ACAD_REACTORS
330
2A
102
}
330
2A
100
AcDbProxyObject
 90
      499
 91
      501
 93
      476
310
41921A5919195B90640502408333333333333E33F0000000000000F901079024090700405020000000000001110200405405064090740C02480A0340
1001
ACAD
1000
AcDbSavedByObjectVersion
1070
     0
  0
ACAD_PROXY_OBJECT
  5
3B
102
{ACAD_REACTORS
330
2A
102
}
330
2A
100
AcDbProxyObject
 90
      499
 91
      501
 93
      428
310
42529A5D1D195C93D999914409028333333333333E33F0000000000000F9010790141107004050150A41D405064090741402480A0350
1001
ACAD
1000
AcDbSavedByObjectVersion
1070
     0
  0
ACAD_PROXY_OBJECT
  5
38
102
{ACAD_REACTORS
330
2A
102
}
330
2A
100
AcDbProxyObject
 90
      499
 91
      501
 93
      444
310
42D31A5B995C185D1D195C9B90E409028333333333333E33F0000000000000F9010790141107004050750841D405064090741402483A0350
1001
ACAD
1000
AcDbSavedByObjectVersion
1070
     0
  0
ACAD_PROXY_OBJECT
  5
3C
102
{ACAD_REACTORS
330
2A
102
}
330
2A
100
AcDbProxyObject
 90
      499
 91
      501
 93
      444
310
42D3DD995C9A185B99D3D999915409028333333333333E33F0000000000000F9010790141107004050150941D405064090741402480A0350
1001
ACAD
1000
AcDbSavedByObjectVersion
1070
     0
  0
ACAD_PROXY_OBJECT
  5
33
102
{ACAD_REACTORS
330
2A
102
}
330
2A
100
AcDbProxyObject
 90
      499
 91
      501
 93
      428
310
425499585B1A5CDD1A58D08409038333333333333E33F0000000000000F9010740A907004050150800405405064090740C02480A1B40
1001
ACAD
1000
AcDbSavedByObjectVersion
1070
     0
  0
ACAD_PROXY_OBJECT
  5
42
102
{ACAD_REACTORS
330
2A
102
}
330
2A
100
AcDbProxyObject
 90
      499
 91
      501
 93
      420
310
4194DA1859195911B40902404333333333333E33F0000000000000F9010740A41107004050150800405405064090840C02480A0B40
1001
ACAD
1000
AcDbSavedByObjectVersion
1070
     0
  0
ACAD_PROXY_OBJECT
  5
41
102
{ACAD_REACTORS
330
2A
102
}
330
2A
100
AcDbProxyObject
 90
      499
 91
      501
 93
      516
310
4454DA18591959081DDA5D1A08195919D95CD1A40902404333333333333E33F0000000000000F901074090142907004050250800405405064090740C02480A0B40
1001
ACAD
1000
AcDbSavedByObjectVersion
1070
     0
  0
ACAD_PROXY_OBJECT
  5
3E
102
{ACAD_REACTORS
330
2A
102
}
330
2A
100
AcDbProxyObject
 90
      499
 91
      501
 93
      532
310
4394DA1859195CC81BD98811DC985E5174090240C333333333333E33F0000000000000F901079024090741D01000000000000111010841D405064090740C02480A0340
1001
ACAD
1000
AcDbSavedByObjectVersion
1070
     0
  0
ACAD_PROXY_OBJECT
  5
3F
102
{ACAD_REACTORS
330
2A
102
}
330
2A
100
AcDbProxyObject
 90
      499
 91
      501
 93
      476
310
41D4DAD95D18DA1E51840502408333333333333E33F0000000000000F901079024090741D01000000000000111010B41D405064090741802480A0340
1001
ACAD
1000
AcDbSavedByObjectVersion
1070
     0
  0
ACAD_PROXY_OBJECT
  5
37
102
{ACAD_REACTORS
330
2A
102
}
330
2A
100
AcDbProxyObject
 90
      499
 91
      501
 93
      412
310
41D51A1A58DAD95B90D409028333333333333E33F0000000000000F9010790141107004050150C41D405064090741402480A0350
1001
ACAD
1000
AcDbSavedByObjectVersion
1070
     0
  0
ACAD_PROXY_OBJECT
  5
30
102
{ACAD_REACTORS
330
2A
102
}
330
2A
100
AcDbProxyObject
 90
      499
 91
      501
 93
      420
310
4255DA5C99599C985B595059028333333333333E33F0000000000000F90107901411070040501600405405064090740C02480A0340
1001
ACAD
1000
AcDbSavedByObjectVersion
1070
     0
  0
ACAD_PROXY_OBJECT
  5
40
102
{ACAD_REACTORS
330
2A
102
}
330
2A
100
AcDbProxyObject
 90
      499
 91
      501
 93
      404
310
41560B54985E51940902404000000000000E03F0000000000000F9010740501907004050150841D405064090740C02480A1B40
1001
ACAD
1000
AcDbSavedByObjectVersion
1070
     0
  0
XRECORD
  5
F5
102
{ACAD_REACTORS
330
EC
102
}
330
EC
100
AcDbXrecord
 90
        0
  0
XRECORD
  5
10B
102
{ACAD_REACTORS
330
EC
102
}
330
EC
100
AcDbXrecord
1000
DSTYLE
1002
{
1070
   179
 70
     1
1070
   285
 70
     7
1070
   176
 70
     7
1070
   177
 70
     7
1070
   178
 70
     7
1070
   271
 70
     3
1070
    44
 40
0.08
1070
   144
 40
0.5
1070
   371
 70
    13
1070
   372
 70
    13
1070
   272
 70
     3
1070
   340
340
70
1070
   140
 40
0.12
1070
   284
 70
     7
1070
   288
 70
     1
1070
    78
 70
     7
1070
    90
 70
     1
1002
}
  0
XRECORD
  5
F6
102
{ACAD_REACTORS
330
EC
102
}
330
EC
100
AcDbXrecord
  1
{F930C86B-314F-A538-8D89-6C1D527BC3AE}
  0
XRECORD
  5
EF
102
{ACAD_REACTORS
330
EC
102
}
330
EC
100
AcDbXrecord
  1

  0
XRECORD
  5
F4
102
{ACAD_REACTORS
330
EC
102
}
330
EC
100
AcDbXrecord
 90
        1
  0
XRECORD
  5
F1
102
{ACAD_REACTORS
330
EC
102
}
330
EC
100
AcDbXrecord
340
1A
  0
XRECORD
  5
F3
102
{ACAD_REACTORS
330
EC
102
}
330
EC
100
AcDbXrecord
 90
    10269
  0
XRECORD
  5
F2
102
{ACAD_REACTORS
330
EC
102
}
330
EC
100
AcDbXrecord
340
19
  0
XRECORD
  5
F8
102
{ACAD_REACTORS
330
EC
102
}
330
EC
100
AcDbXrecord
 40
0.0
  0
XRECORD
  5
FB
102
{ACAD_REACTORS
330
EC
102
}
330
EC
100
AcDbXrecord
340
0
  0
XRECORD
  5
101
102
{ACAD_REACTORS
330
EC
102
}
330
EC
100
AcDbXrecord
 10
0.0
 20
0.0
 30
0.0
  0
XRECORD
  5
FD
102
{ACAD_REACTORS
330
EC
102
}
330
EC
100
AcDbXrecord
 10
0.0
 20
0.0
 30
0.0
  0
XRECORD
  5
100
102
{ACAD_REACTORS
330
EC
102
}
330
EC
100
AcDbXrecord
 10
0.0
 20
0.0
 30
0.0
  0
XRECORD
  5
FE
102
{ACAD_REACTORS
330
EC
102
}
330
EC
100
AcDbXrecord
 10
0.0
 20
0.0
 30
0.0
  0
XRECORD
  5
FF
102
{ACAD_REACTORS
330
EC
102
}
330
EC
100
AcDbXrecord
 10
0.0
 20
0.0
 30
0.0
  0
XRECORD
  5
FC
102
{ACAD_REACTORS
330
EC
102
}
330
EC
100
AcDbXrecord
 10
0.0
 20
0.0
 30
0.0
  0
XRECORD
  5
F9
102
{ACAD_REACTORS
330
EC
102
}
330
EC
100
AcDbXrecord
340
0
  0
XRECORD
  5
FA
102
{ACAD_REACTORS
330
EC
102
}
330
EC
100
AcDbXrecord
 70
     0
  0
XRECORD
  5
F0
102
{ACAD_REACTORS
330
EC
102
}
330
EC
100
AcDbXrecord
  1

  0
XRECORD
  5
ED
102
{ACAD_REACTORS
330
EC
102
}
330
EC
100
AcDbXrecord
 90
        1
  0
XRECORD
  5
EE
102
{ACAD_REACTORS
330
EC
102
}
330
EC
100
AcDbXrecord
 90
       70
  0
XRECORD
  5
104
102
{ACAD_REACTORS
330
EC
102
}
330
EC
100
AcDbXrecord
340
0
  0
XRECORD
  5
10A
102
{ACAD_REACTORS
330
EC
102
}
330
EC
100
AcDbXrecord
 10
0.0
 20
0.0
 30
0.0
  0
XRECORD
  5
106
102
{ACAD_REACTORS
330
EC
102
}
330
EC
100
AcDbXrecord
 10
0.0
 20
0.0
 30
0.0
  0
XRECORD
  5
109
102
{ACAD_REACTORS
330
EC
102
}
330
EC
100
AcDbXrecord
 10
0.0
 20
0.0
 30
0.0
  0
XRECORD
  5
107
102
{ACAD_REACTORS
330
EC
102
}
330
EC
100
AcDbXrecord
 10
0.0
 20
0.0
 30
0.0
  0
XRECORD
  5
108
102
{ACAD_REACTORS
330
EC
102
}
330
EC
100
AcDbXrecord
 10
0.0
 20
0.0
 30
0.0
  0
XRECORD
  5
105
102
{ACAD_REACTORS
330
EC
102
}
330
EC
100
AcDbXrecord
 10
0.0
 20
0.0
 30
0.0
  0
XRECORD
  5
102
102
{ACAD_REACTORS
330
EC
102
}
330
EC
100
AcDbXrecord
340
0
  0
XRECORD
  5
103
102
{ACAD_REACTORS
330
EC
102
}
330
EC
100
AcDbXrecord
 70
     0
  0
XRECORD
  5
F7
102
{ACAD_REACTORS
330
EC
102
}
330
EC
100
AcDbXrecord
  1
{FAEB1C32-E019-11D5-929B-00C0DF256EC4}
  0
DICTIONARYVAR
  5
112
102
{ACAD_REACTORS
330
6C
102
}
330
6C
100
DictionaryVariables
280
     0
  1
1:1
  0
DICTIONARYVAR
  5
10C
102
{ACAD_REACTORS
330
6C
102
}
330
6C
100
DictionaryVariables
280
     0
  1
Onshape-Standard
  0
DICTIONARYVAR
  5
110
102
{ACAD_REACTORS
330
6C
102
}
330
6C
100
DictionaryVariables
280
     0
  1
2
  0
DICTIONARYVAR
  5
111
102
{ACAD_REACTORS
330
6C
102
}
330
6C
100
DictionaryVariables
280
     0
  1
1
  0
DICTIONARYVAR
  5
113
102
{ACAD_REACTORS
330
6C
102
}
330
6C
100
DictionaryVariables
280
     0
  1
1
  0
DICTIONARYVAR
  5
6D
102
{ACAD_REACTORS
330
6C
102
}
330
6C
100
DictionaryVariables
280
     0
  1
0
  0
XRECORD
  5
B8
102
{ACAD_REACTORS
330
B7
102
}
330
B7
100
AcDbXrecord
 70
     1
  0
XRECORD
  5
BA
102
{ACAD_REACTORS
330
B7
102
}
330
B7
100
AcDbXrecord
 90
        0
  0
XRECORD
  5
B9
102
{ACAD_REACTORS
330
B7
102
}
330
B7
100
AcDbXrecord
 90
        0
  0
DICTIONARY
  5
116
330
45
100
AcDbDictionary
280
     1
  3
ACAD_XREC_ROUNDTRIP
360
117
  0
DICTIONARY
  5
114
330
44
100
AcDbDictionary
280
     1
  3
ACAD_XREC_ROUNDTRIP
360
115
  0
DICTIONARY
  5
118
330
46
100
AcDbDictionary
280
     1
  3
ACAD_XREC_ROUNDTRIP
360
119
  0
XRECORD
  5
117
102
{ACAD_REACTORS
330
116
102
}
330
116
100
AcDbXrecord
102
MATERIAL
148
0.0
149
0.0
149
0.0
 93
        0
 94
      127
282
     0
 72
     1
 77
     1
171
     1
175
     1
179
     1
273
     0
  0
XRECORD
  5
115
102
{ACAD_REACTORS
330
114
102
}
330
114
100
AcDbXrecord
102
MATERIAL
148
0.0
149
0.0
149
0.0
 93
        0
 94
      127
282
     0
 72
     1
 77
     1
171
     1
175
     1
179
     1
273
     0
  0
XRECORD
  5
119
102
{ACAD_REACTORS
330
118
102
}
330
118
100
AcDbXrecord
102
MATERIAL
148
0.0
149
0.0
149
0.0
 93
        0
 94
      127
282
     0
 72
     1
 77
     1
171
     1
175
     1
179
     1
273
     0
  0
ENDSEC
  0
EOF
