<?xml version="1.0" encoding="UTF-8" standalone="no"?>
<!-- Created with Inkscape (http://www.inkscape.org/) -->
<svg
   xmlns:dc="http://purl.org/dc/elements/1.1/"
   xmlns:cc="http://web.resource.org/cc/"
   xmlns:rdf="http://www.w3.org/1999/02/22-rdf-syntax-ns#"
   xmlns:svg="http://www.w3.org/2000/svg"
   xmlns="http://www.w3.org/2000/svg"
   xmlns:sodipodi="http://sodipodi.sourceforge.net/DTD/sodipodi-0.dtd"
   xmlns:inkscape="http://www.inkscape.org/namespaces/inkscape"
   id="svg2251"
   sodipodi:version="0.32"
   inkscape:version="0.45.1"
   width="2340.8633"
   height="3425.2717"
   version="1.0"
   sodipodi:docbase="/u/rharron/MAT201"
   sodipodi:docname="Length2Helix.svg"
   inkscape:output_extension="org.inkscape.output.svg.inkscape">
  <metadata
     id="metadata2256">
    <rdf:RDF>
      <cc:Work
         rdf:about="">
        <dc:format>image/svg+xml</dc:format>
        <dc:type
           rdf:resource="http://purl.org/dc/dcmitype/StillImage" />
      </cc:Work>
    </rdf:RDF>
  </metadata>
  <defs
     id="defs2254">
    <marker
       inkscape:stockid="TriangleInL"
       orient="auto"
       refY="0"
       refX="0"
       id="TriangleInL"
       style="overflow:visible">
      <path
         id="path4337"
         d="M 5.77,0 L -2.88,5 L -2.88,-5 L 5.77,0 z "
         style="fill-rule:evenodd;stroke:#000000;stroke-width:1pt;marker-start:none"
         transform="scale(-0.8,-0.8)" />
    </marker>
    <marker
       inkscape:stockid="TriangleOutL"
       orient="auto"
       refY="0"
       refX="0"
       id="TriangleOutL"
       style="overflow:visible">
      <path
         id="path4346"
         d="M 5.77,0 L -2.88,5 L -2.88,-5 L 5.77,0 z "
         style="fill-rule:evenodd;stroke:#000000;stroke-width:1pt;marker-start:none"
         transform="scale(0.8,0.8)" />
    </marker>
    <marker
       inkscape:stockid="Arrow2Lend"
       orient="auto"
       refY="0"
       refX="0"
       id="Arrow2Lend"
       style="overflow:visible">
      <path
         id="path4269"
         style="font-size:12px;fill-rule:evenodd;stroke-width:0.625;stroke-linejoin:round"
         d="M 8.7185878,4.0337352 L -2.2072895,0.016013256 L 8.7185884,-4.0017078 C 6.97309,-1.6296469 6.9831476,1.6157441 8.7185878,4.0337352 z "
         transform="matrix(-1.1,0,0,-1.1,-1.1,0)" />
    </marker>
  </defs>
  <sodipodi:namedview
     inkscape:window-height="943"
     inkscape:window-width="1353"
     inkscape:pageshadow="2"
     inkscape:pageopacity="0.0"
     guidetolerance="10.0"
     gridtolerance="10.0"
     objecttolerance="10.0"
     borderopacity="1.0"
     bordercolor="#666666"
     pagecolor="#ffffff"
     id="base"
     inkscape:zoom="0.16805399"
     inkscape:cx="2016.9076"
     inkscape:cy="1685.7494"
     inkscape:window-x="5"
     inkscape:window-y="24"
     inkscape:current-layer="g2270"
     showguides="true"
     inkscape:guide-bbox="true" />
  <g
     id="g2270"
     transform="translate(-2997.2877,0.2717285)">
    <path
       style="fill:#fdfdfd;fill-opacity:0"
       d="M 3000,1712.5 L 3000,0 L 4146,0 L 5292,0 L 5292,1712.5 L 5292,3425 L 4146,3425 L 3000,3425 L 3000,1712.5 z "
       id="path2264" />
    <path
       style="fill:#3a3a3a"
       d="M 3774,3396.2 C 3774,3375.1333 3773.6778,3367.0778 3772.8,3366.2 C 3772.0594,3365.4594 3768.4222,3365 3763.3,3365 L 3755,3365 L 3755,3361.5191 C 3755,3358.5252 3755.3848,3357.9591 3757.75,3357.4736 C 3768.7782,3355.2097 3773.0578,3352.3368 3775.2527,3345.7239 C 3776.5263,3341.8866 3776.9907,3341.4716 3780.3273,3341.1896 L 3784,3340.8793 L 3784,3382.9396 L 3784,3425 L 3779,3425 L 3774,3425 L 3774,3396.2 z M 3727.6515,3311.75 C 3726.3038,3309.9625 3720.9462,3301.9718 3715.7457,3293.9929 C 3710.5452,3286.014 3705.6004,3278.9133 3704.7574,3278.2136 C 3703.45,3277.1286 3702.0042,3278.2767 3694.9303,3286.0164 C 3688.8592,3292.6591 3686.0818,3295.0122 3684.568,3294.7957 C 3680.2126,3294.1729 3681.51,3290.3484 3688.9277,3281.9444 C 3693.3762,3276.9042 3696,3273.0668 3696,3271.6006 C 3696,3268.6615 3699.5942,3264 3701.8603,3264 C 3702.8037,3264 3704.9769,3262.7625 3706.6896,3261.25 C 3711.2003,3257.2666 4141,2769.2291 4141,2768.0905 C 4141,2766.7862 4142.9653,2767.234 4092.1547,2756.9597 C 4067.0661,2751.8866 4046.4279,2748.1724 4045.9553,2748.6453 C 4045.4855,2749.1154 4044.7409,2752.4189 4044.3006,2755.9864 C 4043.6699,2761.0959 4043.1123,2762.5474 4041.6736,2762.8244 C 4039.983,2763.1499 4039.8988,2762.5846 4040.5412,2755.2198 C 4040.923,2750.8438 4040.8448,2747.0293 4040.3676,2746.7431 C 4039.8904,2746.4569 4017.5299,2741.7851 3990.6776,2736.3614 C 3942.9753,2726.7262 3941.8225,2726.5445 3940.4276,2728.4411 C 3939.6424,2729.5088 3939,2731.842 3939,2733.626 C 3939,2737.726 3937.4066,2742 3935.878,2742 C 3935.0342,2742 3934.8776,2739.9723 3935.3183,2734.75 C 3935.6548,2730.7625 3935.5575,2726.8983 3935.1022,2726.163 C 3933.9037,2724.2273 3837.1037,2704.6691 3835.4627,2706.031 C 3834.783,2706.595 3833.9156,2709.9641 3833.535,2713.5178 C 3832.8485,2719.9286 3831.6874,2722.0874 3829.8916,2720.2916 C 3829.3128,2719.7128 3829.3313,2716.7221 3829.9402,2712.4288 C 3830.6791,2707.2187 3830.6224,2705.2181 3829.7114,2704.3634 C 3828.1383,2702.8874 3732.6352,2683.5423 3730.6613,2684.2997 C 3729.6827,2684.6752 3728.9321,2686.9012 3728.5072,2690.688 C 3727.6613,2698.2263 3727.3779,2699 3725.4627,2699 C 3724.0733,2699 3723.9529,2697.9638 3724.5489,2691.1317 C 3725.021,2685.7202 3724.8855,2683.0473 3724.1152,2682.5712 C 3723.4992,2682.1905 3701.2837,2677.4357 3674.7476,2672.005 C 3634.2595,2663.719 3626.2789,2662.3472 3625.1255,2663.4757 C 3624.2442,2664.3379 3623.2093,2670.1449 3622.2413,2679.6602 C 3620.7311,2694.505 3619.9529,2697.3529 3617.9531,2695.3531 C 3617.2239,2694.6239 3617.4293,2689.5448 3618.63,2678.6157 C 3620.122,2665.0355 3620.1619,2662.748 3618.9269,2661.6075 C 3617.6672,2660.4442 3525.0954,2640.9998 3520.8174,2640.9999 C 3518.9165,2641 3518.4255,2642.2866 3517.4787,2649.7489 C 3517.1123,2652.6358 3516.3656,2655.2741 3515.8192,2655.6118 C 3513.7296,2656.9032 3513.1093,2654.3014 3514.0028,2647.9918 C 3514.6882,2643.1514 3514.6093,2641.1864 3513.6927,2640.2674 C 3511.8537,2638.4235 3415.7692,2618.9847 3414.323,2620.164 C 3413.6756,2620.6919 3412.8319,2624.0566 3412.448,2627.6412 C 3411.9992,2631.8318 3411.2437,2634.353 3410.3319,2634.7029 C 3408.0026,2635.5967 3407.7682,2634.487 3408.7233,2627.0859 C 3409.2243,2623.2031 3409.3245,2619.5251 3408.946,2618.9126 C 3408.1609,2617.6423 3311.3064,2597.6684 3309.4276,2598.3894 C 3308.752,2598.6486 3307.9054,2600.8046 3307.5461,2603.1804 C 3306.2684,2611.6303 3305.8249,2613 3304.3664,2613 C 3303.1615,2613 3302.9474,2611.4915 3303.1959,2604.7526 L 3303.5,2596.5051 L 3256,2586.7857 C 3229.875,2581.44 3207.2928,2577.0514 3205.8174,2577.0331 C 3202.7996,2576.9959 3202.486,2577.6668 3201.51,2586.25 C 3201.0227,2590.5349 3200.4554,2592 3199.2837,2592 C 3197.9463,2592 3197.7942,2590.9036 3198.2661,2584.6642 C 3198.5713,2580.6294 3198.4706,2576.7615 3198.0425,2576.0687 C 3197.22,2574.738 3100.4137,2554.6273 3098.4527,2555.3798 C 3097.8208,2555.6223 3096.5837,2562.2282 3095.5924,2570.6535 C 3093.55,2588.0131 3093.3262,2589 3091.4326,2589 C 3089.5885,2589 3089.6419,2586.8361 3091.9139,2569.5 C 3092.997,2561.2353 3093.3867,2555.0438 3092.865,2554.3863 C 3092.379,2553.7738 3083.3231,2551.5694 3072.7407,2549.4876 C 3062.1583,2547.4059 3052.9158,2545.2464 3052.2017,2544.6888 C 3050.2033,2543.1282 3051.1704,2539.5469 3053.687,2539.1887 C 3054.8899,2539.0175 3300.493,2588.6721 3599.4717,2649.5324 C 3898.4504,2710.3926 4143.7287,2759.9343 4144.5347,2759.6251 C 4145.8187,2759.1323 4145.9981,2704.8455 4145.9847,2320.7814 C 4145.9763,2079.7266 4145.6145,1881.9412 4145.1808,1881.2582 C 4144.5722,1880.3 4135.9574,1881.4839 4107.4461,1886.4443 C 4059.6278,1894.7637 3957.5815,1908.1456 3909,1912.4677 C 3881.0212,1914.9568 3817.8824,1918.9274 3789.5,1919.9825 C 3755.2438,1921.2561 3650.5557,1921.2681 3621,1920.0019 C 3557.7117,1917.2905 3538.9817,1915.9801 3492.8035,1911.0331 C 3437.7413,1905.1343 3378.4351,1895.8263 3332.5,1885.8736 C 3274.4547,1873.297 3235.6584,1861.679 3187,1842.3018 C 3143.3997,1824.939 3118.4598,1812.3238 3089.5,1792.9843 C 3069.5043,1779.6311 3060.4137,1772.438 3046.621,1759.0555 C 3034.0514,1746.8596 3027.7482,1739.2635 3018.5549,1725.2323 C 3004.6704,1704.0415 2999.999,1687.7893 3000.0015,1660.6846 C 3000.0029,1645.7997 3000.249,1643.5765 3003.0662,1633 C 3007.3171,1617.0411 3013.8352,1603.9983 3025.055,1589 C 3041.2496,1567.3515 3060.0085,1550.153 3088.5,1530.8321 C 3116.9292,1511.5535 3166.3223,1486.851 3197.3935,1476.3723 C 3202.8349,1474.5372 3212.7349,1471.0245 3219.3935,1468.5663 C 3239.7332,1461.0574 3288.1187,1447.3464 3315,1441.4743 C 3373.216,1428.7572 3389.4311,1425.7155 3426.5,1420.5584 C 3506.4985,1409.429 3517.8832,1408.323 3593,1404.3841 C 3635.2756,1402.1672 3652.213,1401.7411 3697,1401.7671 C 3746.1913,1401.7958 3761.7264,1402.188 3825.5,1405.0111 C 3904.0654,1408.489 4012.3542,1420.5886 4099.3072,1435.6049 C 4123.4011,1439.7657 4143.7636,1442.921 4144.5572,1442.6164 C 4145.8123,1442.1348 4145.998,1354.9988 4145.9847,772.78138 C 4145.9763,404.67662 4145.6388,103.01891 4145.2347,102.43092 C 4143.2295,99.513066 4020.6195,80.330082 3967,74.545147 C 3913.0887,68.72873 3863.8966,64.423168 3841,63.516919 C 3833.025,63.201268 3816.825,62.211397 3805,61.317205 C 3787.9629,60.028878 3767.3092,59.671537 3705.5,59.595701 C 3608.9713,59.477266 3576.0902,60.93139 3503.5,68.528876 C 3410.2095,78.292918 3328.0988,93.790686 3252.5,115.90322 C 3192.1698,133.54971 3118.4818,168.00277 3081.5,195.85479 C 3065.4314,207.95651 3042.5607,230.68703 3034.0641,243 C 3028.9156,250.46109 3018.5742,270.35514 3016.6501,276.5 C 3008.6073,302.18521 3012.0081,330.53382 3026.1184,355.42581 C 3033.2113,367.9384 3042.4155,379.57669 3055.2062,392.20574 C 3078.7956,415.49715 3098.2557,428.80559 3140.5,450.53672 C 3164.8141,463.04426 3184.5403,471.74897 3205,478.99905 C 3212.425,481.63016 3225.0208,486.1112 3232.9905,488.95691 C 3265.4057,500.53115 3340.8454,519.1371 3389,527.43407 C 3406.5926,530.46525 3477.9256,540.28406 3498,542.43764 C 3542.9432,547.25915 3600.3808,550.52075 3664.5,551.89236 C 3686.5,552.36298 3705.2265,553.05447 3706.1146,553.42902 C 3710.466,555.26442 3710.3474,562.67336 3705.9287,565.03818 C 3703.6973,566.23236 3642.6754,565.10638 3593.8439,562.96998 C 3569.9628,561.92518 3516.2434,557.88389 3494.4554,555.49303 C 3470.7468,552.89142 3394.7586,542.10665 3377.6918,538.92113 C 3341.2325,532.11598 3292.3543,520.49394 3253.779,509.45768 C 3234.6459,503.98378 3189.2204,487.88168 3168.6915,479.29652 C 3156.1887,474.06787 3122.2906,457.01829 3108.513,449.02879 C 3097.7514,442.78829 3074.2339,426.82542 3064.5,419.15428 C 3048.371,406.4433 3029.0921,385.5087 3018.7612,369.4875 C 3012.2961,359.46127 3008.8125,352.07072 3004.3905,339 L 3000.5,327.5 L 3000.5,305.5 L 3000.5,283.5 L 3003.7369,273.38571 C 3014.9302,238.41079 3043.6185,204.60827 3086,176.45784 C 3113.5034,158.18964 3146.004,141.25093 3178.5,128.24851 C 3189.5,123.84715 3200.3,119.68276 3202.5,118.99431 C 3204.7,118.30585 3214.4503,114.89191 3224.1673,111.40776 C 3250.4758,101.97457 3298.2077,89.17051 3341,80.067438 C 3420.0316,63.255301 3512.2958,51.839258 3605,47.402183 C 3633.5611,46.035172 3652.9271,45.855468 3717.5,46.35826 C 3760.4,46.692298 3800.675,47.402266 3807,47.935967 C 3813.325,48.469669 3828.625,49.396907 3841,49.996495 C 3868.5841,51.332989 3919.3925,55.746945 3968.0024,61.029768 C 4004.2989,64.974401 4094.2665,78.079297 4126.2413,84.079242 C 4135.449,85.80703 4143.6615,86.960146 4144.4913,86.641722 C 4145.804,86.137982 4146,80.454868 4146,42.895461 L 4146,-0.27184796 L 4150.6396,0.36407602 C 4153.1913,0.71383421 4158.8163,1 4163.1396,1 C 4169.46,1 4171,1.2938862 4171,2.5 C 4171,3.7128514 4169.4111,4 4162.7,4 C 4157.5778,4 4153.9406,4.4594378 4153.2,5.2 C 4151.4767,6.9232858 4151.4767,84.076714 4153.2,85.8 C 4153.9406,86.540562 4157.5778,87 4162.7,87 C 4169.1941,87 4171,87.308233 4171,88.416667 C 4171,89.195833 4169.7625,90.245907 4168.25,90.750164 C 4166.0113,91.496539 4170.8916,92.71844 4194.5,97.322442 C 4240.2423,106.24289 4330.2389,128.47495 4384,144.13505 C 4448.1979,162.83528 4507.4407,183.17162 4573,209.0133 C 4681.0122,251.58877 4761.326,291.17544 4858,349.48982 C 4969.8452,416.95561 5076.3373,507.15667 5149.622,596.5 C 5175.9836,628.63801 5208.899,677.42381 5227.2117,711.5 C 5255.7726,764.64582 5274.4476,813.2617 5286.4615,865.74252 L 5292,889.93629 L 5292,983.5103 C 5292,1087.2353 5292.5574,1077.4629 5284.8422,1109 C 5270.3199,1168.3626 5242.3874,1233.8119 5208.3246,1288.2908 C 5183.6482,1327.7574 5152.9799,1368.8203 5127.5073,1396.5 C 5121.4336,1403.1 5110.9698,1414.6396 5104.2544,1422.1435 C 5060.2312,1471.3358 4965.7245,1548.9166 4891.6979,1596.6316 C 4867.6314,1612.1441 4819.6896,1640.7535 4799.7531,1651.5 C 4790.57,1656.45 4783.0439,1660.7973 4783.0283,1661.1606 C 4783.0127,1661.5239 4789.6375,1665.5127 4797.75,1670.0246 C 4820.8526,1682.8735 4870.1236,1712.4052 4885,1722.32 C 4926.9409,1750.2726 4954.296,1769.6175 4977,1787.3803 C 5033.8414,1831.851 5067.9603,1862.6767 5110.713,1908.1872 C 5158.1571,1958.6917 5200.0566,2016.6568 5231.6536,2075.5 C 5258.2352,2125.003 5281.3114,2188.9902 5290.0158,2237.3303 C 5291.899,2247.7891 5292,2252.9582 5291.9998,2338.9249 C 5291.9996,2443.0369 5292.3458,2438.1257 5282.5142,2473.5 C 5268.6097,2523.5291 5253.8206,2561.1155 5230.7729,2605 C 5215.8347,2633.4435 5191.7491,2671.6836 5173.1415,2696.5 C 5162.4652,2710.7387 5131.5574,2748.359 5118.9177,2762.5 C 5099.8629,2783.8181 5055.8689,2826.4132 5029.5,2849.0746 C 5007.7343,2867.78 4953.9426,2910.4363 4943.25,2917.47 C 4938.6122,2920.5209 4938.076,2921.5796 4940.75,2922.4062 C 4941.7125,2922.7038 5011.099,2936.9056 5094.9422,2953.9658 C 5178.7854,2971.026 5247.7901,2985.3901 5248.286,2985.886 C 5248.7818,2986.3818 5249.029,2987.6229 5248.8352,2988.6438 C 5248.2602,2991.6732 5243.7398,2991.449 5224.2235,2987.4232 C 5213.049,2985.1181 5205.5882,2984.0119 5205.0236,2984.5765 C 5204.3574,2985.2429 5200,3013.0335 5200,3016.6164 C 5200,3016.8274 5199.325,3017 5198.5,3017 C 5196.5455,3017 5196.5684,3014.6726 5198.689,2997.7559 C 5199.7823,2989.0341 5200.0626,2983.6761 5199.4559,2983.0929 C 5198.9302,2982.5875 5176.675,2977.6992 5150,2972.2302 C 5102.019,2962.3928 5101.4813,2962.3074 5099.75,2964.254 C 5098.7875,2965.3361 5097.9939,2967.6342 5097.9863,2969.3608 C 5097.9656,2974.1309 5096.9341,2977 5095.2398,2977 C 5093.9602,2977 5093.8131,2975.9065 5094.3316,2970.25 C 5094.672,2966.5375 5094.5661,2962.8867 5094.0964,2962.1371 C 5092.7646,2960.0117 4995.0103,2940.3653 4993.989,2942.0179 C 4993.556,2942.7184 4992.8956,2946.151 4992.5213,2949.6458 C 4992.0543,2954.0065 4991.4137,2956 4990.4794,2956 C 4988.2818,2956 4988.0496,2954.7229 4989.0119,2947.9277 C 4989.6842,2943.1801 4989.6055,2941.2003 4988.711,2940.3533 C 4987.4899,2939.197 4934.3827,2928 4930.1196,2928 C 4928.8298,2928 4919.8749,2933.4167 4909.6628,2940.3739 C 4899.6733,2947.1796 4883.85,2957.4562 4874.5,2963.2109 C 4865.15,2968.9656 4852.9107,2976.6502 4847.3017,2980.2878 C 4832.7291,2989.7384 4757.86,3031.0619 4730.5,3044.7556 C 4710.5806,3054.7253 4653.0807,3081.2145 4629.5,3091.2844 C 4580.9124,3112.0335 4500.0589,3142.5958 4461.5,3154.7878 C 4354.2395,3188.7028 4298.6559,3203.8467 4215,3221.9473 C 4148.1122,3236.4198 4030.6267,3255.5284 3963,3262.9343 C 3943.1534,3265.1077 3885.7555,3270.2601 3862,3272.0007 C 3831.9753,3274.2006 3762.5337,3276.9769 3737.25,3276.9882 C 3721.7136,3276.9952 3711,3277.3801 3711,3277.9314 C 3711,3278.4437 3715.95,3286.4308 3722,3295.6806 C 3728.05,3304.9304 3733,3313.0613 3733,3313.7492 C 3733,3316.0903 3730.1091,3315.0097 3727.6515,3311.75 z M 3806.5,3261.6395 C 3874.2067,3258.1531 3945.3337,3251.9728 3999,3244.913 C 4041.8747,3239.2729 4125.82,3225.5971 4174,3216.4033 C 4225.2653,3206.6207 4304.6038,3187.5673 4359.5,3171.8549 C 4372.9836,3167.9956 4437.2003,3148.153 4463,3139.8739 C 4483.0889,3133.4274 4545.2221,3110.6326 4574.5,3098.9678 C 4640.9883,3072.4778 4709.0547,3041.2411 4757.5,3014.9863 C 4818.636,2981.8538 4847.0452,2965.0754 4890.2355,2936.593 C 4905.6935,2926.399 4908.0548,2924.5132 4906.6486,2923.485 C 4904.3586,2921.8105 4890.1154,2919.4794 4889.0211,2920.6 C 4888.5376,2921.095 4887.7707,2924.1942 4887.3167,2927.4871 C 4886.6871,2932.0538 4886.0654,2933.5563 4884.6964,2933.8199 C 4883.0524,2934.1366 4882.9583,2933.54 4883.5763,2926.7194 C 4884.0806,2921.1553 4883.9279,2919.0734 4882.9722,2918.4828 C 4882.2688,2918.0481 4860.0498,2913.2779 4833.5967,2907.8824 L 4785.5,2898.0723 L 4783.75,2900.1469 C 4782.7875,2901.288 4781.9939,2903.6342 4781.9863,2905.3608 C 4781.9657,2910.1093 4780.9363,2913 4779.2659,2913 C 4778.0056,2913 4777.875,2911.8265 4778.451,2905.6793 C 4778.9684,2900.1579 4778.813,2898.0961 4777.8185,2897.2904 C 4777.0933,2896.7029 4754.5477,2891.7847 4727.717,2886.3611 C 4690.1496,2878.7671 4678.7551,2876.7883 4678.1556,2877.754 C 4677.7274,2878.4437 4676.5417,2885.7993 4675.5208,2894.0997 C 4674.2253,2904.6319 4673.2489,2909.351 4672.2891,2909.7193 C 4671.5327,2910.0096 4670.6698,2910.0031 4670.3715,2909.7049 C 4670.0733,2909.4067 4670.7712,2902.0581 4671.9222,2893.3746 C 4673.6847,2880.0792 4673.8009,2877.3723 4672.6579,2876.2294 C 4671.9045,2875.4759 4649.7709,2870.4725 4622.9004,2864.9814 L 4574.5,2855.0906 L 4572.75,2857.1561 C 4571.5553,2858.5661 4571,2860.9317 4571,2864.6108 C 4571,2869.37 4570.7613,2870 4568.9583,2870 C 4567.0293,2870 4566.953,2869.5983 4567.5763,2862.7203 C 4568.0821,2857.1388 4567.9168,2855.1882 4566.868,2854.3584 C 4564.953,2852.8432 4469.5032,2833.5929 4467.5748,2834.3329 C 4466.4844,2834.7513 4465.9958,2836.2542 4465.9863,2839.2186 C 4465.9676,2845.0818 4465.0544,2848 4463.2383,2848 C 4461.9583,2848 4461.8043,2846.8739 4462.291,2841.0693 C 4462.7189,2835.9655 4462.5239,2833.8497 4461.5512,2833.0425 C 4459.4234,2831.2766 4363.6741,2812.0485 4362.3635,2813.1239 C 4361.7384,2813.6369 4360.9151,2816.9688 4360.5339,2820.5283 C 4360.0285,2825.2477 4359.442,2827 4358.3679,2827 C 4357.1822,2827 4356.9342,2825.5179 4357.0961,2819.4009 C 4357.2152,2814.8993 4356.8646,2811.5364 4356.2358,2811.1509 C 4355.652,2810.7929 4333.2785,2806.0541 4306.5169,2800.6202 C 4272.9054,2793.7955 4257.5387,2791.0613 4256.822,2791.778 C 4256.2514,2792.3486 4255.5464,2795.782 4255.2553,2799.4077 C 4254.8113,2804.939 4254.4313,2806 4252.8944,2806 C 4251.2204,2806 4251.1156,2805.313 4251.6776,2798.0248 C 4252.1656,2791.6962 4252.0043,2789.9425 4250.8963,2789.5311 C 4247.6146,2788.3128 4155.5264,2769.9445 4154.0865,2770.221 C 4152.7031,2770.4867 4152.436,2773.7888 4152,2796.0129 L 4151.5,2821.5 L 4149,2821.5 L 4146.5,2821.5 L 4146,2799.5 C 4145.6405,2783.6828 4145.1719,2777.5 4144.3326,2777.5 C 4142.6894,2777.5 4065,2865.8226 4065,2867.6907 C 4065,2868.5331 4067.25,2872.9472 4070,2877.5 C 4075.282,2886.2447 4076.1872,2889.3753 4073.2713,2888.8137 C 4071.86,2888.5419 4067.4878,2882.4046 4062.0394,2873.0472 C 4061.2998,2871.7769 4060.9734,2871.7769 4059.44,2873.0472 C 4054.7978,2876.8931 3976.0003,2967.3219 3976.0019,2968.8015 C 3976.003,2969.7357 3978.253,2974.2396 3981.0019,2978.8102 C 3985.856,2986.8811 3987.3223,2991.5668 3984.75,2990.7884 C 3984.0625,2990.5803 3980.8783,2986.4661 3977.674,2981.6457 C 3972.5808,2973.9837 3971.6475,2973.046 3970.2539,2974.1906 C 3967.6827,2976.3025 3886,3069.1759 3886,3069.9874 C 3886,3070.3937 3888.4668,3074.5002 3891.4817,3079.1131 C 3894.4966,3083.7259 3896.9716,3088.2875 3896.9817,3089.25 C 3897.0218,3093.0804 3893.7497,3090.6034 3888.7555,3083.0225 C 3885.865,3078.6349 3882.825,3075.0667 3882,3075.0932 C 3880.3548,3075.1461 3797.671,3168.7694 3797.2229,3171.0868 C 3797.0705,3171.8749 3799.4562,3176.5179 3802.5243,3181.4047 C 3807.6655,3189.5931 3808.8483,3193.7596 3805.7495,3192.7655 C 3805.0623,3192.545 3802.6246,3189.4701 3800.3325,3185.9323 C 3794.0476,3176.2321 3793.4853,3175.5821 3792.112,3176.4308 C 3789.9638,3177.7584 3716,3262.0142 3716,3263.1337 C 3716,3264.5614 3765.6865,3263.7411 3806.5,3261.6395 z M 4606.4063,3019.9217 C 4604.7048,3019.4279 4601.0234,3016.6033 4598.2255,3013.6449 C 4594.1695,3009.3563 4592.6683,3006.7696 4590.8192,3000.883 C 4588.7815,2994.3963 4588.502,2991.497 4588.5167,2977 C 4588.5411,2952.8987 4591.5492,2943.7775 4601.8641,2936.5279 C 4605.8715,2933.7114 4606.7886,2933.5 4615,2933.5 C 4623.2114,2933.5 4624.1285,2933.7114 4628.1359,2936.5279 C 4638.4508,2943.7775 4641.4589,2952.8987 4641.4833,2977 C 4641.498,2991.497 4641.2185,2994.3963 4639.1808,3000.883 C 4637.3341,3006.762 4635.8294,3009.3575 4631.7947,3013.6236 C 4628.5982,3017.0034 4625.3936,3019.3518 4623.1138,3019.985 C 4618.7747,3021.1903 4610.6714,3021.1596 4606.4063,3019.9217 z M 4621.1367,3009.803 C 4628.0755,3005.9032 4631.9849,2994.0818 4631.9849,2977 C 4631.9849,2959.9182 4628.0755,2948.0968 4621.1367,2944.197 C 4618.9867,2942.9886 4616.2252,2942 4615,2942 C 4613.7748,2942 4611.0133,2942.9886 4608.8633,2944.197 C 4601.9245,2948.0968 4598.0151,2959.9182 4598.0151,2977 C 4598.0151,2993.9004 4601.9077,3005.8152 4608.7186,3009.7625 C 4613.5149,3012.5423 4616.247,3012.5512 4621.1367,3009.803 z M 4703.7121,3019.8458 C 4701.6124,3019.2569 4697.4953,3016.5635 4694.4744,3013.8026 C 4690.2689,3009.959 4688.6793,3007.659 4687.5123,3003.7294 C 4686.6805,3000.9286 4686,2998.2687 4686,2997.8185 C 4686,2997.3683 4688.469,2997 4691.4866,2997 C 4696.8718,2997 4697.0018,2997.0686 4698.5247,3000.7134 C 4700.6102,3005.7046 4702.7347,3007.931 4707.5,3010.1193 C 4712.9295,3012.6125 4716.6854,3012.4594 4722.6177,3009.5032 C 4737.1847,3002.2442 4736.0261,2978.9208 4720.7821,2972.553 C 4714.0515,2969.7415 4708.6396,2970.7413 4701.9622,2976.03 C 4699.032,2978.3507 4697.2052,2979 4693.6061,2979 C 4690.5864,2979 4689,2978.5692 4689,2977.7492 C 4689,2977.0613 4690.35,2966.8242 4692,2955 C 4693.65,2943.1758 4695,2933.3887 4695,2933.2508 C 4695,2933.1128 4704.9,2933 4717,2933 L 4739,2933 L 4739,2938 L 4739,2943 L 4722.1224,2943 C 4709.81,2943 4704.9797,2943.3381 4704.2643,2944.25 C 4703.1196,2945.7093 4700.5402,2963.8735 4701.3612,2964.6945 C 4701.6669,2965.0002 4703.7448,2964.519 4705.9787,2963.6252 C 4710.7033,2961.7348 4718.2413,2961.5284 4724.5489,2963.1166 C 4729.9603,2964.4792 4737.2744,2970.6708 4740.2075,2976.3718 C 4743.1081,2982.0099 4743.7872,2993.7802 4741.6383,3001.1721 C 4739.7372,3007.7117 4733.6645,3015.0987 4727.6282,3018.2145 C 4722.8273,3020.6926 4709.88,3021.5757 4703.7121,3019.8458 z M 4660,3012 L 4660,3006 L 4666,3006 L 4672,3006 L 4672,3012 L 4672,3018 L 4666,3018 L 4660,3018 L 4660,3012 z M 4927.684,2911.3192 C 4942.3251,2901.3544 4958.6574,2888.8928 4986.6615,2866.3192 C 5020.6215,2838.9446 5032.8064,2828.259 5064.635,2797.9401 C 5094.317,2769.666 5106.7869,2756.2666 5132.9811,2724.5 C 5163.6109,2687.3542 5179.7363,2664.894 5199.7509,2631.5 C 5254.5267,2540.1074 5282.2478,2451.3322 5286.6049,2353.3547 C 5288.1534,2318.5345 5281.5593,2257.8765 5271.8906,2218 C 5267.1254,2198.3474 5252.4383,2153.8706 5244.5074,2135.0757 C 5217.4429,2070.9384 5180.9448,2012.2226 5129.1523,1949.5 C 5109.8581,1926.1339 5058.454,1873.6912 5033,1851.4049 C 4970.9451,1797.0726 4905.015,1749.3104 4833.0325,1706.5412 C 4797.9584,1685.7015 4769.8371,1670 4767.5874,1670 C 4766.7349,1670 4751.9665,1677.1796 4734.7687,1685.9546 C 4717.5709,1694.7296 4696.075,1705.3548 4687,1709.5662 C 4641.1558,1730.841 4549.162,1768.6337 4515.5,1780.0216 C 4506.15,1783.1847 4490.9172,1788.531 4481.6493,1791.9022 C 4464.926,1797.9853 4404.3602,1817.1616 4377.5,1824.8777 C 4353.9382,1831.6464 4285.7417,1849.5012 4263,1854.8554 C 4239.086,1860.4857 4186.5255,1871.8201 4166.5106,1875.6628 C 4159.3664,1877.0345 4153.1858,1878.6839 4152.7759,1879.3284 C 4151.5208,1881.3016 4151.873,1897.473 4153.2,1898.8 C 4154.0434,1899.6434 4159.6889,1900 4172.2,1900 C 4187.3556,1900 4190,1900.2228 4190,1901.5 C 4190,1902.7772 4187.3556,1903 4172.2,1903 C 4159.6889,1903 4154.0434,1903.3566 4153.2,1904.2 C 4151.4764,1905.9236 4151.4764,1984.0764 4153.2,1985.8 C 4153.9406,1986.5406 4157.5778,1987 4162.7,1987 C 4169.4111,1987 4171,1987.2871 4171,1988.5 C 4171,1989.7129 4169.4111,1990 4162.7,1990 C 4157.5778,1990 4153.9406,1990.4594 4153.2,1991.2 C 4151.4767,1992.9233 4151.4767,2070.0767 4153.2,2071.8 C 4153.9406,2072.5406 4157.5778,2073 4162.7,2073 C 4169.4111,2073 4171,2073.2871 4171,2074.5 C 4171,2075.7129 4169.4111,2076 4162.7,2076 C 4157.5778,2076 4153.9406,2076.4594 4153.2,2077.2 C 4152.3076,2078.0924 4152,2088.4222 4152,2117.5 C 4152,2146.5778 4152.3076,2156.9076 4153.2,2157.8 C 4153.9406,2158.5406 4157.5778,2159 4162.7,2159 C 4169.4111,2159 4171,2159.2871 4171,2160.5 C 4171,2161.7129 4169.4111,2162 4162.7,2162 C 4157.5778,2162 4153.9406,2162.4594 4153.2,2163.2 C 4152.3071,2164.0929 4152,2174.5333 4152,2204 C 4152,2233.4667 4152.3071,2243.9071 4153.2,2244.8 C 4153.9406,2245.5406 4157.5778,2246 4162.7,2246 C 4169.4111,2246 4171,2246.2871 4171,2247.5 C 4171,2248.7129 4169.4111,2249 4162.7,2249 C 4157.5778,2249 4153.9406,2249.4594 4153.2,2250.2 C 4152.3076,2251.0924 4152,2261.4222 4152,2290.5 C 4152,2319.5778 4152.3076,2329.9076 4153.2,2330.8 C 4154.0434,2331.6434 4159.6889,2332 4172.2,2332 C 4187.3556,2332 4190,2332.2228 4190,2333.5 C 4190,2334.7772 4187.3556,2335 4172.2,2335 C 4159.6889,2335 4154.0434,2335.3566 4153.2,2336.2 C 4152.3076,2337.0924 4152,2347.4222 4152,2376.5 C 4152,2405.5778 4152.3076,2415.9076 4153.2,2416.8 C 4153.9406,2417.5406 4157.5778,2418 4162.7,2418 C 4169.4111,2418 4171,2418.2871 4171,2419.5 C 4171,2420.7129 4169.4111,2421 4162.7,2421 C 4157.5778,2421 4153.9406,2421.4594 4153.2,2422.2 C 4151.4764,2423.9236 4151.4764,2502.0764 4153.2,2503.8 C 4153.9406,2504.5406 4157.5778,2505 4162.7,2505 C 4169.4111,2505 4171,2505.2871 4171,2506.5 C 4171,2507.7129 4169.4111,2508 4162.7,2508 C 4157.5778,2508 4153.9406,2508.4594 4153.2,2509.2 C 4151.4767,2510.9233 4151.4767,2588.0767 4153.2,2589.8 C 4153.9406,2590.5406 4157.5778,2591 4162.7,2591 C 4169.4111,2591 4171,2591.2871 4171,2592.5 C 4171,2593.7129 4169.4111,2594 4162.7,2594 C 4157.5778,2594 4153.9406,2594.4594 4153.2,2595.2 C 4151.4767,2596.9233 4151.4767,2674.0767 4153.2,2675.8 C 4153.9406,2676.5406 4157.5778,2677 4162.7,2677 C 4169.4111,2677 4171,2677.2871 4171,2678.5 C 4171,2679.714 4169.4025,2680 4162.6224,2680 C 4156.7548,2680 4153.9047,2680.4099 4153.1095,2681.3681 C 4151.5372,2683.2626 4152.0112,2753.5 4153.5963,2753.5 C 4154.1992,2753.5 4255.6139,2638.975 4378.9622,2499 C 4502.3104,2359.025 4605.0733,2242.5875 4607.3241,2240.25 C 4609.8019,2237.6767 4612.3206,2236 4613.7082,2236 C 4614.9687,2236 4616,2236.1882 4616,2236.4182 C 4616,2236.6482 4616.2515,2237.4918 4616.5589,2238.2928 C 4616.9044,2239.1932 4613.8504,2243.479 4608.5589,2249.5196 C 4603.8515,2254.8934 4600,2259.9576 4600,2260.7734 C 4600,2261.5893 4605.4,2270.7279 4612,2281.0815 C 4618.6,2291.4352 4624,2300.6354 4624,2301.5265 C 4624,2306.0344 4619.5567,2300.9153 4608.7807,2283.9926 C 4602.3047,2273.8228 4596.6134,2265.3711 4596.1333,2265.2111 C 4595.0835,2264.8612 4590.3404,2270.089 4545.6474,2320.8569 C 4526.5913,2342.5032 4511.0099,2360.9532 4511.022,2361.8569 C 4511.0341,2362.7606 4513.2841,2367.0928 4516.022,2371.4841 C 4518.7599,2375.8753 4521,2380.2958 4521,2381.3074 C 4521,2384.9545 4517.9086,2382.4085 4512.7342,2374.5 C 4509.8554,2370.1 4507.05,2366.5 4506.5,2366.5 C 4505.2004,2366.5 4421,2461.9248 4421,2463.3976 C 4421,2464.0137 4423.475,2468.2146 4426.5,2472.7328 C 4429.525,2477.2511 4432,2481.6346 4432,2482.4739 C 4432,2486.0758 4428.6448,2483.4428 4423.7555,2476.0041 C 4420.6267,2471.2438 4417.9061,2468.1107 4417.0323,2468.2615 C 4415.795,2468.4752 4342.0316,2550.9609 4334.3131,2560.7621 L 4331.7441,2564.0242 L 4336.5253,2572.2621 C 4339.1549,2576.793 4341.7887,2581.2763 4342.3782,2582.225 C 4343.1551,2583.4755 4343.1246,2584.2754 4342.2673,2585.1327 C 4340.5354,2586.8646 4338.7917,2585.0694 4333.7811,2576.3961 C 4331.0921,2571.7413 4328.9452,2569.0856 4328.0083,2569.2548 C 4326.3285,2569.5582 4243,2663.6666 4243,2665.2603 C 4243,2665.823 4245.475,2670.2059 4248.5,2675 C 4254.4622,2684.4492 4254.9762,2686 4252.1458,2686 C 4250.9048,2686 4248.6726,2683.3641 4245.3958,2678.0291 C 4242.7031,2673.6451 4239.825,2670.077 4239,2670.1 C 4237.0247,2670.1551 4158.5,2759.6121 4158.5,2761.8073 C 4158.5,2763.3143 4160.2283,2763.5302 4174.25,2763.7754 C 4186.7715,2763.9943 4190,2764.3311 4190,2765.4184 C 4190,2766.1706 4189.2606,2767.0698 4188.3569,2767.4165 C 4187.4532,2767.7633 4187.0021,2768.3354 4187.3545,2768.6878 C 4187.8133,2769.1467 4911.9602,2917.2049 4917.184,2917.9079 C 4917.5602,2917.9586 4922.2852,2914.9936 4927.684,2911.3192 z M 4732,2383.7 C 4732,2362.2444 4731.6787,2354.0787 4730.8,2353.2 C 4730.0594,2352.4594 4726.4222,2352 4721.3,2352 L 4713,2352 L 4713,2348.5191 C 4713,2345.5252 4713.3848,2344.9591 4715.75,2344.4736 C 4726.7782,2342.2097 4731.0578,2339.3368 4733.2527,2332.7239 C 4734.5263,2328.8866 4734.9907,2328.4716 4738.3273,2328.1896 L 4742,2327.8793 L 4742,2370.4396 L 4742,2413 L 4737,2413 L 4732,2413 L 4732,2383.7 z M 4633,2379.5 L 4633,2375 L 4667,2375 L 4701,2375 L 4701,2379.5 L 4701,2384 L 4667,2384 L 4633,2384 L 4633,2379.5 z M 4210,2378.1837 C 4210,2374.1945 4212.2849,2364.3619 4213.9873,2361.0249 C 4214.9802,2359.0787 4218.2017,2355.2297 4221.1463,2352.4716 C 4226.475,2347.4803 4229.9159,2345.1432 4243.7753,2337.1018 C 4255.467,2330.3181 4259.2906,2322.3631 4255.0599,2313.6237 C 4253.343,2310.0772 4251.7862,2308.5741 4247.7432,2306.5593 C 4244.9184,2305.1517 4241.4582,2304.0099 4240.0537,2304.022 C 4236.7762,2304.0501 4229.9964,2307.1585 4227.7881,2309.6454 C 4225.4769,2312.2482 4223,2318.3639 4223,2321.4679 C 4223,2323.8704 4222.7186,2324 4217.5,2324 C 4212.3295,2324 4212,2323.8532 4212,2321.5492 C 4212,2316.3391 4214.2679,2308.9303 4217.0298,2305.1175 C 4221.42,2299.0571 4227.5036,2295.9589 4236.3236,2295.2919 C 4247.6686,2294.4339 4253.3078,2296.1774 4259.6272,2302.4968 C 4266.7098,2309.5793 4268.7669,2318.0959 4265.8942,2328.4428 C 4264.2776,2334.2656 4254.4952,2343.4159 4243.5,2349.39 C 4232.8049,2355.2011 4226.5426,2360.05 4224.4121,2364.1699 C 4221.455,2369.8884 4221.8484,2370 4244.9686,2370 L 4266,2370 L 4266,2375 L 4266,2380 L 4238,2380 C 4211.6104,2380 4210,2379.8955 4210,2378.1837 z M 4246,1939.7 C 4246,1933.8 4245.5613,1929.9613 4244.8,1929.2 C 4243.9592,1928.3592 4238.4222,1928 4226.3,1928 L 4209,1928 L 4209,1922.3888 L 4209,1916.7777 L 4226.6389,1892.6388 C 4236.3403,1879.3625 4245.1938,1867.4875 4246.3132,1866.25 C 4247.7485,1864.6634 4249.4767,1864 4252.1743,1864 L 4256,1864 L 4256,1890.3 C 4256,1909.4222 4256.3275,1916.9275 4257.2,1917.8 C 4257.86,1918.46 4260.56,1919 4263.2,1919 L 4268,1919 L 4268,1923.5 L 4268,1928 L 4263.2,1928 C 4260.56,1928 4257.86,1928.54 4257.2,1929.2 C 4256.4387,1929.9613 4256,1933.8 4256,1939.7 L 4256,1949 L 4251,1949 L 4246,1949 L 4246,1939.7 z M 4244.8,1917.8 C 4246.2438,1916.3562 4246.5125,1886.4348 4245.0897,1885.5554 C 4244.105,1884.9469 4221.9993,1914.2866 4221.2322,1917.2203 C 4220.806,1918.8498 4221.73,1919 4232.1834,1919 C 4239.7296,1919 4244.0068,1918.5932 4244.8,1917.8 z M 3803.5,1906.0245 C 3832.31,1904.4942 3894.8949,1900.2088 3913,1898.5266 C 3984.9313,1891.8433 4142.5015,1868.9704 4145.1255,1864.8312 C 4146.1578,1863.2027 4146.2662,1459.9591 4145.2347,1458.3634 C 4144.1496,1456.6847 4061.7356,1442.6663 4022.5,1437.4865 C 3985.4613,1432.5967 3929.2183,1426.2859 3894.5,1423.124 C 3874.0592,1421.2624 3864.9889,1420.6544 3818,1417.9967 C 3787.206,1416.255 3722.525,1414.6195 3688.5,1414.7222 C 3637.9824,1414.8747 3543.1034,1419.8268 3500.5,1424.5346 C 3470.497,1427.8501 3408.7243,1436.56 3386.5,1440.6085 C 3363.0524,1444.8798 3306.3565,1457.1387 3291.5,1461.1495 C 3250.9362,1472.1004 3207.1517,1486.5134 3180.9583,1497.5375 C 3127.3638,1520.0942 3084.0759,1546.9008 3055.927,1574.9649 C 3028.5105,1602.2987 3015.8596,1625.6672 3012.9082,1654.4277 C 3011.8561,1664.6797 3012.3807,1670.4683 3015.6764,1684.973 C 3020.0999,1704.4419 3032.0253,1723.9708 3051.94,1744.358 C 3067.6295,1760.4198 3075.7077,1766.9733 3099,1782.5353 C 3142.6956,1811.7293 3209.1502,1839.7202 3282,1859.6156 C 3352.5553,1878.8844 3453.6308,1895.3078 3545.5,1902.4308 C 3564.0019,1903.8654 3620.8865,1906.7311 3644,1907.3931 C 3667.2153,1908.058 3784.0987,1907.0551 3803.5,1906.0245 z M 4170.094,1861.0723 C 4195.3519,1855.9392 4248.9345,1844.2383 4266,1840.1292 C 4286.0111,1835.3109 4350.168,1818.4269 4369.5,1812.8914 C 4394.9072,1805.6163 4460.4909,1785.0602 4473.1081,1780.4171 C 4479.9237,1777.909 4495.625,1772.3398 4508,1768.0412 C 4550.7291,1753.1987 4637.4491,1717.5525 4683,1696.1076 C 4710.6616,1683.0848 4750.2842,1662.7217 4750.748,1661.29 C 4751.3977,1659.2845 4701.9778,1635.1048 4648.5,1611.2632 C 4608.8633,1593.5922 4521.5988,1559.35 4481.5,1545.7331 C 4427.7173,1527.4693 4373.098,1510.7316 4327.3074,1498.4818 C 4309.7209,1493.777 4269.6668,1484 4267.9791,1484 C 4267.4406,1484 4267,1486.8433 4267,1490.3185 C 4267,1507.2281 4257.5752,1518.542 4242.4795,1519.7537 C 4222.6363,1521.3465 4212.0367,1507.6717 4212.0076,1480.4411 C 4212.0031,1476.3143 4211.4808,1472.7261 4210.75,1471.8026 C 4209.6895,1470.4626 4175.3454,1462.4419 4157.6405,1459.3995 C 4153.3391,1458.6604 4152.0412,1459.7334 4152.0153,1464.05 C 4151.9873,1468.7097 4153.1711,1469 4172.2,1469 C 4187.3556,1469 4190,1469.2228 4190,1470.5 C 4190,1471.7772 4187.3556,1472 4172.2,1472 C 4159.6889,1472 4154.0434,1472.3566 4153.2,1473.2 C 4152.3076,1474.0924 4152,1484.4222 4152,1513.5 C 4152,1542.5778 4152.3076,1552.9076 4153.2,1553.8 C 4153.9406,1554.5406 4157.5778,1555 4162.7,1555 C 4169.4111,1555 4171,1555.2871 4171,1556.5 C 4171,1557.7129 4169.4111,1558 4162.7,1558 C 4157.5778,1558 4153.9406,1558.4594 4153.2,1559.2 C 4152.3076,1560.0924 4152,1570.4222 4152,1599.5 C 4152,1628.5778 4152.3076,1638.9076 4153.2,1639.8 C 4153.9406,1640.5406 4157.5778,1641 4162.7,1641 C 4169.4111,1641 4171,1641.2871 4171,1642.5 C 4171,1643.7129 4169.4111,1644 4162.7,1644 C 4157.5778,1644 4153.9406,1644.4594 4153.2,1645.2 C 4151.4764,1646.9236 4151.4764,1725.0764 4153.2,1726.8 C 4153.9406,1727.5406 4157.5778,1728 4162.7,1728 C 4169.4111,1728 4171,1728.2871 4171,1729.5 C 4171,1730.7129 4169.4111,1731 4162.7,1731 C 4157.5778,1731 4153.9406,1731.4594 4153.2,1732.2 C 4151.4767,1733.9233 4151.4767,1811.0767 4153.2,1812.8 C 4153.9406,1813.5406 4157.5778,1814 4162.7,1814 C 4169.4111,1814 4171,1814.2871 4171,1815.5 C 4171,1816.7129 4169.4111,1817 4162.7,1817 C 4157.5778,1817 4153.9406,1817.4594 4153.2,1818.2 C 4151.9015,1819.4985 4151.3985,1862.0652 4152.6667,1863.3333 C 4153.6763,1864.3429 4154.5731,1864.2266 4170.094,1861.0723 z M 4775.8769,1648.8502 C 4848.5245,1609.3034 4898.6491,1577.385 4957.5,1533.1961 C 5010.837,1493.1474 5065.123,1444.9505 5097.3855,1409.0011 C 5104.0485,1401.5767 5112.9725,1391.7931 5117.2166,1387.2597 C 5140.7287,1362.1452 5175.0149,1315.9734 5198.722,1277.5 C 5223.0587,1238.0048 5244.9958,1191.1126 5258.8369,1149 C 5283.7811,1073.1052 5291.1529,1007.2049 5283.4457,929.00768 C 5275.7213,850.63523 5243.3854,760.55706 5196.2185,686.01889 C 5169.837,644.32794 5151.2167,619.09975 5120.9211,584 C 5107.4421,568.38362 5075.6032,535.07688 5062.4941,522.87955 C 5011.5498,475.47828 4971.6919,443.0124 4917,404.36862 C 4879.9968,378.22319 4819.8476,341.55091 4769.9939,314.74065 C 4675.3631,263.85025 4568.0034,218.23668 4454.5,180.69783 C 4407.0879,165.01727 4380.4356,156.9147 4347,148.01669 C 4338.475,145.74799 4330.7125,143.6608 4329.75,143.3785 C 4327.3016,142.66038 4327.5673,144.38901 4330.6127,148.99094 C 4333.7528,153.7359 4334.8437,163.20613 4333.0247,169.92946 C 4331.3113,176.26245 4321.9809,185.15201 4310.5,191.39005 C 4299.8049,197.20112 4293.5426,202.05004 4291.4121,206.16992 C 4288.455,211.88842 4288.8484,212 4311.9686,212 L 4333,212 L 4333,217 L 4333,222 L 4305,222 C 4273.1544,222 4276.1333,223.05551 4278.091,212.46538 C 4279.5762,204.43116 4281.8419,200.37675 4288.1463,194.4716 C 4293.475,189.48034 4296.9159,187.14323 4310.7753,179.10183 C 4322.467,172.31815 4326.2906,164.36312 4322.0599,155.62371 C 4320.343,152.07716 4318.7862,150.57405 4314.7432,148.5593 C 4311.9184,147.15168 4308.5562,146 4307.2715,146 C 4304.338,146 4298.1828,148.53499 4295.6454,150.78814 C 4293.0976,153.05052 4290.0495,159.80532 4290.022,163.25 C 4290.0006,165.92221 4289.8405,166 4284.3623,166 L 4278.7246,166 L 4279.3806,160.25 C 4280.6291,149.30625 4287.6387,140.52074 4297.1693,137.95442 C 4299.4161,137.34942 4300.8597,136.48548 4300.3772,136.03457 C 4298.7073,134.47388 4222.3555,116.77442 4188.0071,109.98552 C 4162.783,105.00004 4153.3148,103.48139 4152.7724,104.33404 C 4151.4411,106.42673 4151.8471,171.44715 4153.2,172.8 C 4154.0434,173.64345 4159.6889,174 4172.2,174 C 4187.3556,174 4190,174.22285 4190,175.5 C 4190,176.77715 4187.3556,177 4172.2,177 C 4159.6889,177 4154.0434,177.35655 4153.2,178.2 C 4151.4767,179.92329 4151.4767,257.07671 4153.2,258.8 C 4153.9406,259.54056 4157.5778,260 4162.7,260 C 4169.4111,260 4171,260.28715 4171,261.5 C 4171,262.71285 4169.4111,263 4162.7,263 C 4157.5778,263 4153.9406,263.45944 4153.2,264.2 C 4151.4767,265.92329 4151.4767,343.07671 4153.2,344.8 C 4153.9406,345.54056 4157.5778,346 4162.7,346 C 4169.4111,346 4171,346.28715 4171,347.5 C 4171,348.71285 4169.4111,349 4162.7,349 C 4157.5778,349 4153.9406,349.45944 4153.2,350.2 C 4151.4764,351.92365 4151.4764,430.07635 4153.2,431.8 C 4153.9406,432.54056 4157.5778,433 4162.7,433 C 4169.4111,433 4171,433.28715 4171,434.5 C 4171,435.71285 4169.4111,436 4162.7,436 C 4157.5778,436 4153.9406,436.45944 4153.2,437.2 C 4151.4767,438.92329 4151.4767,516.07671 4153.2,517.8 C 4153.9406,518.54056 4157.5778,519 4162.7,519 C 4169.4111,519 4171,519.28715 4171,520.5 C 4171,521.71285 4169.4111,522 4162.7,522 C 4157.5778,522 4153.9406,522.45944 4153.2,523.2 C 4151.4767,524.92329 4151.4767,602.07671 4153.2,603.8 C 4154.0434,604.64345 4159.6889,605 4172.2,605 C 4187.3556,605 4190,605.22285 4190,606.5 C 4190,607.77715 4187.3556,608 4172.2,608 C 4159.6889,608 4154.0434,608.35655 4153.2,609.2 C 4151.4764,610.92365 4151.4764,689.07635 4153.2,690.8 C 4153.9406,691.54056 4157.5778,692 4162.7,692 C 4169.4111,692 4171,692.28715 4171,693.5 C 4171,694.71285 4169.4111,695 4162.7,695 C 4157.5778,695 4153.9406,695.45944 4153.2,696.2 C 4152.3076,697.09241 4152,707.42222 4152,736.5 C 4152,765.57778 4152.3076,775.90759 4153.2,776.8 C 4153.9406,777.54056 4157.5778,778 4162.7,778 C 4169.4111,778 4171,778.28715 4171,779.5 C 4171,780.71285 4169.4111,781 4162.7,781 C 4157.5778,781 4153.9406,781.45944 4153.2,782.2 C 4152.3076,783.09241 4152,793.42222 4152,822.5 C 4152,851.57778 4152.3076,861.90759 4153.2,862.8 C 4153.9406,863.54056 4157.5778,864 4162.7,864 C 4169.4111,864 4171,864.28715 4171,865.5 C 4171,866.71285 4169.4111,867 4162.7,867 C 4157.5778,867 4153.9406,867.45944 4153.2,868.2 C 4152.3071,869.09293 4152,879.53333 4152,909 C 4152,938.46667 4152.3071,948.90707 4153.2,949.8 C 4153.9406,950.54056 4157.5778,951 4162.7,951 C 4169.4111,951 4171,951.28715 4171,952.5 C 4171,953.71285 4169.4111,954 4162.7,954 C 4157.5778,954 4153.9406,954.45944 4153.2,955.2 C 4152.3076,956.09241 4152,966.42222 4152,995.5 C 4152,1024.5778 4152.3076,1034.9076 4153.2,1035.8 C 4154.0434,1036.6434 4159.6889,1037 4172.2,1037 C 4187.3556,1037 4190,1037.2228 4190,1038.5 C 4190,1039.7772 4187.3556,1040 4172.2,1040 C 4159.6889,1040 4154.0434,1040.3566 4153.2,1041.2 C 4152.3076,1042.0924 4152,1052.4222 4152,1081.5 C 4152,1110.5778 4152.3076,1120.9076 4153.2,1121.8 C 4153.9406,1122.5406 4157.5778,1123 4162.7,1123 C 4169.4111,1123 4171,1123.2871 4171,1124.5 C 4171,1125.7129 4169.4111,1126 4162.7,1126 C 4157.5778,1126 4153.9406,1126.4594 4153.2,1127.2 C 4151.4764,1128.9236 4151.4764,1207.0764 4153.2,1208.8 C 4153.9406,1209.5406 4157.5778,1210 4162.7,1210 C 4169.4111,1210 4171,1210.2871 4171,1211.5 C 4171,1212.7129 4169.4111,1213 4162.7,1213 C 4157.5778,1213 4153.9406,1213.4594 4153.2,1214.2 C 4151.4767,1215.9233 4151.4767,1293.0767 4153.2,1294.8 C 4153.9406,1295.5406 4157.5778,1296 4162.7,1296 C 4169.4111,1296 4171,1296.2871 4171,1297.5 C 4171,1298.7129 4169.4111,1299 4162.7,1299 C 4157.5778,1299 4153.9406,1299.4594 4153.2,1300.2 C 4152.3076,1301.0924 4152,1311.4222 4152,1340.5 C 4152,1369.5778 4152.3076,1379.9076 4153.2,1380.8 C 4153.9406,1381.5406 4157.5778,1382 4162.7,1382 C 4169.4111,1382 4171,1382.2871 4171,1383.5 C 4171,1384.7129 4169.4111,1385 4162.7,1385 C 4157.5778,1385 4153.9406,1385.4594 4153.2,1386.2 C 4151.8454,1387.5546 4151.4486,1441.5849 4152.7778,1443.6748 C 4153.1888,1444.3209 4157.3444,1445.526 4162.0125,1446.3528 C 4166.6806,1447.1796 4179.9228,1449.9245 4191.4396,1452.4527 C 4214.7386,1457.5674 4213.5124,1457.6888 4216.3319,1449.9876 C 4218.5206,1444.0093 4223.0875,1438.621 4228.8236,1435.249 C 4232.9528,1432.8217 4234.5139,1432.5 4242.1639,1432.5 C 4250.1948,1432.5 4251.1428,1432.7214 4255.1402,1435.5309 C 4259.8377,1438.8324 4264.4553,1445.6171 4265.4985,1450.75 L 4266.1589,1454 L 4260.8295,1453.9856 L 4255.5,1453.9712 L 4252.8369,1449.1408 C 4250.0953,1444.1679 4245.4559,1441 4240.9146,1441 C 4236.4988,1441 4230.0766,1445.0119 4227.5543,1449.346 C 4224.6093,1454.4064 4223.4905,1458.5671 4224.8489,1459.4066 C 4225.4049,1459.7502 4230.9538,1461.1059 4237.1799,1462.4191 C 4263.7467,1468.023 4325.4437,1483.5586 4364.5,1494.4791 C 4389.1163,1501.362 4454.5681,1521.9929 4488.145,1533.4528 C 4506.6497,1539.7686 4545.5747,1554.3503 4574.645,1565.8566 C 4643.6876,1593.1844 4686.5816,1612.2211 4738.5,1638.577 C 4753.9,1646.3947 4766.8946,1652.838 4767.3769,1652.8955 C 4767.8592,1652.953 4771.6842,1651.1326 4775.8769,1648.8502 z M 4227.9108,1086.447 C 4222.1269,1084.6652 4213.6742,1076.0913 4212.0953,1070.4047 C 4210.7126,1065.4246 4210.693,1056.9486 4212.0559,1053.3151 C 4212.6366,1051.7668 4215.4321,1048.1392 4218.2679,1045.2539 L 4223.424,1040.0078 L 4219.0276,1035.5281 C 4215.0416,1031.4667 4214.592,1030.5082 4214.2127,1025.2632 C 4213.5824,1016.5494 4215.2115,1012.0112 4220.8702,1006.7182 C 4226.275,1001.6626 4230.7391,1000.0112 4239,1000.0112 C 4247.2609,1000.0112 4251.725,1001.6626 4257.1298,1006.7182 C 4262.7885,1012.0112 4264.4176,1016.5494 4263.7873,1025.2632 C 4263.408,1030.5082 4262.9584,1031.4667 4258.9724,1035.5281 L 4254.576,1040.0078 L 4259.798,1045.2955 C 4265.3623,1050.9297 4267.0034,1054.7376 4266.9944,1061.9934 C 4266.9851,1069.5133 4265.1741,1073.9356 4259.7595,1079.6608 C 4255.9632,1083.6748 4253.4413,1085.3854 4249.6677,1086.506 C 4243.4599,1088.3496 4234.0036,1088.3239 4227.9108,1086.447 z M 4246.5786,1077.1037 C 4251.3923,1074.9174 4254.5597,1071.2015 4256.1587,1065.8646 C 4258.3238,1058.6383 4254.1242,1050.3234 4246.5786,1046.8963 C 4236.3201,1042.2372 4225.0736,1047.3468 4221.8413,1058.1354 C 4218.8954,1067.968 4227.9508,1078.9561 4239,1078.9561 C 4240.925,1078.9561 4244.3354,1078.1225 4246.5786,1077.1037 z M 4247.8245,1033.3251 C 4249.296,1032.2503 4251.3339,1029.6929 4252.3531,1027.642 C 4258.7461,1014.7779 4240.5145,1002.9646 4229.0962,1012.5725 C 4221.6065,1018.8747 4223.3597,1030.5287 4232.4152,1034.634 C 4236.4896,1036.4811 4244.4266,1035.8069 4247.8245,1033.3251 z M 4297.4063,655.92173 C 4295.7048,655.42789 4292.0234,652.60333 4289.2255,649.64493 C 4285.1695,645.35628 4283.6683,642.76956 4281.8192,636.88301 C 4279.7815,630.39626 4279.502,627.49699 4279.5167,613 C 4279.5411,588.89868 4282.5492,579.77747 4292.8641,572.52793 C 4296.8715,569.71138 4297.7886,569.5 4306,569.5 C 4314.2114,569.5 4315.1285,569.71138 4319.1359,572.52793 C 4329.4508,579.77747 4332.4589,588.89868 4332.4833,613 C 4332.498,627.49699 4332.2185,630.39626 4330.1808,636.88301 C 4328.3341,642.76198 4326.8294,645.35746 4322.7947,649.6236 C 4319.5982,653.00337 4316.3936,655.35176 4314.1138,655.98501 C 4309.7747,657.19031 4301.6714,657.15961 4297.4063,655.92173 z M 4312.1367,645.80304 C 4319.0755,641.90321 4322.9849,630.08184 4322.9849,613 C 4322.9849,595.91816 4319.0755,584.09679 4312.1367,580.19696 C 4309.9867,578.98863 4307.2252,578 4306,578 C 4304.7748,578 4302.0133,578.98863 4299.8633,580.19696 C 4292.9245,584.09679 4289.0151,595.91816 4289.0151,613 C 4289.0151,629.90041 4292.9077,641.81521 4299.7186,645.76253 C 4304.5149,648.54228 4307.247,648.55119 4312.1367,645.80304 z M 4237,624.7 C 4237,603.24444 4236.6787,595.07873 4235.8,594.2 C 4235.0594,593.45944 4231.4222,593 4226.3,593 L 4218,593 L 4218,589.51905 C 4218,586.52517 4218.3848,585.95911 4220.75,585.47359 C 4231.7782,583.20972 4236.0578,580.33679 4238.2527,573.72391 C 4239.5263,569.88657 4239.9907,569.4716 4243.3273,569.18963 L 4247,568.87927 L 4247,611.43963 L 4247,654 L 4242,654 L 4237,654 L 4237,624.7 z M 4237,192.7 C 4237,171.24444 4236.6787,163.07873 4235.8,162.2 C 4235.0594,161.45944 4231.4222,161 4226.3,161 L 4218,161 L 4218,157.51905 C 4218,154.52517 4218.3848,153.95911 4220.75,153.47359 C 4231.7782,151.20972 4236.0578,148.33679 4238.2527,141.72391 C 4239.5263,137.88657 4239.9907,137.4716 4243.3273,137.18963 L 4247,136.87927 L 4247,179.43963 L 4247,222 L 4242,222 L 4237,222 L 4237,192.7 z M 4248.4237,1508.0472 C 4250.6592,1506.6655 4252.863,1503.9354 4254.5868,1500.4121 C 4256.8301,1495.827 4257.1712,1494.0931 4256.6671,1489.8374 C 4255.7278,1481.9062 4254.3696,1480.5891 4244.6049,1478.14 C 4232.6951,1475.153 4230.8249,1475.2964 4227.1529,1479.4786 C 4219.5361,1488.1537 4222.6916,1503.5919 4233.1683,1508.9083 C 4238.3147,1511.5198 4243.2561,1511.2409 4248.4237,1508.0472 z M 5205,3095.7 C 5205,3074.2444 5204.6787,3066.0787 5203.8,3065.2 C 5203.0594,3064.4594 5199.4222,3064 5194.3,3064 L 5186,3064 L 5186,3060.5191 C 5186,3057.5252 5186.3848,3056.9591 5188.75,3056.4736 C 5199.7782,3054.2097 5204.0578,3051.3368 5206.2527,3044.7239 C 5207.5263,3040.8866 5207.9907,3040.4716 5211.3273,3040.1896 L 5215,3039.8793 L 5215,3082.4396 L 5215,3125 L 5210,3125 L 5205,3125 L 5205,3095.7 z M 3582.4063,2804.9217 C 3580.7048,2804.4279 3577.0234,2801.6033 3574.2255,2798.6449 C 3570.1695,2794.3563 3568.6683,2791.7696 3566.8192,2785.883 C 3564.7815,2779.3963 3564.502,2776.497 3564.5167,2762 C 3564.5411,2737.8987 3567.5492,2728.7775 3577.8641,2721.5279 C 3581.8715,2718.7114 3582.7886,2718.5 3591,2718.5 C 3599.2114,2718.5 3600.1285,2718.7114 3604.1359,2721.5279 C 3614.4508,2728.7775 3617.4589,2737.8987 3617.4833,2762 C 3617.498,2776.497 3617.2185,2779.3963 3615.1808,2785.883 C 3613.3341,2791.762 3611.8294,2794.3575 3607.7947,2798.6236 C 3604.5982,2802.0034 3601.3936,2804.3518 3599.1138,2804.985 C 3594.7747,2806.1903 3586.6714,2806.1596 3582.4063,2804.9217 z M 3597.1367,2794.803 C 3604.0755,2790.9032 3607.9849,2779.0818 3607.9849,2762 C 3607.9849,2744.9182 3604.0755,2733.0968 3597.1367,2729.197 C 3594.9867,2727.9886 3592.2252,2727 3591,2727 C 3589.7748,2727 3587.0133,2727.9886 3584.8633,2729.197 C 3577.9245,2733.0968 3574.0151,2744.9182 3574.0151,2762 C 3574.0151,2778.9004 3577.9077,2790.8152 3584.7186,2794.7625 C 3589.5149,2797.5423 3592.247,2797.5512 3597.1367,2794.803 z M 3680.7121,2804.8458 C 3678.6124,2804.2569 3674.4953,2801.5635 3671.4744,2798.8026 C 3667.2689,2794.959 3665.6793,2792.659 3664.5123,2788.7294 C 3663.6805,2785.9286 3663,2783.2687 3663,2782.8185 C 3663,2782.3683 3665.469,2782 3668.4866,2782 C 3673.8718,2782 3674.0018,2782.0686 3675.5247,2785.7134 C 3677.6102,2790.7046 3679.7346,2792.931 3684.5,2795.1193 C 3689.9295,2797.6125 3693.6854,2797.4594 3699.6177,2794.5032 C 3714.1847,2787.2442 3713.026,2763.9208 3697.7821,2757.553 C 3691.0515,2754.7415 3685.6396,2755.7413 3678.9621,2761.03 C 3676.032,2763.3507 3674.2052,2764 3670.6061,2764 C 3667.5864,2764 3666,2763.5692 3666,2762.7492 C 3666,2762.0613 3667.35,2751.8242 3669,2740 C 3670.65,2728.1758 3672,2718.3887 3672,2718.2508 C 3672,2718.1128 3681.9,2718 3694,2718 L 3716,2718 L 3716,2723 L 3716,2728 L 3699.1224,2728 C 3686.81,2728 3681.9797,2728.3381 3681.2643,2729.25 C 3680.1196,2730.7093 3677.5402,2748.8735 3678.3611,2749.6945 C 3678.6669,2750.0002 3680.7448,2749.519 3682.9788,2748.6252 C 3687.7033,2746.7348 3695.2413,2746.5284 3701.5489,2748.1166 C 3706.9603,2749.4792 3714.2744,2755.6708 3717.2075,2761.3718 C 3720.1082,2767.0099 3720.7872,2778.7802 3718.6383,2786.1721 C 3716.7372,2792.7117 3710.6645,2800.0987 3704.6282,2803.2145 C 3699.8273,2805.6926 3686.88,2806.5757 3680.7121,2804.8458 z M 3636,2797 L 3636,2791 L 3642,2791 L 3648,2791 L 3648,2797 L 3648,2803 L 3642,2803 L 3636,2803 L 3636,2797 z M 3491,2769.5 L 3491,2765 L 3525,2765 L 3559,2765 L 3559,2769.5 L 3559,2774 L 3525,2774 L 3491,2774 L 3491,2769.5 z M 3128,2667.7 C 3128,2646.2444 3127.6787,2638.0787 3126.8,2637.2 C 3126.0594,2636.4594 3122.4222,2636 3117.3,2636 L 3109,2636 L 3109,2632.5191 C 3109,2629.5252 3109.3848,2628.9591 3111.75,2628.4736 C 3122.7782,2626.2097 3127.0578,2623.3368 3129.2527,2616.7239 C 3130.5263,2612.8866 3130.9907,2612.4716 3134.3273,2612.1896 L 3138,2611.8793 L 3138,2654.4396 L 3138,2697 L 3133,2697 L 3128,2697 L 3128,2667.7 z M 3030,2663.5 L 3030,2659 L 3064,2659 L 3098,2659 L 3098,2663.5 L 3098,2668 L 3064,2668 L 3030,2668 L 3030,2663.5 z "
       id="path2262" />
  </g>
  <path
     style="fill:none;fill-rule:evenodd;stroke:#000000;stroke-width:10;stroke-linecap:butt;stroke-linejoin:miter;marker-mid:url(#TriangleOutL);marker-end:url(#TriangleOutL);stroke-miterlimit:4;stroke-dasharray:none;stroke-opacity:0"
     d="M 696.96904,3267.4861 C 1075.4077,3267.4861 1475.1313,3174.3822 1780.2452,3011.0688 C 2085.3591,2847.7555 2295.8634,2614.2327 2295.8634,2333.3952 C 2295.8634,2014.5743 1983.3372,1705.2411 1457.1477,1527.9433 C 777.04781,1298.786 316.17972,1869.8863 560.22149,1908.4259 M 2072.8597,1447.6919 C 2370.6371,1101.1816 2066.0066,706.03242 1833.0256,341.08868 C 1066.1165,149.84959 -244.80084,127.13034 48.996067,395.7877"
     id="path2305"
     sodipodi:nodetypes="cscscccc" />
</svg>
